<?xml version="1.0" encoding="utf-8" standalone="no"?>
<!DOCTYPE svg PUBLIC "-//W3C//DTD SVG 1.1//EN"
  "http://www.w3.org/Graphics/SVG/1.1/DTD/svg11.dtd">
<svg xmlns:xlink="http://www.w3.org/1999/xlink" width="864pt" height="432pt" viewBox="0 0 864 432" xmlns="http://www.w3.org/2000/svg" version="1.1">
 <metadata>
  <rdf:RDF xmlns:dc="http://purl.org/dc/elements/1.1/" xmlns:cc="http://creativecommons.org/ns#" xmlns:rdf="http://www.w3.org/1999/02/22-rdf-syntax-ns#">
   <cc:Work>
    <dc:type rdf:resource="http://purl.org/dc/dcmitype/StillImage"/>
    <dc:date>2024-05-12T06:41:37.126953</dc:date>
    <dc:format>image/svg+xml</dc:format>
    <dc:creator>
     <cc:Agent>
      <dc:title>Matplotlib v3.8.4, https://matplotlib.org/</dc:title>
     </cc:Agent>
    </dc:creator>
   </cc:Work>
  </rdf:RDF>
 </metadata>
 <defs>
  <style type="text/css">*{stroke-linejoin: round; stroke-linecap: butt}</style>
 </defs>
 <g id="figure_1">
  <g id="patch_1">
   <path d="M 0 432 
L 864 432 
L 864 0 
L 0 0 
L 0 432 
z
" style="fill: none"/>
  </g>
  <g id="axes_1">
   <g id="patch_2">
    <path d="M 58.4 388.93125 
L 853.2 388.93125 
L 853.2 13.244483 
L 58.4 13.244483 
L 58.4 388.93125 
z
" style="fill: none"/>
   </g>
   <g id="patch_3">
    <path d="M 94.527273 388.93125 
L 96.501441 388.93125 
L 96.501441 388.744313 
L 94.527273 388.744313 
z
" clip-path="url(#pd931bc4de3)" style="fill: #1f77b4"/>
   </g>
   <g id="patch_4">
    <path d="M 96.501441 388.93125 
L 98.475609 388.93125 
L 98.475609 388.93125 
L 96.501441 388.93125 
z
" clip-path="url(#pd931bc4de3)" style="fill: #1f77b4"/>
   </g>
   <g id="patch_5">
    <path d="M 98.475609 388.93125 
L 100.449776 388.93125 
L 100.449776 388.93125 
L 98.475609 388.93125 
z
" clip-path="url(#pd931bc4de3)" style="fill: #1f77b4"/>
   </g>
   <g id="patch_6">
    <path d="M 100.449776 388.93125 
L 102.423944 388.93125 
L 102.423944 388.93125 
L 100.449776 388.93125 
z
" clip-path="url(#pd931bc4de3)" style="fill: #1f77b4"/>
   </g>
   <g id="patch_7">
    <path d="M 102.423944 388.93125 
L 104.398112 388.93125 
L 104.398112 388.93125 
L 102.423944 388.93125 
z
" clip-path="url(#pd931bc4de3)" style="fill: #1f77b4"/>
   </g>
   <g id="patch_8">
    <path d="M 104.398112 388.93125 
L 106.37228 388.93125 
L 106.37228 388.93125 
L 104.398112 388.93125 
z
" clip-path="url(#pd931bc4de3)" style="fill: #1f77b4"/>
   </g>
   <g id="patch_9">
    <path d="M 106.37228 388.93125 
L 108.346448 388.93125 
L 108.346448 388.93125 
L 106.37228 388.93125 
z
" clip-path="url(#pd931bc4de3)" style="fill: #1f77b4"/>
   </g>
   <g id="patch_10">
    <path d="M 108.346448 388.93125 
L 110.320616 388.93125 
L 110.320616 388.93125 
L 108.346448 388.93125 
z
" clip-path="url(#pd931bc4de3)" style="fill: #1f77b4"/>
   </g>
   <g id="patch_11">
    <path d="M 110.320616 388.93125 
L 112.294784 388.93125 
L 112.294784 388.93125 
L 110.320616 388.93125 
z
" clip-path="url(#pd931bc4de3)" style="fill: #1f77b4"/>
   </g>
   <g id="patch_12">
    <path d="M 112.294784 388.93125 
L 114.268952 388.93125 
L 114.268952 388.93125 
L 112.294784 388.93125 
z
" clip-path="url(#pd931bc4de3)" style="fill: #1f77b4"/>
   </g>
   <g id="patch_13">
    <path d="M 114.268952 388.93125 
L 116.24312 388.93125 
L 116.24312 388.93125 
L 114.268952 388.93125 
z
" clip-path="url(#pd931bc4de3)" style="fill: #1f77b4"/>
   </g>
   <g id="patch_14">
    <path d="M 116.24312 388.93125 
L 118.217288 388.93125 
L 118.217288 388.744313 
L 116.24312 388.744313 
z
" clip-path="url(#pd931bc4de3)" style="fill: #1f77b4"/>
   </g>
   <g id="patch_15">
    <path d="M 118.217288 388.93125 
L 120.191456 388.93125 
L 120.191456 388.93125 
L 118.217288 388.93125 
z
" clip-path="url(#pd931bc4de3)" style="fill: #1f77b4"/>
   </g>
   <g id="patch_16">
    <path d="M 120.191456 388.93125 
L 122.165623 388.93125 
L 122.165623 388.557377 
L 120.191456 388.557377 
z
" clip-path="url(#pd931bc4de3)" style="fill: #1f77b4"/>
   </g>
   <g id="patch_17">
    <path d="M 122.165623 388.93125 
L 124.139791 388.93125 
L 124.139791 388.744313 
L 122.165623 388.744313 
z
" clip-path="url(#pd931bc4de3)" style="fill: #1f77b4"/>
   </g>
   <g id="patch_18">
    <path d="M 124.139791 388.93125 
L 126.113959 388.93125 
L 126.113959 388.557377 
L 124.139791 388.557377 
z
" clip-path="url(#pd931bc4de3)" style="fill: #1f77b4"/>
   </g>
   <g id="patch_19">
    <path d="M 126.113959 388.93125 
L 128.088127 388.93125 
L 128.088127 388.744313 
L 126.113959 388.744313 
z
" clip-path="url(#pd931bc4de3)" style="fill: #1f77b4"/>
   </g>
   <g id="patch_20">
    <path d="M 128.088127 388.93125 
L 130.062295 388.93125 
L 130.062295 388.744313 
L 128.088127 388.744313 
z
" clip-path="url(#pd931bc4de3)" style="fill: #1f77b4"/>
   </g>
   <g id="patch_21">
    <path d="M 130.062295 388.93125 
L 132.036463 388.93125 
L 132.036463 388.37044 
L 130.062295 388.37044 
z
" clip-path="url(#pd931bc4de3)" style="fill: #1f77b4"/>
   </g>
   <g id="patch_22">
    <path d="M 132.036463 388.93125 
L 134.010631 388.93125 
L 134.010631 388.93125 
L 132.036463 388.93125 
z
" clip-path="url(#pd931bc4de3)" style="fill: #1f77b4"/>
   </g>
   <g id="patch_23">
    <path d="M 134.010631 388.93125 
L 135.984799 388.93125 
L 135.984799 388.557377 
L 134.010631 388.557377 
z
" clip-path="url(#pd931bc4de3)" style="fill: #1f77b4"/>
   </g>
   <g id="patch_24">
    <path d="M 135.984799 388.93125 
L 137.958967 388.93125 
L 137.958967 388.557377 
L 135.984799 388.557377 
z
" clip-path="url(#pd931bc4de3)" style="fill: #1f77b4"/>
   </g>
   <g id="patch_25">
    <path d="M 137.958967 388.93125 
L 139.933135 388.93125 
L 139.933135 388.37044 
L 137.958967 388.37044 
z
" clip-path="url(#pd931bc4de3)" style="fill: #1f77b4"/>
   </g>
   <g id="patch_26">
    <path d="M 139.933135 388.93125 
L 141.907303 388.93125 
L 141.907303 388.744313 
L 139.933135 388.744313 
z
" clip-path="url(#pd931bc4de3)" style="fill: #1f77b4"/>
   </g>
   <g id="patch_27">
    <path d="M 141.907303 388.93125 
L 143.88147 388.93125 
L 143.88147 388.557377 
L 141.907303 388.557377 
z
" clip-path="url(#pd931bc4de3)" style="fill: #1f77b4"/>
   </g>
   <g id="patch_28">
    <path d="M 143.88147 388.93125 
L 145.855638 388.93125 
L 145.855638 388.557377 
L 143.88147 388.557377 
z
" clip-path="url(#pd931bc4de3)" style="fill: #1f77b4"/>
   </g>
   <g id="patch_29">
    <path d="M 145.855638 388.93125 
L 147.829806 388.93125 
L 147.829806 388.37044 
L 145.855638 388.37044 
z
" clip-path="url(#pd931bc4de3)" style="fill: #1f77b4"/>
   </g>
   <g id="patch_30">
    <path d="M 147.829806 388.93125 
L 149.803974 388.93125 
L 149.803974 388.744313 
L 147.829806 388.744313 
z
" clip-path="url(#pd931bc4de3)" style="fill: #1f77b4"/>
   </g>
   <g id="patch_31">
    <path d="M 149.803974 388.93125 
L 151.778142 388.93125 
L 151.778142 350.048408 
L 149.803974 350.048408 
z
" clip-path="url(#pd931bc4de3)" style="fill: #1f77b4"/>
   </g>
   <g id="patch_32">
    <path d="M 151.778142 388.93125 
L 153.75231 388.93125 
L 153.75231 245.176897 
L 151.778142 245.176897 
z
" clip-path="url(#pd931bc4de3)" style="fill: #1f77b4"/>
   </g>
   <g id="patch_33">
    <path d="M 153.75231 388.93125 
L 155.726478 388.93125 
L 155.726478 161.429237 
L 153.75231 161.429237 
z
" clip-path="url(#pd931bc4de3)" style="fill: #1f77b4"/>
   </g>
   <g id="patch_34">
    <path d="M 155.726478 388.93125 
L 157.700646 388.93125 
L 157.700646 78.055451 
L 155.726478 78.055451 
z
" clip-path="url(#pd931bc4de3)" style="fill: #1f77b4"/>
   </g>
   <g id="patch_35">
    <path d="M 157.700646 388.93125 
L 159.674814 388.93125 
L 159.674814 113.012621 
L 157.700646 113.012621 
z
" clip-path="url(#pd931bc4de3)" style="fill: #1f77b4"/>
   </g>
   <g id="patch_36">
    <path d="M 159.674814 388.93125 
L 161.648982 388.93125 
L 161.648982 116.003609 
L 159.674814 116.003609 
z
" clip-path="url(#pd931bc4de3)" style="fill: #1f77b4"/>
   </g>
   <g id="patch_37">
    <path d="M 161.648982 388.93125 
L 163.62315 388.93125 
L 163.62315 100.674796 
L 161.648982 100.674796 
z
" clip-path="url(#pd931bc4de3)" style="fill: #1f77b4"/>
   </g>
   <g id="patch_38">
    <path d="M 163.62315 388.93125 
L 165.597317 388.93125 
L 165.597317 116.190546 
L 163.62315 116.190546 
z
" clip-path="url(#pd931bc4de3)" style="fill: #1f77b4"/>
   </g>
   <g id="patch_39">
    <path d="M 165.597317 388.93125 
L 167.571485 388.93125 
L 167.571485 121.611711 
L 165.597317 121.611711 
z
" clip-path="url(#pd931bc4de3)" style="fill: #1f77b4"/>
   </g>
   <g id="patch_40">
    <path d="M 167.571485 388.93125 
L 169.545653 388.93125 
L 169.545653 91.141022 
L 167.571485 91.141022 
z
" clip-path="url(#pd931bc4de3)" style="fill: #1f77b4"/>
   </g>
   <g id="patch_41">
    <path d="M 169.545653 388.93125 
L 171.519821 388.93125 
L 171.519821 121.611711 
L 169.545653 121.611711 
z
" clip-path="url(#pd931bc4de3)" style="fill: #1f77b4"/>
   </g>
   <g id="patch_42">
    <path d="M 171.519821 388.93125 
L 173.493989 388.93125 
L 173.493989 108.900013 
L 171.519821 108.900013 
z
" clip-path="url(#pd931bc4de3)" style="fill: #1f77b4"/>
   </g>
   <g id="patch_43">
    <path d="M 173.493989 388.93125 
L 175.468157 388.93125 
L 175.468157 93.945074 
L 173.493989 93.945074 
z
" clip-path="url(#pd931bc4de3)" style="fill: #1f77b4"/>
   </g>
   <g id="patch_44">
    <path d="M 175.468157 388.93125 
L 177.442325 388.93125 
L 177.442325 125.911256 
L 175.468157 125.911256 
z
" clip-path="url(#pd931bc4de3)" style="fill: #1f77b4"/>
   </g>
   <g id="patch_45">
    <path d="M 177.442325 388.93125 
L 179.416493 388.93125 
L 179.416493 169.84139 
L 177.442325 169.84139 
z
" clip-path="url(#pd931bc4de3)" style="fill: #1f77b4"/>
   </g>
   <g id="patch_46">
    <path d="M 179.416493 388.93125 
L 181.390661 388.93125 
L 181.390661 45.902331 
L 179.416493 45.902331 
z
" clip-path="url(#pd931bc4de3)" style="fill: #1f77b4"/>
   </g>
   <g id="patch_47">
    <path d="M 181.390661 388.93125 
L 183.364829 388.93125 
L 183.364829 45.715395 
L 181.390661 45.715395 
z
" clip-path="url(#pd931bc4de3)" style="fill: #1f77b4"/>
   </g>
   <g id="patch_48">
    <path d="M 183.364829 388.93125 
L 185.338997 388.93125 
L 185.338997 46.837015 
L 183.364829 46.837015 
z
" clip-path="url(#pd931bc4de3)" style="fill: #1f77b4"/>
   </g>
   <g id="patch_49">
    <path d="M 185.338997 388.93125 
L 187.313164 388.93125 
L 187.313164 143.109436 
L 185.338997 143.109436 
z
" clip-path="url(#pd931bc4de3)" style="fill: #1f77b4"/>
   </g>
   <g id="patch_50">
    <path d="M 187.313164 388.93125 
L 189.287332 388.93125 
L 189.287332 160.307616 
L 187.313164 160.307616 
z
" clip-path="url(#pd931bc4de3)" style="fill: #1f77b4"/>
   </g>
   <g id="patch_51">
    <path d="M 189.287332 388.93125 
L 191.2615 388.93125 
L 191.2615 134.32341 
L 189.287332 134.32341 
z
" clip-path="url(#pd931bc4de3)" style="fill: #1f77b4"/>
   </g>
   <g id="patch_52">
    <path d="M 191.2615 388.93125 
L 193.235668 388.93125 
L 193.235668 124.228826 
L 191.2615 124.228826 
z
" clip-path="url(#pd931bc4de3)" style="fill: #1f77b4"/>
   </g>
   <g id="patch_53">
    <path d="M 193.235668 388.93125 
L 195.209836 388.93125 
L 195.209836 124.415762 
L 193.235668 124.415762 
z
" clip-path="url(#pd931bc4de3)" style="fill: #1f77b4"/>
   </g>
   <g id="patch_54">
    <path d="M 195.209836 388.93125 
L 197.184004 388.93125 
L 197.184004 109.08695 
L 195.209836 109.08695 
z
" clip-path="url(#pd931bc4de3)" style="fill: #1f77b4"/>
   </g>
   <g id="patch_55">
    <path d="M 197.184004 388.93125 
L 199.158172 388.93125 
L 199.158172 83.663553 
L 197.184004 83.663553 
z
" clip-path="url(#pd931bc4de3)" style="fill: #1f77b4"/>
   </g>
   <g id="patch_56">
    <path d="M 199.158172 388.93125 
L 201.13234 388.93125 
L 201.13234 102.17029 
L 199.158172 102.17029 
z
" clip-path="url(#pd931bc4de3)" style="fill: #1f77b4"/>
   </g>
   <g id="patch_57">
    <path d="M 201.13234 388.93125 
L 203.106508 388.93125 
L 203.106508 115.255862 
L 201.13234 115.255862 
z
" clip-path="url(#pd931bc4de3)" style="fill: #1f77b4"/>
   </g>
   <g id="patch_58">
    <path d="M 203.106508 388.93125 
L 205.080676 388.93125 
L 205.080676 86.280667 
L 203.106508 86.280667 
z
" clip-path="url(#pd931bc4de3)" style="fill: #1f77b4"/>
   </g>
   <g id="patch_59">
    <path d="M 205.080676 388.93125 
L 207.054844 388.93125 
L 207.054844 100.861733 
L 205.080676 100.861733 
z
" clip-path="url(#pd931bc4de3)" style="fill: #1f77b4"/>
   </g>
   <g id="patch_60">
    <path d="M 207.054844 388.93125 
L 209.029011 388.93125 
L 209.029011 115.816672 
L 207.054844 115.816672 
z
" clip-path="url(#pd931bc4de3)" style="fill: #1f77b4"/>
   </g>
   <g id="patch_61">
    <path d="M 209.029011 388.93125 
L 211.003179 388.93125 
L 211.003179 106.282898 
L 209.029011 106.282898 
z
" clip-path="url(#pd931bc4de3)" style="fill: #1f77b4"/>
   </g>
   <g id="patch_62">
    <path d="M 211.003179 388.93125 
L 212.977347 388.93125 
L 212.977347 95.066694 
L 211.003179 95.066694 
z
" clip-path="url(#pd931bc4de3)" style="fill: #1f77b4"/>
   </g>
   <g id="patch_63">
    <path d="M 212.977347 388.93125 
L 214.951515 388.93125 
L 214.951515 119.36847 
L 212.977347 119.36847 
z
" clip-path="url(#pd931bc4de3)" style="fill: #1f77b4"/>
   </g>
   <g id="patch_64">
    <path d="M 214.951515 388.93125 
L 216.925683 388.93125 
L 216.925683 98.057682 
L 214.951515 98.057682 
z
" clip-path="url(#pd931bc4de3)" style="fill: #1f77b4"/>
   </g>
   <g id="patch_65">
    <path d="M 216.925683 388.93125 
L 218.899851 388.93125 
L 218.899851 116.003609 
L 216.925683 116.003609 
z
" clip-path="url(#pd931bc4de3)" style="fill: #1f77b4"/>
   </g>
   <g id="patch_66">
    <path d="M 218.899851 388.93125 
L 220.874019 388.93125 
L 220.874019 132.080169 
L 218.899851 132.080169 
z
" clip-path="url(#pd931bc4de3)" style="fill: #1f77b4"/>
   </g>
   <g id="patch_67">
    <path d="M 220.874019 388.93125 
L 222.848187 388.93125 
L 222.848187 103.852721 
L 220.874019 103.852721 
z
" clip-path="url(#pd931bc4de3)" style="fill: #1f77b4"/>
   </g>
   <g id="patch_68">
    <path d="M 222.848187 388.93125 
L 224.822355 388.93125 
L 224.822355 93.5712 
L 222.848187 93.5712 
z
" clip-path="url(#pd931bc4de3)" style="fill: #1f77b4"/>
   </g>
   <g id="patch_69">
    <path d="M 224.822355 388.93125 
L 226.796523 388.93125 
L 226.796523 124.976573 
L 224.822355 124.976573 
z
" clip-path="url(#pd931bc4de3)" style="fill: #1f77b4"/>
   </g>
   <g id="patch_70">
    <path d="M 226.796523 388.93125 
L 228.770691 388.93125 
L 228.770691 87.402288 
L 226.796523 87.402288 
z
" clip-path="url(#pd931bc4de3)" style="fill: #1f77b4"/>
   </g>
   <g id="patch_71">
    <path d="M 228.770691 388.93125 
L 230.744858 388.93125 
L 230.744858 114.134242 
L 228.770691 114.134242 
z
" clip-path="url(#pd931bc4de3)" style="fill: #1f77b4"/>
   </g>
   <g id="patch_72">
    <path d="M 230.744858 388.93125 
L 232.719026 388.93125 
L 232.719026 96.936061 
L 230.744858 96.936061 
z
" clip-path="url(#pd931bc4de3)" style="fill: #1f77b4"/>
   </g>
   <g id="patch_73">
    <path d="M 232.719026 388.93125 
L 234.693194 388.93125 
L 234.693194 114.508115 
L 232.719026 114.508115 
z
" clip-path="url(#pd931bc4de3)" style="fill: #1f77b4"/>
   </g>
   <g id="patch_74">
    <path d="M 234.693194 388.93125 
L 236.667362 388.93125 
L 236.667362 118.433787 
L 234.693194 118.433787 
z
" clip-path="url(#pd931bc4de3)" style="fill: #1f77b4"/>
   </g>
   <g id="patch_75">
    <path d="M 236.667362 388.93125 
L 238.64153 388.93125 
L 238.64153 92.44958 
L 236.667362 92.44958 
z
" clip-path="url(#pd931bc4de3)" style="fill: #1f77b4"/>
   </g>
   <g id="patch_76">
    <path d="M 238.64153 388.93125 
L 240.615698 388.93125 
L 240.615698 92.636516 
L 238.64153 92.636516 
z
" clip-path="url(#pd931bc4de3)" style="fill: #1f77b4"/>
   </g>
   <g id="patch_77">
    <path d="M 240.615698 388.93125 
L 242.589866 388.93125 
L 242.589866 113.199558 
L 240.615698 113.199558 
z
" clip-path="url(#pd931bc4de3)" style="fill: #1f77b4"/>
   </g>
   <g id="patch_78">
    <path d="M 242.589866 388.93125 
L 244.564034 388.93125 
L 244.564034 112.264874 
L 242.589866 112.264874 
z
" clip-path="url(#pd931bc4de3)" style="fill: #1f77b4"/>
   </g>
   <g id="patch_79">
    <path d="M 244.564034 388.93125 
L 246.538202 388.93125 
L 246.538202 98.618492 
L 244.564034 98.618492 
z
" clip-path="url(#pd931bc4de3)" style="fill: #1f77b4"/>
   </g>
   <g id="patch_80">
    <path d="M 246.538202 388.93125 
L 248.51237 388.93125 
L 248.51237 107.591456 
L 246.538202 107.591456 
z
" clip-path="url(#pd931bc4de3)" style="fill: #1f77b4"/>
   </g>
   <g id="patch_81">
    <path d="M 248.51237 388.93125 
L 250.486538 388.93125 
L 250.486538 119.929281 
L 248.51237 119.929281 
z
" clip-path="url(#pd931bc4de3)" style="fill: #1f77b4"/>
   </g>
   <g id="patch_82">
    <path d="M 250.486538 388.93125 
L 252.460705 388.93125 
L 252.460705 104.039658 
L 250.486538 104.039658 
z
" clip-path="url(#pd931bc4de3)" style="fill: #1f77b4"/>
   </g>
   <g id="patch_83">
    <path d="M 252.460705 388.93125 
L 254.434873 388.93125 
L 254.434873 106.843709 
L 252.460705 106.843709 
z
" clip-path="url(#pd931bc4de3)" style="fill: #1f77b4"/>
   </g>
   <g id="patch_84">
    <path d="M 254.434873 388.93125 
L 256.409041 388.93125 
L 256.409041 96.749125 
L 254.434873 96.749125 
z
" clip-path="url(#pd931bc4de3)" style="fill: #1f77b4"/>
   </g>
   <g id="patch_85">
    <path d="M 256.409041 388.93125 
L 258.383209 388.93125 
L 258.383209 116.751356 
L 256.409041 116.751356 
z
" clip-path="url(#pd931bc4de3)" style="fill: #1f77b4"/>
   </g>
   <g id="patch_86">
    <path d="M 258.383209 388.93125 
L 260.357377 388.93125 
L 260.357377 108.900013 
L 258.383209 108.900013 
z
" clip-path="url(#pd931bc4de3)" style="fill: #1f77b4"/>
   </g>
   <g id="patch_87">
    <path d="M 260.357377 388.93125 
L 262.331545 388.93125 
L 262.331545 98.431555 
L 260.357377 98.431555 
z
" clip-path="url(#pd931bc4de3)" style="fill: #1f77b4"/>
   </g>
   <g id="patch_88">
    <path d="M 262.331545 388.93125 
L 264.305713 388.93125 
L 264.305713 106.282898 
L 262.331545 106.282898 
z
" clip-path="url(#pd931bc4de3)" style="fill: #1f77b4"/>
   </g>
   <g id="patch_89">
    <path d="M 264.305713 388.93125 
L 266.279881 388.93125 
L 266.279881 145.726551 
L 264.305713 145.726551 
z
" clip-path="url(#pd931bc4de3)" style="fill: #1f77b4"/>
   </g>
   <g id="patch_90">
    <path d="M 266.279881 388.93125 
L 268.254049 388.93125 
L 268.254049 105.535152 
L 266.279881 105.535152 
z
" clip-path="url(#pd931bc4de3)" style="fill: #1f77b4"/>
   </g>
   <g id="patch_91">
    <path d="M 268.254049 388.93125 
L 270.228217 388.93125 
L 270.228217 107.591456 
L 268.254049 107.591456 
z
" clip-path="url(#pd931bc4de3)" style="fill: #1f77b4"/>
   </g>
   <g id="patch_92">
    <path d="M 270.228217 388.93125 
L 272.202385 388.93125 
L 272.202385 110.956317 
L 270.228217 110.956317 
z
" clip-path="url(#pd931bc4de3)" style="fill: #1f77b4"/>
   </g>
   <g id="patch_93">
    <path d="M 272.202385 388.93125 
L 274.176552 388.93125 
L 274.176552 87.402288 
L 272.202385 87.402288 
z
" clip-path="url(#pd931bc4de3)" style="fill: #1f77b4"/>
   </g>
   <g id="patch_94">
    <path d="M 274.176552 388.93125 
L 276.15072 388.93125 
L 276.15072 104.226594 
L 274.176552 104.226594 
z
" clip-path="url(#pd931bc4de3)" style="fill: #1f77b4"/>
   </g>
   <g id="patch_95">
    <path d="M 276.15072 388.93125 
L 278.124888 388.93125 
L 278.124888 107.030645 
L 276.15072 107.030645 
z
" clip-path="url(#pd931bc4de3)" style="fill: #1f77b4"/>
   </g>
   <g id="patch_96">
    <path d="M 278.124888 388.93125 
L 280.099056 388.93125 
L 280.099056 90.019402 
L 278.124888 90.019402 
z
" clip-path="url(#pd931bc4de3)" style="fill: #1f77b4"/>
   </g>
   <g id="patch_97">
    <path d="M 280.099056 388.93125 
L 282.073224 388.93125 
L 282.073224 117.312166 
L 280.099056 117.312166 
z
" clip-path="url(#pd931bc4de3)" style="fill: #1f77b4"/>
   </g>
   <g id="patch_98">
    <path d="M 282.073224 388.93125 
L 284.047392 388.93125 
L 284.047392 100.674796 
L 282.073224 100.674796 
z
" clip-path="url(#pd931bc4de3)" style="fill: #1f77b4"/>
   </g>
   <g id="patch_99">
    <path d="M 284.047392 388.93125 
L 286.02156 388.93125 
L 286.02156 124.789636 
L 284.047392 124.789636 
z
" clip-path="url(#pd931bc4de3)" style="fill: #1f77b4"/>
   </g>
   <g id="patch_100">
    <path d="M 286.02156 388.93125 
L 287.995728 388.93125 
L 287.995728 118.433787 
L 286.02156 118.433787 
z
" clip-path="url(#pd931bc4de3)" style="fill: #1f77b4"/>
   </g>
   <g id="patch_101">
    <path d="M 287.995728 388.93125 
L 289.969896 388.93125 
L 289.969896 116.751356 
L 287.995728 116.751356 
z
" clip-path="url(#pd931bc4de3)" style="fill: #1f77b4"/>
   </g>
   <g id="patch_102">
    <path d="M 289.969896 388.93125 
L 291.944064 388.93125 
L 291.944064 108.900013 
L 289.969896 108.900013 
z
" clip-path="url(#pd931bc4de3)" style="fill: #1f77b4"/>
   </g>
   <g id="patch_103">
    <path d="M 291.944064 388.93125 
L 293.918231 388.93125 
L 293.918231 122.359458 
L 291.944064 122.359458 
z
" clip-path="url(#pd931bc4de3)" style="fill: #1f77b4"/>
   </g>
   <g id="patch_104">
    <path d="M 293.918231 388.93125 
L 295.892399 388.93125 
L 295.892399 116.938293 
L 293.918231 116.938293 
z
" clip-path="url(#pd931bc4de3)" style="fill: #1f77b4"/>
   </g>
   <g id="patch_105">
    <path d="M 295.892399 388.93125 
L 297.866567 388.93125 
L 297.866567 121.611711 
L 295.892399 121.611711 
z
" clip-path="url(#pd931bc4de3)" style="fill: #1f77b4"/>
   </g>
   <g id="patch_106">
    <path d="M 297.866567 388.93125 
L 299.840735 388.93125 
L 299.840735 111.143254 
L 297.866567 111.143254 
z
" clip-path="url(#pd931bc4de3)" style="fill: #1f77b4"/>
   </g>
   <g id="patch_107">
    <path d="M 299.840735 388.93125 
L 301.814903 388.93125 
L 301.814903 99.179302 
L 299.840735 99.179302 
z
" clip-path="url(#pd931bc4de3)" style="fill: #1f77b4"/>
   </g>
   <g id="patch_108">
    <path d="M 301.814903 388.93125 
L 303.789071 388.93125 
L 303.789071 124.789636 
L 301.814903 124.789636 
z
" clip-path="url(#pd931bc4de3)" style="fill: #1f77b4"/>
   </g>
   <g id="patch_109">
    <path d="M 303.789071 388.93125 
L 305.763239 388.93125 
L 305.763239 120.863964 
L 303.789071 120.863964 
z
" clip-path="url(#pd931bc4de3)" style="fill: #1f77b4"/>
   </g>
   <g id="patch_110">
    <path d="M 305.763239 388.93125 
L 307.737407 388.93125 
L 307.737407 103.104974 
L 305.763239 103.104974 
z
" clip-path="url(#pd931bc4de3)" style="fill: #1f77b4"/>
   </g>
   <g id="patch_111">
    <path d="M 307.737407 388.93125 
L 309.711575 388.93125 
L 309.711575 112.825684 
L 307.737407 112.825684 
z
" clip-path="url(#pd931bc4de3)" style="fill: #1f77b4"/>
   </g>
   <g id="patch_112">
    <path d="M 309.711575 388.93125 
L 311.685743 388.93125 
L 311.685743 102.17029 
L 309.711575 102.17029 
z
" clip-path="url(#pd931bc4de3)" style="fill: #1f77b4"/>
   </g>
   <g id="patch_113">
    <path d="M 311.685743 388.93125 
L 313.659911 388.93125 
L 313.659911 106.656772 
L 311.685743 106.656772 
z
" clip-path="url(#pd931bc4de3)" style="fill: #1f77b4"/>
   </g>
   <g id="patch_114">
    <path d="M 313.659911 388.93125 
L 315.634078 388.93125 
L 315.634078 111.143254 
L 313.659911 111.143254 
z
" clip-path="url(#pd931bc4de3)" style="fill: #1f77b4"/>
   </g>
   <g id="patch_115">
    <path d="M 315.634078 388.93125 
L 317.608246 388.93125 
L 317.608246 100.674796 
L 315.634078 100.674796 
z
" clip-path="url(#pd931bc4de3)" style="fill: #1f77b4"/>
   </g>
   <g id="patch_116">
    <path d="M 317.608246 388.93125 
L 319.582414 388.93125 
L 319.582414 117.312166 
L 317.608246 117.312166 
z
" clip-path="url(#pd931bc4de3)" style="fill: #1f77b4"/>
   </g>
   <g id="patch_117">
    <path d="M 319.582414 388.93125 
L 321.556582 388.93125 
L 321.556582 121.611711 
L 319.582414 121.611711 
z
" clip-path="url(#pd931bc4de3)" style="fill: #1f77b4"/>
   </g>
   <g id="patch_118">
    <path d="M 321.556582 388.93125 
L 323.53075 388.93125 
L 323.53075 106.282898 
L 321.556582 106.282898 
z
" clip-path="url(#pd931bc4de3)" style="fill: #1f77b4"/>
   </g>
   <g id="patch_119">
    <path d="M 323.53075 388.93125 
L 325.504918 388.93125 
L 325.504918 96.749125 
L 323.53075 96.749125 
z
" clip-path="url(#pd931bc4de3)" style="fill: #1f77b4"/>
   </g>
   <g id="patch_120">
    <path d="M 325.504918 388.93125 
L 327.479086 388.93125 
L 327.479086 108.339203 
L 325.504918 108.339203 
z
" clip-path="url(#pd931bc4de3)" style="fill: #1f77b4"/>
   </g>
   <g id="patch_121">
    <path d="M 327.479086 388.93125 
L 329.453254 388.93125 
L 329.453254 123.107205 
L 327.479086 123.107205 
z
" clip-path="url(#pd931bc4de3)" style="fill: #1f77b4"/>
   </g>
   <g id="patch_122">
    <path d="M 329.453254 388.93125 
L 331.427422 388.93125 
L 331.427422 91.888769 
L 329.453254 91.888769 
z
" clip-path="url(#pd931bc4de3)" style="fill: #1f77b4"/>
   </g>
   <g id="patch_123">
    <path d="M 331.427422 388.93125 
L 333.40159 388.93125 
L 333.40159 109.273886 
L 331.427422 109.273886 
z
" clip-path="url(#pd931bc4de3)" style="fill: #1f77b4"/>
   </g>
   <g id="patch_124">
    <path d="M 333.40159 388.93125 
L 335.375758 388.93125 
L 335.375758 114.134242 
L 333.40159 114.134242 
z
" clip-path="url(#pd931bc4de3)" style="fill: #1f77b4"/>
   </g>
   <g id="patch_125">
    <path d="M 335.375758 388.93125 
L 337.349925 388.93125 
L 337.349925 110.20857 
L 335.375758 110.20857 
z
" clip-path="url(#pd931bc4de3)" style="fill: #1f77b4"/>
   </g>
   <g id="patch_126">
    <path d="M 337.349925 388.93125 
L 339.324093 388.93125 
L 339.324093 96.188314 
L 337.349925 96.188314 
z
" clip-path="url(#pd931bc4de3)" style="fill: #1f77b4"/>
   </g>
   <g id="patch_127">
    <path d="M 339.324093 388.93125 
L 341.298261 388.93125 
L 341.298261 105.909025 
L 339.324093 105.909025 
z
" clip-path="url(#pd931bc4de3)" style="fill: #1f77b4"/>
   </g>
   <g id="patch_128">
    <path d="M 341.298261 388.93125 
L 343.272429 388.93125 
L 343.272429 104.226594 
L 341.298261 104.226594 
z
" clip-path="url(#pd931bc4de3)" style="fill: #1f77b4"/>
   </g>
   <g id="patch_129">
    <path d="M 343.272429 388.93125 
L 345.246597 388.93125 
L 345.246597 106.843709 
L 343.272429 106.843709 
z
" clip-path="url(#pd931bc4de3)" style="fill: #1f77b4"/>
   </g>
   <g id="patch_130">
    <path d="M 345.246597 388.93125 
L 347.220765 388.93125 
L 347.220765 120.677027 
L 345.246597 120.677027 
z
" clip-path="url(#pd931bc4de3)" style="fill: #1f77b4"/>
   </g>
   <g id="patch_131">
    <path d="M 347.220765 388.93125 
L 349.194933 388.93125 
L 349.194933 93.01039 
L 347.220765 93.01039 
z
" clip-path="url(#pd931bc4de3)" style="fill: #1f77b4"/>
   </g>
   <g id="patch_132">
    <path d="M 349.194933 388.93125 
L 351.169101 388.93125 
L 351.169101 96.188314 
L 349.194933 96.188314 
z
" clip-path="url(#pd931bc4de3)" style="fill: #1f77b4"/>
   </g>
   <g id="patch_133">
    <path d="M 351.169101 388.93125 
L 353.143269 388.93125 
L 353.143269 98.992366 
L 351.169101 98.992366 
z
" clip-path="url(#pd931bc4de3)" style="fill: #1f77b4"/>
   </g>
   <g id="patch_134">
    <path d="M 353.143269 388.93125 
L 355.117437 388.93125 
L 355.117437 117.68604 
L 353.143269 117.68604 
z
" clip-path="url(#pd931bc4de3)" style="fill: #1f77b4"/>
   </g>
   <g id="patch_135">
    <path d="M 355.117437 388.93125 
L 357.091605 388.93125 
L 357.091605 108.339203 
L 355.117437 108.339203 
z
" clip-path="url(#pd931bc4de3)" style="fill: #1f77b4"/>
   </g>
   <g id="patch_136">
    <path d="M 357.091605 388.93125 
L 359.065772 388.93125 
L 359.065772 108.900013 
L 357.091605 108.900013 
z
" clip-path="url(#pd931bc4de3)" style="fill: #1f77b4"/>
   </g>
   <g id="patch_137">
    <path d="M 359.065772 388.93125 
L 361.03994 388.93125 
L 361.03994 122.920268 
L 359.065772 122.920268 
z
" clip-path="url(#pd931bc4de3)" style="fill: #1f77b4"/>
   </g>
   <g id="patch_138">
    <path d="M 361.03994 388.93125 
L 363.014108 388.93125 
L 363.014108 112.638748 
L 361.03994 112.638748 
z
" clip-path="url(#pd931bc4de3)" style="fill: #1f77b4"/>
   </g>
   <g id="patch_139">
    <path d="M 363.014108 388.93125 
L 364.988276 388.93125 
L 364.988276 115.255862 
L 363.014108 115.255862 
z
" clip-path="url(#pd931bc4de3)" style="fill: #1f77b4"/>
   </g>
   <g id="patch_140">
    <path d="M 364.988276 388.93125 
L 366.962444 388.93125 
L 366.962444 112.264874 
L 364.988276 112.264874 
z
" clip-path="url(#pd931bc4de3)" style="fill: #1f77b4"/>
   </g>
   <g id="patch_141">
    <path d="M 366.962444 388.93125 
L 368.936612 388.93125 
L 368.936612 103.291911 
L 366.962444 103.291911 
z
" clip-path="url(#pd931bc4de3)" style="fill: #1f77b4"/>
   </g>
   <g id="patch_142">
    <path d="M 368.936612 388.93125 
L 370.91078 388.93125 
L 370.91078 89.084718 
L 368.936612 89.084718 
z
" clip-path="url(#pd931bc4de3)" style="fill: #1f77b4"/>
   </g>
   <g id="patch_143">
    <path d="M 370.91078 388.93125 
L 372.884948 388.93125 
L 372.884948 121.611711 
L 370.91078 121.611711 
z
" clip-path="url(#pd931bc4de3)" style="fill: #1f77b4"/>
   </g>
   <g id="patch_144">
    <path d="M 372.884948 388.93125 
L 374.859116 388.93125 
L 374.859116 96.749125 
L 372.884948 96.749125 
z
" clip-path="url(#pd931bc4de3)" style="fill: #1f77b4"/>
   </g>
   <g id="patch_145">
    <path d="M 374.859116 388.93125 
L 376.833284 388.93125 
L 376.833284 100.48786 
L 374.859116 100.48786 
z
" clip-path="url(#pd931bc4de3)" style="fill: #1f77b4"/>
   </g>
   <g id="patch_146">
    <path d="M 376.833284 388.93125 
L 378.807452 388.93125 
L 378.807452 117.125229 
L 376.833284 117.125229 
z
" clip-path="url(#pd931bc4de3)" style="fill: #1f77b4"/>
   </g>
   <g id="patch_147">
    <path d="M 378.807452 388.93125 
L 380.781619 388.93125 
L 380.781619 118.24685 
L 378.807452 118.24685 
z
" clip-path="url(#pd931bc4de3)" style="fill: #1f77b4"/>
   </g>
   <g id="patch_148">
    <path d="M 380.781619 388.93125 
L 382.755787 388.93125 
L 382.755787 106.095962 
L 380.781619 106.095962 
z
" clip-path="url(#pd931bc4de3)" style="fill: #1f77b4"/>
   </g>
   <g id="patch_149">
    <path d="M 382.755787 388.93125 
L 384.729955 388.93125 
L 384.729955 123.107205 
L 382.755787 123.107205 
z
" clip-path="url(#pd931bc4de3)" style="fill: #1f77b4"/>
   </g>
   <g id="patch_150">
    <path d="M 384.729955 388.93125 
L 386.704123 388.93125 
L 386.704123 107.030645 
L 384.729955 107.030645 
z
" clip-path="url(#pd931bc4de3)" style="fill: #1f77b4"/>
   </g>
   <g id="patch_151">
    <path d="M 386.704123 388.93125 
L 388.678291 388.93125 
L 388.678291 102.357227 
L 386.704123 102.357227 
z
" clip-path="url(#pd931bc4de3)" style="fill: #1f77b4"/>
   </g>
   <g id="patch_152">
    <path d="M 388.678291 388.93125 
L 390.652459 388.93125 
L 390.652459 102.7311 
L 388.678291 102.7311 
z
" clip-path="url(#pd931bc4de3)" style="fill: #1f77b4"/>
   </g>
   <g id="patch_153">
    <path d="M 390.652459 388.93125 
L 392.626627 388.93125 
L 392.626627 96.749125 
L 390.652459 96.749125 
z
" clip-path="url(#pd931bc4de3)" style="fill: #1f77b4"/>
   </g>
   <g id="patch_154">
    <path d="M 392.626627 388.93125 
L 394.600795 388.93125 
L 394.600795 97.122998 
L 392.626627 97.122998 
z
" clip-path="url(#pd931bc4de3)" style="fill: #1f77b4"/>
   </g>
   <g id="patch_155">
    <path d="M 394.600795 388.93125 
L 396.574963 388.93125 
L 396.574963 111.704064 
L 394.600795 111.704064 
z
" clip-path="url(#pd931bc4de3)" style="fill: #1f77b4"/>
   </g>
   <g id="patch_156">
    <path d="M 396.574963 388.93125 
L 398.549131 388.93125 
L 398.549131 123.481079 
L 396.574963 123.481079 
z
" clip-path="url(#pd931bc4de3)" style="fill: #1f77b4"/>
   </g>
   <g id="patch_157">
    <path d="M 398.549131 388.93125 
L 400.523299 388.93125 
L 400.523299 106.843709 
L 398.549131 106.843709 
z
" clip-path="url(#pd931bc4de3)" style="fill: #1f77b4"/>
   </g>
   <g id="patch_158">
    <path d="M 400.523299 388.93125 
L 402.497466 388.93125 
L 402.497466 90.019402 
L 400.523299 90.019402 
z
" clip-path="url(#pd931bc4de3)" style="fill: #1f77b4"/>
   </g>
   <g id="patch_159">
    <path d="M 402.497466 388.93125 
L 404.471634 388.93125 
L 404.471634 115.629735 
L 402.497466 115.629735 
z
" clip-path="url(#pd931bc4de3)" style="fill: #1f77b4"/>
   </g>
   <g id="patch_160">
    <path d="M 404.471634 388.93125 
L 406.445802 388.93125 
L 406.445802 105.535152 
L 404.471634 105.535152 
z
" clip-path="url(#pd931bc4de3)" style="fill: #1f77b4"/>
   </g>
   <g id="patch_161">
    <path d="M 406.445802 388.93125 
L 408.41997 388.93125 
L 408.41997 116.751356 
L 406.445802 116.751356 
z
" clip-path="url(#pd931bc4de3)" style="fill: #1f77b4"/>
   </g>
   <g id="patch_162">
    <path d="M 408.41997 388.93125 
L 410.394138 388.93125 
L 410.394138 116.190546 
L 408.41997 116.190546 
z
" clip-path="url(#pd931bc4de3)" style="fill: #1f77b4"/>
   </g>
   <g id="patch_163">
    <path d="M 410.394138 388.93125 
L 412.368306 388.93125 
L 412.368306 110.021633 
L 410.394138 110.021633 
z
" clip-path="url(#pd931bc4de3)" style="fill: #1f77b4"/>
   </g>
   <g id="patch_164">
    <path d="M 412.368306 388.93125 
L 414.342474 388.93125 
L 414.342474 104.974341 
L 412.368306 104.974341 
z
" clip-path="url(#pd931bc4de3)" style="fill: #1f77b4"/>
   </g>
   <g id="patch_165">
    <path d="M 414.342474 388.93125 
L 416.316642 388.93125 
L 416.316642 114.695052 
L 414.342474 114.695052 
z
" clip-path="url(#pd931bc4de3)" style="fill: #1f77b4"/>
   </g>
   <g id="patch_166">
    <path d="M 416.316642 388.93125 
L 418.29081 388.93125 
L 418.29081 104.974341 
L 416.316642 104.974341 
z
" clip-path="url(#pd931bc4de3)" style="fill: #1f77b4"/>
   </g>
   <g id="patch_167">
    <path d="M 418.29081 388.93125 
L 420.264978 388.93125 
L 420.264978 122.920268 
L 418.29081 122.920268 
z
" clip-path="url(#pd931bc4de3)" style="fill: #1f77b4"/>
   </g>
   <g id="patch_168">
    <path d="M 420.264978 388.93125 
L 422.239146 388.93125 
L 422.239146 110.76938 
L 420.264978 110.76938 
z
" clip-path="url(#pd931bc4de3)" style="fill: #1f77b4"/>
   </g>
   <g id="patch_169">
    <path d="M 422.239146 388.93125 
L 424.213313 388.93125 
L 424.213313 117.872976 
L 422.239146 117.872976 
z
" clip-path="url(#pd931bc4de3)" style="fill: #1f77b4"/>
   </g>
   <g id="patch_170">
    <path d="M 424.213313 388.93125 
L 426.187481 388.93125 
L 426.187481 101.60948 
L 424.213313 101.60948 
z
" clip-path="url(#pd931bc4de3)" style="fill: #1f77b4"/>
   </g>
   <g id="patch_171">
    <path d="M 426.187481 388.93125 
L 428.161649 388.93125 
L 428.161649 108.526139 
L 426.187481 108.526139 
z
" clip-path="url(#pd931bc4de3)" style="fill: #1f77b4"/>
   </g>
   <g id="patch_172">
    <path d="M 428.161649 388.93125 
L 430.135817 388.93125 
L 430.135817 114.695052 
L 428.161649 114.695052 
z
" clip-path="url(#pd931bc4de3)" style="fill: #1f77b4"/>
   </g>
   <g id="patch_173">
    <path d="M 430.135817 388.93125 
L 432.109985 388.93125 
L 432.109985 111.143254 
L 430.135817 111.143254 
z
" clip-path="url(#pd931bc4de3)" style="fill: #1f77b4"/>
   </g>
   <g id="patch_174">
    <path d="M 432.109985 388.93125 
L 434.084153 388.93125 
L 434.084153 97.309935 
L 432.109985 97.309935 
z
" clip-path="url(#pd931bc4de3)" style="fill: #1f77b4"/>
   </g>
   <g id="patch_175">
    <path d="M 434.084153 388.93125 
L 436.058321 388.93125 
L 436.058321 120.303154 
L 434.084153 120.303154 
z
" clip-path="url(#pd931bc4de3)" style="fill: #1f77b4"/>
   </g>
   <g id="patch_176">
    <path d="M 436.058321 388.93125 
L 438.032489 388.93125 
L 438.032489 91.514896 
L 436.058321 91.514896 
z
" clip-path="url(#pd931bc4de3)" style="fill: #1f77b4"/>
   </g>
   <g id="patch_177">
    <path d="M 438.032489 388.93125 
L 440.006657 388.93125 
L 440.006657 102.544164 
L 438.032489 102.544164 
z
" clip-path="url(#pd931bc4de3)" style="fill: #1f77b4"/>
   </g>
   <g id="patch_178">
    <path d="M 440.006657 388.93125 
L 441.980825 388.93125 
L 441.980825 95.440568 
L 440.006657 95.440568 
z
" clip-path="url(#pd931bc4de3)" style="fill: #1f77b4"/>
   </g>
   <g id="patch_179">
    <path d="M 441.980825 388.93125 
L 443.954993 388.93125 
L 443.954993 114.881989 
L 441.980825 114.881989 
z
" clip-path="url(#pd931bc4de3)" style="fill: #1f77b4"/>
   </g>
   <g id="patch_180">
    <path d="M 443.954993 388.93125 
L 445.92916 388.93125 
L 445.92916 110.582444 
L 443.954993 110.582444 
z
" clip-path="url(#pd931bc4de3)" style="fill: #1f77b4"/>
   </g>
   <g id="patch_181">
    <path d="M 445.92916 388.93125 
L 447.903328 388.93125 
L 447.903328 130.397738 
L 445.92916 130.397738 
z
" clip-path="url(#pd931bc4de3)" style="fill: #1f77b4"/>
   </g>
   <g id="patch_182">
    <path d="M 447.903328 388.93125 
L 449.877496 388.93125 
L 449.877496 90.767149 
L 447.903328 90.767149 
z
" clip-path="url(#pd931bc4de3)" style="fill: #1f77b4"/>
   </g>
   <g id="patch_183">
    <path d="M 449.877496 388.93125 
L 451.851664 388.93125 
L 451.851664 134.32341 
L 449.877496 134.32341 
z
" clip-path="url(#pd931bc4de3)" style="fill: #1f77b4"/>
   </g>
   <g id="patch_184">
    <path d="M 451.851664 388.93125 
L 453.825832 388.93125 
L 453.825832 117.872976 
L 451.851664 117.872976 
z
" clip-path="url(#pd931bc4de3)" style="fill: #1f77b4"/>
   </g>
   <g id="patch_185">
    <path d="M 453.825832 388.93125 
L 455.8 388.93125 
L 455.8 98.992366 
L 453.825832 98.992366 
z
" clip-path="url(#pd931bc4de3)" style="fill: #1f77b4"/>
   </g>
   <g id="patch_186">
    <path d="M 455.8 388.93125 
L 457.774168 388.93125 
L 457.774168 105.348215 
L 455.8 105.348215 
z
" clip-path="url(#pd931bc4de3)" style="fill: #1f77b4"/>
   </g>
   <g id="patch_187">
    <path d="M 457.774168 388.93125 
L 459.748336 388.93125 
L 459.748336 104.600468 
L 457.774168 104.600468 
z
" clip-path="url(#pd931bc4de3)" style="fill: #1f77b4"/>
   </g>
   <g id="patch_188">
    <path d="M 459.748336 388.93125 
L 461.722504 388.93125 
L 461.722504 93.384263 
L 459.748336 93.384263 
z
" clip-path="url(#pd931bc4de3)" style="fill: #1f77b4"/>
   </g>
   <g id="patch_189">
    <path d="M 461.722504 388.93125 
L 463.696672 388.93125 
L 463.696672 119.181534 
L 461.722504 119.181534 
z
" clip-path="url(#pd931bc4de3)" style="fill: #1f77b4"/>
   </g>
   <g id="patch_190">
    <path d="M 463.696672 388.93125 
L 465.67084 388.93125 
L 465.67084 100.861733 
L 463.696672 100.861733 
z
" clip-path="url(#pd931bc4de3)" style="fill: #1f77b4"/>
   </g>
   <g id="patch_191">
    <path d="M 465.67084 388.93125 
L 467.645007 388.93125 
L 467.645007 99.740113 
L 465.67084 99.740113 
z
" clip-path="url(#pd931bc4de3)" style="fill: #1f77b4"/>
   </g>
   <g id="patch_192">
    <path d="M 467.645007 388.93125 
L 469.619175 388.93125 
L 469.619175 125.163509 
L 467.645007 125.163509 
z
" clip-path="url(#pd931bc4de3)" style="fill: #1f77b4"/>
   </g>
   <g id="patch_193">
    <path d="M 469.619175 388.93125 
L 471.593343 388.93125 
L 471.593343 127.780624 
L 469.619175 127.780624 
z
" clip-path="url(#pd931bc4de3)" style="fill: #1f77b4"/>
   </g>
   <g id="patch_194">
    <path d="M 471.593343 388.93125 
L 473.567511 388.93125 
L 473.567511 98.992366 
L 471.593343 98.992366 
z
" clip-path="url(#pd931bc4de3)" style="fill: #1f77b4"/>
   </g>
   <g id="patch_195">
    <path d="M 473.567511 388.93125 
L 475.541679 388.93125 
L 475.541679 112.638748 
L 473.567511 112.638748 
z
" clip-path="url(#pd931bc4de3)" style="fill: #1f77b4"/>
   </g>
   <g id="patch_196">
    <path d="M 475.541679 388.93125 
L 477.515847 388.93125 
L 477.515847 96.936061 
L 475.541679 96.936061 
z
" clip-path="url(#pd931bc4de3)" style="fill: #1f77b4"/>
   </g>
   <g id="patch_197">
    <path d="M 477.515847 388.93125 
L 479.490015 388.93125 
L 479.490015 120.863964 
L 477.515847 120.863964 
z
" clip-path="url(#pd931bc4de3)" style="fill: #1f77b4"/>
   </g>
   <g id="patch_198">
    <path d="M 479.490015 388.93125 
L 481.464183 388.93125 
L 481.464183 101.796417 
L 479.490015 101.796417 
z
" clip-path="url(#pd931bc4de3)" style="fill: #1f77b4"/>
   </g>
   <g id="patch_199">
    <path d="M 481.464183 388.93125 
L 483.438351 388.93125 
L 483.438351 110.20857 
L 481.464183 110.20857 
z
" clip-path="url(#pd931bc4de3)" style="fill: #1f77b4"/>
   </g>
   <g id="patch_200">
    <path d="M 483.438351 388.93125 
L 485.412519 388.93125 
L 485.412519 103.852721 
L 483.438351 103.852721 
z
" clip-path="url(#pd931bc4de3)" style="fill: #1f77b4"/>
   </g>
   <g id="patch_201">
    <path d="M 485.412519 388.93125 
L 487.386687 388.93125 
L 487.386687 118.433787 
L 485.412519 118.433787 
z
" clip-path="url(#pd931bc4de3)" style="fill: #1f77b4"/>
   </g>
   <g id="patch_202">
    <path d="M 487.386687 388.93125 
L 489.360854 388.93125 
L 489.360854 104.413531 
L 487.386687 104.413531 
z
" clip-path="url(#pd931bc4de3)" style="fill: #1f77b4"/>
   </g>
   <g id="patch_203">
    <path d="M 489.360854 388.93125 
L 491.335022 388.93125 
L 491.335022 109.08695 
L 489.360854 109.08695 
z
" clip-path="url(#pd931bc4de3)" style="fill: #1f77b4"/>
   </g>
   <g id="patch_204">
    <path d="M 491.335022 388.93125 
L 493.30919 388.93125 
L 493.30919 96.001378 
L 491.335022 96.001378 
z
" clip-path="url(#pd931bc4de3)" style="fill: #1f77b4"/>
   </g>
   <g id="patch_205">
    <path d="M 493.30919 388.93125 
L 495.283358 388.93125 
L 495.283358 103.852721 
L 493.30919 103.852721 
z
" clip-path="url(#pd931bc4de3)" style="fill: #1f77b4"/>
   </g>
   <g id="patch_206">
    <path d="M 495.283358 388.93125 
L 497.257526 388.93125 
L 497.257526 109.08695 
L 495.283358 109.08695 
z
" clip-path="url(#pd931bc4de3)" style="fill: #1f77b4"/>
   </g>
   <g id="patch_207">
    <path d="M 497.257526 388.93125 
L 499.231694 388.93125 
L 499.231694 104.787405 
L 497.257526 104.787405 
z
" clip-path="url(#pd931bc4de3)" style="fill: #1f77b4"/>
   </g>
   <g id="patch_208">
    <path d="M 499.231694 388.93125 
L 501.205862 388.93125 
L 501.205862 107.217582 
L 499.231694 107.217582 
z
" clip-path="url(#pd931bc4de3)" style="fill: #1f77b4"/>
   </g>
   <g id="patch_209">
    <path d="M 501.205862 388.93125 
L 503.18003 388.93125 
L 503.18003 115.255862 
L 501.205862 115.255862 
z
" clip-path="url(#pd931bc4de3)" style="fill: #1f77b4"/>
   </g>
   <g id="patch_210">
    <path d="M 503.18003 388.93125 
L 505.154198 388.93125 
L 505.154198 105.722088 
L 503.18003 105.722088 
z
" clip-path="url(#pd931bc4de3)" style="fill: #1f77b4"/>
   </g>
   <g id="patch_211">
    <path d="M 505.154198 388.93125 
L 507.128366 388.93125 
L 507.128366 113.199558 
L 505.154198 113.199558 
z
" clip-path="url(#pd931bc4de3)" style="fill: #1f77b4"/>
   </g>
   <g id="patch_212">
    <path d="M 507.128366 388.93125 
L 509.102534 388.93125 
L 509.102534 116.003609 
L 507.128366 116.003609 
z
" clip-path="url(#pd931bc4de3)" style="fill: #1f77b4"/>
   </g>
   <g id="patch_213">
    <path d="M 509.102534 388.93125 
L 511.076701 388.93125 
L 511.076701 98.244619 
L 509.102534 98.244619 
z
" clip-path="url(#pd931bc4de3)" style="fill: #1f77b4"/>
   </g>
   <g id="patch_214">
    <path d="M 511.076701 388.93125 
L 513.050869 388.93125 
L 513.050869 96.188314 
L 511.076701 96.188314 
z
" clip-path="url(#pd931bc4de3)" style="fill: #1f77b4"/>
   </g>
   <g id="patch_215">
    <path d="M 513.050869 388.93125 
L 515.025037 388.93125 
L 515.025037 111.704064 
L 513.050869 111.704064 
z
" clip-path="url(#pd931bc4de3)" style="fill: #1f77b4"/>
   </g>
   <g id="patch_216">
    <path d="M 515.025037 388.93125 
L 516.999205 388.93125 
L 516.999205 120.116217 
L 515.025037 120.116217 
z
" clip-path="url(#pd931bc4de3)" style="fill: #1f77b4"/>
   </g>
   <g id="patch_217">
    <path d="M 516.999205 388.93125 
L 518.973373 388.93125 
L 518.973373 115.068925 
L 516.999205 115.068925 
z
" clip-path="url(#pd931bc4de3)" style="fill: #1f77b4"/>
   </g>
   <g id="patch_218">
    <path d="M 518.973373 388.93125 
L 520.947541 388.93125 
L 520.947541 103.852721 
L 518.973373 103.852721 
z
" clip-path="url(#pd931bc4de3)" style="fill: #1f77b4"/>
   </g>
   <g id="patch_219">
    <path d="M 520.947541 388.93125 
L 522.921709 388.93125 
L 522.921709 117.125229 
L 520.947541 117.125229 
z
" clip-path="url(#pd931bc4de3)" style="fill: #1f77b4"/>
   </g>
   <g id="patch_220">
    <path d="M 522.921709 388.93125 
L 524.895877 388.93125 
L 524.895877 122.733332 
L 522.921709 122.733332 
z
" clip-path="url(#pd931bc4de3)" style="fill: #1f77b4"/>
   </g>
   <g id="patch_221">
    <path d="M 524.895877 388.93125 
L 526.870045 388.93125 
L 526.870045 107.217582 
L 524.895877 107.217582 
z
" clip-path="url(#pd931bc4de3)" style="fill: #1f77b4"/>
   </g>
   <g id="patch_222">
    <path d="M 526.870045 388.93125 
L 528.844213 388.93125 
L 528.844213 105.348215 
L 526.870045 105.348215 
z
" clip-path="url(#pd931bc4de3)" style="fill: #1f77b4"/>
   </g>
   <g id="patch_223">
    <path d="M 528.844213 388.93125 
L 530.818381 388.93125 
L 530.818381 107.030645 
L 528.844213 107.030645 
z
" clip-path="url(#pd931bc4de3)" style="fill: #1f77b4"/>
   </g>
   <g id="patch_224">
    <path d="M 530.818381 388.93125 
L 532.792548 388.93125 
L 532.792548 94.13201 
L 530.818381 94.13201 
z
" clip-path="url(#pd931bc4de3)" style="fill: #1f77b4"/>
   </g>
   <g id="patch_225">
    <path d="M 532.792548 388.93125 
L 534.766716 388.93125 
L 534.766716 105.348215 
L 532.792548 105.348215 
z
" clip-path="url(#pd931bc4de3)" style="fill: #1f77b4"/>
   </g>
   <g id="patch_226">
    <path d="M 534.766716 388.93125 
L 536.740884 388.93125 
L 536.740884 116.564419 
L 534.766716 116.564419 
z
" clip-path="url(#pd931bc4de3)" style="fill: #1f77b4"/>
   </g>
   <g id="patch_227">
    <path d="M 536.740884 388.93125 
L 538.715052 388.93125 
L 538.715052 94.318947 
L 536.740884 94.318947 
z
" clip-path="url(#pd931bc4de3)" style="fill: #1f77b4"/>
   </g>
   <g id="patch_228">
    <path d="M 538.715052 388.93125 
L 540.68922 388.93125 
L 540.68922 121.611711 
L 538.715052 121.611711 
z
" clip-path="url(#pd931bc4de3)" style="fill: #1f77b4"/>
   </g>
   <g id="patch_229">
    <path d="M 540.68922 388.93125 
L 542.663388 388.93125 
L 542.663388 110.20857 
L 540.68922 110.20857 
z
" clip-path="url(#pd931bc4de3)" style="fill: #1f77b4"/>
   </g>
   <g id="patch_230">
    <path d="M 542.663388 388.93125 
L 544.637556 388.93125 
L 544.637556 123.294142 
L 542.663388 123.294142 
z
" clip-path="url(#pd931bc4de3)" style="fill: #1f77b4"/>
   </g>
   <g id="patch_231">
    <path d="M 544.637556 388.93125 
L 546.611724 388.93125 
L 546.611724 111.891001 
L 544.637556 111.891001 
z
" clip-path="url(#pd931bc4de3)" style="fill: #1f77b4"/>
   </g>
   <g id="patch_232">
    <path d="M 546.611724 388.93125 
L 548.585892 388.93125 
L 548.585892 103.478847 
L 546.611724 103.478847 
z
" clip-path="url(#pd931bc4de3)" style="fill: #1f77b4"/>
   </g>
   <g id="patch_233">
    <path d="M 548.585892 388.93125 
L 550.56006 388.93125 
L 550.56006 117.312166 
L 548.585892 117.312166 
z
" clip-path="url(#pd931bc4de3)" style="fill: #1f77b4"/>
   </g>
   <g id="patch_234">
    <path d="M 550.56006 388.93125 
L 552.534228 388.93125 
L 552.534228 93.758137 
L 550.56006 93.758137 
z
" clip-path="url(#pd931bc4de3)" style="fill: #1f77b4"/>
   </g>
   <g id="patch_235">
    <path d="M 552.534228 388.93125 
L 554.508395 388.93125 
L 554.508395 108.900013 
L 552.534228 108.900013 
z
" clip-path="url(#pd931bc4de3)" style="fill: #1f77b4"/>
   </g>
   <g id="patch_236">
    <path d="M 554.508395 388.93125 
L 556.482563 388.93125 
L 556.482563 88.523908 
L 554.508395 88.523908 
z
" clip-path="url(#pd931bc4de3)" style="fill: #1f77b4"/>
   </g>
   <g id="patch_237">
    <path d="M 556.482563 388.93125 
L 558.456731 388.93125 
L 558.456731 107.965329 
L 556.482563 107.965329 
z
" clip-path="url(#pd931bc4de3)" style="fill: #1f77b4"/>
   </g>
   <g id="patch_238">
    <path d="M 558.456731 388.93125 
L 560.430899 388.93125 
L 560.430899 106.095962 
L 558.456731 106.095962 
z
" clip-path="url(#pd931bc4de3)" style="fill: #1f77b4"/>
   </g>
   <g id="patch_239">
    <path d="M 560.430899 388.93125 
L 562.405067 388.93125 
L 562.405067 101.983353 
L 560.430899 101.983353 
z
" clip-path="url(#pd931bc4de3)" style="fill: #1f77b4"/>
   </g>
   <g id="patch_240">
    <path d="M 562.405067 388.93125 
L 564.379235 388.93125 
L 564.379235 106.282898 
L 562.405067 106.282898 
z
" clip-path="url(#pd931bc4de3)" style="fill: #1f77b4"/>
   </g>
   <g id="patch_241">
    <path d="M 564.379235 388.93125 
L 566.353403 388.93125 
L 566.353403 126.472066 
L 564.379235 126.472066 
z
" clip-path="url(#pd931bc4de3)" style="fill: #1f77b4"/>
   </g>
   <g id="patch_242">
    <path d="M 566.353403 388.93125 
L 568.327571 388.93125 
L 568.327571 110.395507 
L 566.353403 110.395507 
z
" clip-path="url(#pd931bc4de3)" style="fill: #1f77b4"/>
   </g>
   <g id="patch_243">
    <path d="M 568.327571 388.93125 
L 570.301739 388.93125 
L 570.301739 114.881989 
L 568.327571 114.881989 
z
" clip-path="url(#pd931bc4de3)" style="fill: #1f77b4"/>
   </g>
   <g id="patch_244">
    <path d="M 570.301739 388.93125 
L 572.275907 388.93125 
L 572.275907 132.454042 
L 570.301739 132.454042 
z
" clip-path="url(#pd931bc4de3)" style="fill: #1f77b4"/>
   </g>
   <g id="patch_245">
    <path d="M 572.275907 388.93125 
L 574.250075 388.93125 
L 574.250075 167.972023 
L 572.275907 167.972023 
z
" clip-path="url(#pd931bc4de3)" style="fill: #1f77b4"/>
   </g>
   <g id="patch_246">
    <path d="M 574.250075 388.93125 
L 576.224242 388.93125 
L 576.224242 61.605018 
L 574.250075 61.605018 
z
" clip-path="url(#pd931bc4de3)" style="fill: #1f77b4"/>
   </g>
   <g id="patch_247">
    <path d="M 576.224242 388.93125 
L 578.19841 388.93125 
L 578.19841 45.902331 
L 576.224242 45.902331 
z
" clip-path="url(#pd931bc4de3)" style="fill: #1f77b4"/>
   </g>
   <g id="patch_248">
    <path d="M 578.19841 388.93125 
L 580.172578 388.93125 
L 580.172578 31.134329 
L 578.19841 31.134329 
z
" clip-path="url(#pd931bc4de3)" style="fill: #1f77b4"/>
   </g>
   <g id="patch_249">
    <path d="M 580.172578 388.93125 
L 582.146746 388.93125 
L 582.146746 155.634198 
L 580.172578 155.634198 
z
" clip-path="url(#pd931bc4de3)" style="fill: #1f77b4"/>
   </g>
   <g id="patch_250">
    <path d="M 582.146746 388.93125 
L 584.120914 388.93125 
L 584.120914 163.298604 
L 582.146746 163.298604 
z
" clip-path="url(#pd931bc4de3)" style="fill: #1f77b4"/>
   </g>
   <g id="patch_251">
    <path d="M 584.120914 388.93125 
L 586.095082 388.93125 
L 586.095082 119.742344 
L 584.120914 119.742344 
z
" clip-path="url(#pd931bc4de3)" style="fill: #1f77b4"/>
   </g>
   <g id="patch_252">
    <path d="M 586.095082 388.93125 
L 588.06925 388.93125 
L 588.06925 126.098193 
L 586.095082 126.098193 
z
" clip-path="url(#pd931bc4de3)" style="fill: #1f77b4"/>
   </g>
   <g id="patch_253">
    <path d="M 588.06925 388.93125 
L 590.043418 388.93125 
L 590.043418 104.039658 
L 588.06925 104.039658 
z
" clip-path="url(#pd931bc4de3)" style="fill: #1f77b4"/>
   </g>
   <g id="patch_254">
    <path d="M 590.043418 388.93125 
L 592.017586 388.93125 
L 592.017586 99.740113 
L 590.043418 99.740113 
z
" clip-path="url(#pd931bc4de3)" style="fill: #1f77b4"/>
   </g>
   <g id="patch_255">
    <path d="M 592.017586 388.93125 
L 593.991754 388.93125 
L 593.991754 94.879757 
L 592.017586 94.879757 
z
" clip-path="url(#pd931bc4de3)" style="fill: #1f77b4"/>
   </g>
   <g id="patch_256">
    <path d="M 593.991754 388.93125 
L 595.965922 388.93125 
L 595.965922 78.803198 
L 593.991754 78.803198 
z
" clip-path="url(#pd931bc4de3)" style="fill: #1f77b4"/>
   </g>
   <g id="patch_257">
    <path d="M 595.965922 388.93125 
L 597.940089 388.93125 
L 597.940089 112.638748 
L 595.965922 112.638748 
z
" clip-path="url(#pd931bc4de3)" style="fill: #1f77b4"/>
   </g>
   <g id="patch_258">
    <path d="M 597.940089 388.93125 
L 599.914257 388.93125 
L 599.914257 108.713076 
L 597.940089 108.713076 
z
" clip-path="url(#pd931bc4de3)" style="fill: #1f77b4"/>
   </g>
   <g id="patch_259">
    <path d="M 599.914257 388.93125 
L 601.888425 388.93125 
L 601.888425 90.767149 
L 599.914257 90.767149 
z
" clip-path="url(#pd931bc4de3)" style="fill: #1f77b4"/>
   </g>
   <g id="patch_260">
    <path d="M 601.888425 388.93125 
L 603.862593 388.93125 
L 603.862593 108.526139 
L 601.888425 108.526139 
z
" clip-path="url(#pd931bc4de3)" style="fill: #1f77b4"/>
   </g>
   <g id="patch_261">
    <path d="M 603.862593 388.93125 
L 605.836761 388.93125 
L 605.836761 110.395507 
L 603.862593 110.395507 
z
" clip-path="url(#pd931bc4de3)" style="fill: #1f77b4"/>
   </g>
   <g id="patch_262">
    <path d="M 605.836761 388.93125 
L 607.810929 388.93125 
L 607.810929 105.909025 
L 605.836761 105.909025 
z
" clip-path="url(#pd931bc4de3)" style="fill: #1f77b4"/>
   </g>
   <g id="patch_263">
    <path d="M 607.810929 388.93125 
L 609.785097 388.93125 
L 609.785097 113.573431 
L 607.810929 113.573431 
z
" clip-path="url(#pd931bc4de3)" style="fill: #1f77b4"/>
   </g>
   <g id="patch_264">
    <path d="M 609.785097 388.93125 
L 611.759265 388.93125 
L 611.759265 112.077937 
L 609.785097 112.077937 
z
" clip-path="url(#pd931bc4de3)" style="fill: #1f77b4"/>
   </g>
   <g id="patch_265">
    <path d="M 611.759265 388.93125 
L 613.733433 388.93125 
L 613.733433 111.143254 
L 611.759265 111.143254 
z
" clip-path="url(#pd931bc4de3)" style="fill: #1f77b4"/>
   </g>
   <g id="patch_266">
    <path d="M 613.733433 388.93125 
L 615.707601 388.93125 
L 615.707601 102.17029 
L 613.733433 102.17029 
z
" clip-path="url(#pd931bc4de3)" style="fill: #1f77b4"/>
   </g>
   <g id="patch_267">
    <path d="M 615.707601 388.93125 
L 617.681769 388.93125 
L 617.681769 107.030645 
L 615.707601 107.030645 
z
" clip-path="url(#pd931bc4de3)" style="fill: #1f77b4"/>
   </g>
   <g id="patch_268">
    <path d="M 617.681769 388.93125 
L 619.655936 388.93125 
L 619.655936 105.348215 
L 617.681769 105.348215 
z
" clip-path="url(#pd931bc4de3)" style="fill: #1f77b4"/>
   </g>
   <g id="patch_269">
    <path d="M 619.655936 388.93125 
L 621.630104 388.93125 
L 621.630104 98.244619 
L 619.655936 98.244619 
z
" clip-path="url(#pd931bc4de3)" style="fill: #1f77b4"/>
   </g>
   <g id="patch_270">
    <path d="M 621.630104 388.93125 
L 623.604272 388.93125 
L 623.604272 109.273886 
L 621.630104 109.273886 
z
" clip-path="url(#pd931bc4de3)" style="fill: #1f77b4"/>
   </g>
   <g id="patch_271">
    <path d="M 623.604272 388.93125 
L 625.57844 388.93125 
L 625.57844 112.638748 
L 623.604272 112.638748 
z
" clip-path="url(#pd931bc4de3)" style="fill: #1f77b4"/>
   </g>
   <g id="patch_272">
    <path d="M 625.57844 388.93125 
L 627.552608 388.93125 
L 627.552608 122.733332 
L 625.57844 122.733332 
z
" clip-path="url(#pd931bc4de3)" style="fill: #1f77b4"/>
   </g>
   <g id="patch_273">
    <path d="M 627.552608 388.93125 
L 629.526776 388.93125 
L 629.526776 107.965329 
L 627.552608 107.965329 
z
" clip-path="url(#pd931bc4de3)" style="fill: #1f77b4"/>
   </g>
   <g id="patch_274">
    <path d="M 629.526776 388.93125 
L 631.500944 388.93125 
L 631.500944 110.582444 
L 629.526776 110.582444 
z
" clip-path="url(#pd931bc4de3)" style="fill: #1f77b4"/>
   </g>
   <g id="patch_275">
    <path d="M 631.500944 388.93125 
L 633.475112 388.93125 
L 633.475112 109.08695 
L 631.500944 109.08695 
z
" clip-path="url(#pd931bc4de3)" style="fill: #1f77b4"/>
   </g>
   <g id="patch_276">
    <path d="M 633.475112 388.93125 
L 635.44928 388.93125 
L 635.44928 91.514896 
L 633.475112 91.514896 
z
" clip-path="url(#pd931bc4de3)" style="fill: #1f77b4"/>
   </g>
   <g id="patch_277">
    <path d="M 635.44928 388.93125 
L 637.423448 388.93125 
L 637.423448 116.938293 
L 635.44928 116.938293 
z
" clip-path="url(#pd931bc4de3)" style="fill: #1f77b4"/>
   </g>
   <g id="patch_278">
    <path d="M 637.423448 388.93125 
L 639.397615 388.93125 
L 639.397615 95.066694 
L 637.423448 95.066694 
z
" clip-path="url(#pd931bc4de3)" style="fill: #1f77b4"/>
   </g>
   <g id="patch_279">
    <path d="M 639.397615 388.93125 
L 641.371783 388.93125 
L 641.371783 108.152266 
L 639.397615 108.152266 
z
" clip-path="url(#pd931bc4de3)" style="fill: #1f77b4"/>
   </g>
   <g id="patch_280">
    <path d="M 641.371783 388.93125 
L 643.345951 388.93125 
L 643.345951 107.778392 
L 641.371783 107.778392 
z
" clip-path="url(#pd931bc4de3)" style="fill: #1f77b4"/>
   </g>
   <g id="patch_281">
    <path d="M 643.345951 388.93125 
L 645.320119 388.93125 
L 645.320119 100.300923 
L 643.345951 100.300923 
z
" clip-path="url(#pd931bc4de3)" style="fill: #1f77b4"/>
   </g>
   <g id="patch_282">
    <path d="M 645.320119 388.93125 
L 647.294287 388.93125 
L 647.294287 89.271655 
L 645.320119 89.271655 
z
" clip-path="url(#pd931bc4de3)" style="fill: #1f77b4"/>
   </g>
   <g id="patch_283">
    <path d="M 647.294287 388.93125 
L 649.268455 388.93125 
L 649.268455 120.116217 
L 647.294287 120.116217 
z
" clip-path="url(#pd931bc4de3)" style="fill: #1f77b4"/>
   </g>
   <g id="patch_284">
    <path d="M 649.268455 388.93125 
L 651.242623 388.93125 
L 651.242623 97.122998 
L 649.268455 97.122998 
z
" clip-path="url(#pd931bc4de3)" style="fill: #1f77b4"/>
   </g>
   <g id="patch_285">
    <path d="M 651.242623 388.93125 
L 653.216791 388.93125 
L 653.216791 96.001378 
L 651.242623 96.001378 
z
" clip-path="url(#pd931bc4de3)" style="fill: #1f77b4"/>
   </g>
   <g id="patch_286">
    <path d="M 653.216791 388.93125 
L 655.190959 388.93125 
L 655.190959 94.879757 
L 653.216791 94.879757 
z
" clip-path="url(#pd931bc4de3)" style="fill: #1f77b4"/>
   </g>
   <g id="patch_287">
    <path d="M 655.190959 388.93125 
L 657.165127 388.93125 
L 657.165127 102.17029 
L 655.190959 102.17029 
z
" clip-path="url(#pd931bc4de3)" style="fill: #1f77b4"/>
   </g>
   <g id="patch_288">
    <path d="M 657.165127 388.93125 
L 659.139295 388.93125 
L 659.139295 110.956317 
L 657.165127 110.956317 
z
" clip-path="url(#pd931bc4de3)" style="fill: #1f77b4"/>
   </g>
   <g id="patch_289">
    <path d="M 659.139295 388.93125 
L 661.113462 388.93125 
L 661.113462 94.318947 
L 659.139295 94.318947 
z
" clip-path="url(#pd931bc4de3)" style="fill: #1f77b4"/>
   </g>
   <g id="patch_290">
    <path d="M 661.113462 388.93125 
L 663.08763 388.93125 
L 663.08763 104.413531 
L 661.113462 104.413531 
z
" clip-path="url(#pd931bc4de3)" style="fill: #1f77b4"/>
   </g>
   <g id="patch_291">
    <path d="M 663.08763 388.93125 
L 665.061798 388.93125 
L 665.061798 106.282898 
L 663.08763 106.282898 
z
" clip-path="url(#pd931bc4de3)" style="fill: #1f77b4"/>
   </g>
   <g id="patch_292">
    <path d="M 665.061798 388.93125 
L 667.035966 388.93125 
L 667.035966 116.190546 
L 665.061798 116.190546 
z
" clip-path="url(#pd931bc4de3)" style="fill: #1f77b4"/>
   </g>
   <g id="patch_293">
    <path d="M 667.035966 388.93125 
L 669.010134 388.93125 
L 669.010134 109.834697 
L 667.035966 109.834697 
z
" clip-path="url(#pd931bc4de3)" style="fill: #1f77b4"/>
   </g>
   <g id="patch_294">
    <path d="M 669.010134 388.93125 
L 670.984302 388.93125 
L 670.984302 107.030645 
L 669.010134 107.030645 
z
" clip-path="url(#pd931bc4de3)" style="fill: #1f77b4"/>
   </g>
   <g id="patch_295">
    <path d="M 670.984302 388.93125 
L 672.95847 388.93125 
L 672.95847 106.282898 
L 670.984302 106.282898 
z
" clip-path="url(#pd931bc4de3)" style="fill: #1f77b4"/>
   </g>
   <g id="patch_296">
    <path d="M 672.95847 388.93125 
L 674.932638 388.93125 
L 674.932638 102.7311 
L 672.95847 102.7311 
z
" clip-path="url(#pd931bc4de3)" style="fill: #1f77b4"/>
   </g>
   <g id="patch_297">
    <path d="M 674.932638 388.93125 
L 676.906806 388.93125 
L 676.906806 105.161278 
L 674.932638 105.161278 
z
" clip-path="url(#pd931bc4de3)" style="fill: #1f77b4"/>
   </g>
   <g id="patch_298">
    <path d="M 676.906806 388.93125 
L 678.880974 388.93125 
L 678.880974 112.264874 
L 676.906806 112.264874 
z
" clip-path="url(#pd931bc4de3)" style="fill: #1f77b4"/>
   </g>
   <g id="patch_299">
    <path d="M 678.880974 388.93125 
L 680.855142 388.93125 
L 680.855142 113.573431 
L 678.880974 113.573431 
z
" clip-path="url(#pd931bc4de3)" style="fill: #1f77b4"/>
   </g>
   <g id="patch_300">
    <path d="M 680.855142 388.93125 
L 682.829309 388.93125 
L 682.829309 115.816672 
L 680.855142 115.816672 
z
" clip-path="url(#pd931bc4de3)" style="fill: #1f77b4"/>
   </g>
   <g id="patch_301">
    <path d="M 682.829309 388.93125 
L 684.803477 388.93125 
L 684.803477 100.861733 
L 682.829309 100.861733 
z
" clip-path="url(#pd931bc4de3)" style="fill: #1f77b4"/>
   </g>
   <g id="patch_302">
    <path d="M 684.803477 388.93125 
L 686.777645 388.93125 
L 686.777645 85.53292 
L 684.803477 85.53292 
z
" clip-path="url(#pd931bc4de3)" style="fill: #1f77b4"/>
   </g>
   <g id="patch_303">
    <path d="M 686.777645 388.93125 
L 688.751813 388.93125 
L 688.751813 129.836928 
L 686.777645 129.836928 
z
" clip-path="url(#pd931bc4de3)" style="fill: #1f77b4"/>
   </g>
   <g id="patch_304">
    <path d="M 688.751813 388.93125 
L 690.725981 388.93125 
L 690.725981 104.039658 
L 688.751813 104.039658 
z
" clip-path="url(#pd931bc4de3)" style="fill: #1f77b4"/>
   </g>
   <g id="patch_305">
    <path d="M 690.725981 388.93125 
L 692.700149 388.93125 
L 692.700149 112.264874 
L 690.725981 112.264874 
z
" clip-path="url(#pd931bc4de3)" style="fill: #1f77b4"/>
   </g>
   <g id="patch_306">
    <path d="M 692.700149 388.93125 
L 694.674317 388.93125 
L 694.674317 102.544164 
L 692.700149 102.544164 
z
" clip-path="url(#pd931bc4de3)" style="fill: #1f77b4"/>
   </g>
   <g id="patch_307">
    <path d="M 694.674317 388.93125 
L 696.648485 388.93125 
L 696.648485 105.348215 
L 694.674317 105.348215 
z
" clip-path="url(#pd931bc4de3)" style="fill: #1f77b4"/>
   </g>
   <g id="patch_308">
    <path d="M 696.648485 388.93125 
L 698.622653 388.93125 
L 698.622653 124.976573 
L 696.648485 124.976573 
z
" clip-path="url(#pd931bc4de3)" style="fill: #1f77b4"/>
   </g>
   <g id="patch_309">
    <path d="M 698.622653 388.93125 
L 700.596821 388.93125 
L 700.596821 114.695052 
L 698.622653 114.695052 
z
" clip-path="url(#pd931bc4de3)" style="fill: #1f77b4"/>
   </g>
   <g id="patch_310">
    <path d="M 700.596821 388.93125 
L 702.570989 388.93125 
L 702.570989 100.300923 
L 700.596821 100.300923 
z
" clip-path="url(#pd931bc4de3)" style="fill: #1f77b4"/>
   </g>
   <g id="patch_311">
    <path d="M 702.570989 388.93125 
L 704.545156 388.93125 
L 704.545156 93.384263 
L 702.570989 93.384263 
z
" clip-path="url(#pd931bc4de3)" style="fill: #1f77b4"/>
   </g>
   <g id="patch_312">
    <path d="M 704.545156 388.93125 
L 706.519324 388.93125 
L 706.519324 127.593687 
L 704.545156 127.593687 
z
" clip-path="url(#pd931bc4de3)" style="fill: #1f77b4"/>
   </g>
   <g id="patch_313">
    <path d="M 706.519324 388.93125 
L 708.493492 388.93125 
L 708.493492 77.49464 
L 706.519324 77.49464 
z
" clip-path="url(#pd931bc4de3)" style="fill: #1f77b4"/>
   </g>
   <g id="patch_314">
    <path d="M 708.493492 388.93125 
L 710.46766 388.93125 
L 710.46766 107.778392 
L 708.493492 107.778392 
z
" clip-path="url(#pd931bc4de3)" style="fill: #1f77b4"/>
   </g>
   <g id="patch_315">
    <path d="M 710.46766 388.93125 
L 712.441828 388.93125 
L 712.441828 104.600468 
L 710.46766 104.600468 
z
" clip-path="url(#pd931bc4de3)" style="fill: #1f77b4"/>
   </g>
   <g id="patch_316">
    <path d="M 712.441828 388.93125 
L 714.415996 388.93125 
L 714.415996 114.508115 
L 712.441828 114.508115 
z
" clip-path="url(#pd931bc4de3)" style="fill: #1f77b4"/>
   </g>
   <g id="patch_317">
    <path d="M 714.415996 388.93125 
L 716.390164 388.93125 
L 716.390164 96.562188 
L 714.415996 96.562188 
z
" clip-path="url(#pd931bc4de3)" style="fill: #1f77b4"/>
   </g>
   <g id="patch_318">
    <path d="M 716.390164 388.93125 
L 718.364332 388.93125 
L 718.364332 96.001378 
L 716.390164 96.001378 
z
" clip-path="url(#pd931bc4de3)" style="fill: #1f77b4"/>
   </g>
   <g id="patch_319">
    <path d="M 718.364332 388.93125 
L 720.3385 388.93125 
L 720.3385 119.36847 
L 718.364332 119.36847 
z
" clip-path="url(#pd931bc4de3)" style="fill: #1f77b4"/>
   </g>
   <g id="patch_320">
    <path d="M 720.3385 388.93125 
L 722.312668 388.93125 
L 722.312668 113.947305 
L 720.3385 113.947305 
z
" clip-path="url(#pd931bc4de3)" style="fill: #1f77b4"/>
   </g>
   <g id="patch_321">
    <path d="M 722.312668 388.93125 
L 724.286836 388.93125 
L 724.286836 97.683808 
L 722.312668 97.683808 
z
" clip-path="url(#pd931bc4de3)" style="fill: #1f77b4"/>
   </g>
   <g id="patch_322">
    <path d="M 724.286836 388.93125 
L 726.261003 388.93125 
L 726.261003 106.282898 
L 724.286836 106.282898 
z
" clip-path="url(#pd931bc4de3)" style="fill: #1f77b4"/>
   </g>
   <g id="patch_323">
    <path d="M 726.261003 388.93125 
L 728.235171 388.93125 
L 728.235171 118.994597 
L 726.261003 118.994597 
z
" clip-path="url(#pd931bc4de3)" style="fill: #1f77b4"/>
   </g>
   <g id="patch_324">
    <path d="M 728.235171 388.93125 
L 730.209339 388.93125 
L 730.209339 156.381945 
L 728.235171 156.381945 
z
" clip-path="url(#pd931bc4de3)" style="fill: #1f77b4"/>
   </g>
   <g id="patch_325">
    <path d="M 730.209339 388.93125 
L 732.183507 388.93125 
L 732.183507 236.764743 
L 730.209339 236.764743 
z
" clip-path="url(#pd931bc4de3)" style="fill: #1f77b4"/>
   </g>
   <g id="patch_326">
    <path d="M 732.183507 388.93125 
L 734.157675 388.93125 
L 734.157675 345.9358 
L 732.183507 345.9358 
z
" clip-path="url(#pd931bc4de3)" style="fill: #1f77b4"/>
   </g>
   <g id="patch_327">
    <path d="M 734.157675 388.93125 
L 736.131843 388.93125 
L 736.131843 388.744313 
L 734.157675 388.744313 
z
" clip-path="url(#pd931bc4de3)" style="fill: #1f77b4"/>
   </g>
   <g id="patch_328">
    <path d="M 736.131843 388.93125 
L 738.106011 388.93125 
L 738.106011 388.93125 
L 736.131843 388.93125 
z
" clip-path="url(#pd931bc4de3)" style="fill: #1f77b4"/>
   </g>
   <g id="patch_329">
    <path d="M 738.106011 388.93125 
L 740.080179 388.93125 
L 740.080179 388.93125 
L 738.106011 388.93125 
z
" clip-path="url(#pd931bc4de3)" style="fill: #1f77b4"/>
   </g>
   <g id="patch_330">
    <path d="M 740.080179 388.93125 
L 742.054347 388.93125 
L 742.054347 388.744313 
L 740.080179 388.744313 
z
" clip-path="url(#pd931bc4de3)" style="fill: #1f77b4"/>
   </g>
   <g id="patch_331">
    <path d="M 742.054347 388.93125 
L 744.028515 388.93125 
L 744.028515 388.744313 
L 742.054347 388.744313 
z
" clip-path="url(#pd931bc4de3)" style="fill: #1f77b4"/>
   </g>
   <g id="patch_332">
    <path d="M 744.028515 388.93125 
L 746.002683 388.93125 
L 746.002683 388.557377 
L 744.028515 388.557377 
z
" clip-path="url(#pd931bc4de3)" style="fill: #1f77b4"/>
   </g>
   <g id="patch_333">
    <path d="M 746.002683 388.93125 
L 747.97685 388.93125 
L 747.97685 388.93125 
L 746.002683 388.93125 
z
" clip-path="url(#pd931bc4de3)" style="fill: #1f77b4"/>
   </g>
   <g id="patch_334">
    <path d="M 747.97685 388.93125 
L 749.951018 388.93125 
L 749.951018 388.744313 
L 747.97685 388.744313 
z
" clip-path="url(#pd931bc4de3)" style="fill: #1f77b4"/>
   </g>
   <g id="patch_335">
    <path d="M 749.951018 388.93125 
L 751.925186 388.93125 
L 751.925186 388.744313 
L 749.951018 388.744313 
z
" clip-path="url(#pd931bc4de3)" style="fill: #1f77b4"/>
   </g>
   <g id="patch_336">
    <path d="M 751.925186 388.93125 
L 753.899354 388.93125 
L 753.899354 388.37044 
L 751.925186 388.37044 
z
" clip-path="url(#pd931bc4de3)" style="fill: #1f77b4"/>
   </g>
   <g id="patch_337">
    <path d="M 753.899354 388.93125 
L 755.873522 388.93125 
L 755.873522 388.744313 
L 753.899354 388.744313 
z
" clip-path="url(#pd931bc4de3)" style="fill: #1f77b4"/>
   </g>
   <g id="patch_338">
    <path d="M 755.873522 388.93125 
L 757.84769 388.93125 
L 757.84769 388.93125 
L 755.873522 388.93125 
z
" clip-path="url(#pd931bc4de3)" style="fill: #1f77b4"/>
   </g>
   <g id="patch_339">
    <path d="M 757.84769 388.93125 
L 759.821858 388.93125 
L 759.821858 388.183503 
L 757.84769 388.183503 
z
" clip-path="url(#pd931bc4de3)" style="fill: #1f77b4"/>
   </g>
   <g id="patch_340">
    <path d="M 759.821858 388.93125 
L 761.796026 388.93125 
L 761.796026 388.183503 
L 759.821858 388.183503 
z
" clip-path="url(#pd931bc4de3)" style="fill: #1f77b4"/>
   </g>
   <g id="patch_341">
    <path d="M 761.796026 388.93125 
L 763.770194 388.93125 
L 763.770194 388.557377 
L 761.796026 388.557377 
z
" clip-path="url(#pd931bc4de3)" style="fill: #1f77b4"/>
   </g>
   <g id="patch_342">
    <path d="M 763.770194 388.93125 
L 765.744362 388.93125 
L 765.744362 388.93125 
L 763.770194 388.93125 
z
" clip-path="url(#pd931bc4de3)" style="fill: #1f77b4"/>
   </g>
   <g id="patch_343">
    <path d="M 765.744362 388.93125 
L 767.71853 388.93125 
L 767.71853 388.93125 
L 765.744362 388.93125 
z
" clip-path="url(#pd931bc4de3)" style="fill: #1f77b4"/>
   </g>
   <g id="patch_344">
    <path d="M 767.71853 388.93125 
L 769.692697 388.93125 
L 769.692697 388.37044 
L 767.71853 388.37044 
z
" clip-path="url(#pd931bc4de3)" style="fill: #1f77b4"/>
   </g>
   <g id="patch_345">
    <path d="M 769.692697 388.93125 
L 771.666865 388.93125 
L 771.666865 388.744313 
L 769.692697 388.744313 
z
" clip-path="url(#pd931bc4de3)" style="fill: #1f77b4"/>
   </g>
   <g id="patch_346">
    <path d="M 771.666865 388.93125 
L 773.641033 388.93125 
L 773.641033 388.93125 
L 771.666865 388.93125 
z
" clip-path="url(#pd931bc4de3)" style="fill: #1f77b4"/>
   </g>
   <g id="patch_347">
    <path d="M 773.641033 388.93125 
L 775.615201 388.93125 
L 775.615201 388.93125 
L 773.641033 388.93125 
z
" clip-path="url(#pd931bc4de3)" style="fill: #1f77b4"/>
   </g>
   <g id="patch_348">
    <path d="M 775.615201 388.93125 
L 777.589369 388.93125 
L 777.589369 388.557377 
L 775.615201 388.557377 
z
" clip-path="url(#pd931bc4de3)" style="fill: #1f77b4"/>
   </g>
   <g id="patch_349">
    <path d="M 777.589369 388.93125 
L 779.563537 388.93125 
L 779.563537 388.93125 
L 777.589369 388.93125 
z
" clip-path="url(#pd931bc4de3)" style="fill: #1f77b4"/>
   </g>
   <g id="patch_350">
    <path d="M 779.563537 388.93125 
L 781.537705 388.93125 
L 781.537705 388.557377 
L 779.563537 388.557377 
z
" clip-path="url(#pd931bc4de3)" style="fill: #1f77b4"/>
   </g>
   <g id="patch_351">
    <path d="M 781.537705 388.93125 
L 783.511873 388.93125 
L 783.511873 388.93125 
L 781.537705 388.93125 
z
" clip-path="url(#pd931bc4de3)" style="fill: #1f77b4"/>
   </g>
   <g id="patch_352">
    <path d="M 783.511873 388.93125 
L 785.486041 388.93125 
L 785.486041 388.744313 
L 783.511873 388.744313 
z
" clip-path="url(#pd931bc4de3)" style="fill: #1f77b4"/>
   </g>
   <g id="patch_353">
    <path d="M 785.486041 388.93125 
L 787.460209 388.93125 
L 787.460209 388.93125 
L 785.486041 388.93125 
z
" clip-path="url(#pd931bc4de3)" style="fill: #1f77b4"/>
   </g>
   <g id="patch_354">
    <path d="M 787.460209 388.93125 
L 789.434377 388.93125 
L 789.434377 388.93125 
L 787.460209 388.93125 
z
" clip-path="url(#pd931bc4de3)" style="fill: #1f77b4"/>
   </g>
   <g id="patch_355">
    <path d="M 789.434377 388.93125 
L 791.408544 388.93125 
L 791.408544 388.744313 
L 789.434377 388.744313 
z
" clip-path="url(#pd931bc4de3)" style="fill: #1f77b4"/>
   </g>
   <g id="patch_356">
    <path d="M 791.408544 388.93125 
L 793.382712 388.93125 
L 793.382712 388.93125 
L 791.408544 388.93125 
z
" clip-path="url(#pd931bc4de3)" style="fill: #1f77b4"/>
   </g>
   <g id="patch_357">
    <path d="M 793.382712 388.93125 
L 795.35688 388.93125 
L 795.35688 388.93125 
L 793.382712 388.93125 
z
" clip-path="url(#pd931bc4de3)" style="fill: #1f77b4"/>
   </g>
   <g id="patch_358">
    <path d="M 795.35688 388.93125 
L 797.331048 388.93125 
L 797.331048 388.93125 
L 795.35688 388.93125 
z
" clip-path="url(#pd931bc4de3)" style="fill: #1f77b4"/>
   </g>
   <g id="patch_359">
    <path d="M 797.331048 388.93125 
L 799.305216 388.93125 
L 799.305216 388.93125 
L 797.331048 388.93125 
z
" clip-path="url(#pd931bc4de3)" style="fill: #1f77b4"/>
   </g>
   <g id="patch_360">
    <path d="M 799.305216 388.93125 
L 801.279384 388.93125 
L 801.279384 388.93125 
L 799.305216 388.93125 
z
" clip-path="url(#pd931bc4de3)" style="fill: #1f77b4"/>
   </g>
   <g id="patch_361">
    <path d="M 801.279384 388.93125 
L 803.253552 388.93125 
L 803.253552 388.93125 
L 801.279384 388.93125 
z
" clip-path="url(#pd931bc4de3)" style="fill: #1f77b4"/>
   </g>
   <g id="patch_362">
    <path d="M 803.253552 388.93125 
L 805.22772 388.93125 
L 805.22772 388.93125 
L 803.253552 388.93125 
z
" clip-path="url(#pd931bc4de3)" style="fill: #1f77b4"/>
   </g>
   <g id="patch_363">
    <path d="M 805.22772 388.93125 
L 807.201888 388.93125 
L 807.201888 388.93125 
L 805.22772 388.93125 
z
" clip-path="url(#pd931bc4de3)" style="fill: #1f77b4"/>
   </g>
   <g id="patch_364">
    <path d="M 807.201888 388.93125 
L 809.176056 388.93125 
L 809.176056 388.93125 
L 807.201888 388.93125 
z
" clip-path="url(#pd931bc4de3)" style="fill: #1f77b4"/>
   </g>
   <g id="patch_365">
    <path d="M 809.176056 388.93125 
L 811.150224 388.93125 
L 811.150224 388.744313 
L 809.176056 388.744313 
z
" clip-path="url(#pd931bc4de3)" style="fill: #1f77b4"/>
   </g>
   <g id="patch_366">
    <path d="M 811.150224 388.93125 
L 813.124391 388.93125 
L 813.124391 388.744313 
L 811.150224 388.744313 
z
" clip-path="url(#pd931bc4de3)" style="fill: #1f77b4"/>
   </g>
   <g id="patch_367">
    <path d="M 813.124391 388.93125 
L 815.098559 388.93125 
L 815.098559 388.744313 
L 813.124391 388.744313 
z
" clip-path="url(#pd931bc4de3)" style="fill: #1f77b4"/>
   </g>
   <g id="patch_368">
    <path d="M 815.098559 388.93125 
L 817.072727 388.93125 
L 817.072727 388.744313 
L 815.098559 388.744313 
z
" clip-path="url(#pd931bc4de3)" style="fill: #1f77b4"/>
   </g>
   <g id="matplotlib.axis_1">
    <g id="xtick_1">
     <g id="line2d_1">
      <defs>
       <path id="mb46e85e45e" d="M 0 0 
L 0 3.5 
" style="stroke: #888888; stroke-width: 0.8"/>
      </defs>
      <g>
       <use xlink:href="#mb46e85e45e" x="80.708097" y="388.93125" style="fill: #888888; stroke: #888888; stroke-width: 0.8"/>
      </g>
     </g>
     <g id="text_1">
      <!-- 550 -->
      <g style="fill: #888888" transform="translate(70.958097 404.03125) scale(0.1 -0.1)">
       <defs>
        <path id="B612-Regular-35" d="M 1306 3142 
Q 1328 3155 1384 3184 
Q 1440 3213 1523 3241 
Q 1606 3270 1713 3291 
Q 1821 3312 1952 3312 
Q 2285 3312 2545 3208 
Q 2806 3104 2987 2923 
Q 3168 2742 3262 2499 
Q 3357 2256 3357 1981 
Q 3357 1658 3241 1384 
Q 3126 1110 2926 891 
Q 2726 672 2459 505 
Q 2192 339 1889 225 
Q 1587 112 1267 56 
Q 947 0 640 0 
L 640 512 
Q 880 518 1126 571 
Q 1373 624 1601 712 
Q 1830 800 2030 925 
Q 2230 1050 2379 1202 
Q 2528 1354 2614 1533 
Q 2701 1712 2701 1914 
Q 2701 2077 2648 2230 
Q 2595 2384 2491 2504 
Q 2387 2624 2230 2697 
Q 2074 2771 1866 2771 
Q 1702 2771 1571 2750 
Q 1440 2730 1336 2699 
Q 1232 2669 1158 2630 
Q 1085 2592 1037 2560 
L 640 2560 
L 640 4800 
L 3050 4800 
L 3050 4288 
L 1306 4288 
L 1306 3142 
z
" transform="scale(0.015625)"/>
        <path id="B612-Regular-30" d="M 1920 -54 
Q 1648 -54 1421 50 
Q 1194 154 1013 333 
Q 832 512 696 752 
Q 560 992 469 1265 
Q 378 1539 333 1828 
Q 288 2118 288 2400 
Q 288 2688 326 2982 
Q 365 3277 448 3549 
Q 531 3821 660 4059 
Q 790 4298 971 4474 
Q 1152 4650 1387 4752 
Q 1622 4854 1920 4854 
Q 2192 4854 2419 4750 
Q 2646 4646 2827 4467 
Q 3008 4288 3144 4048 
Q 3280 3808 3371 3534 
Q 3462 3261 3507 2969 
Q 3552 2678 3552 2400 
Q 3552 2112 3513 1817 
Q 3475 1523 3392 1251 
Q 3309 979 3179 740 
Q 3050 502 2869 326 
Q 2688 150 2451 48 
Q 2214 -54 1920 -54 
z
M 950 2538 
Q 950 2352 963 2129 
Q 976 1907 1014 1681 
Q 1053 1456 1121 1245 
Q 1190 1034 1300 869 
Q 1411 704 1569 605 
Q 1728 506 1946 506 
Q 2141 506 2286 581 
Q 2432 656 2537 785 
Q 2643 915 2710 1086 
Q 2778 1258 2818 1453 
Q 2858 1648 2874 1856 
Q 2890 2064 2890 2262 
Q 2890 2448 2877 2670 
Q 2864 2893 2825 3117 
Q 2787 3341 2718 3553 
Q 2650 3766 2539 3929 
Q 2429 4093 2270 4192 
Q 2112 4291 1894 4291 
Q 1699 4291 1553 4216 
Q 1408 4141 1302 4013 
Q 1197 3885 1129 3712 
Q 1062 3539 1022 3344 
Q 982 3149 966 2942 
Q 950 2736 950 2538 
z
" transform="scale(0.015625)"/>
       </defs>
       <use xlink:href="#B612-Regular-35"/>
       <use xlink:href="#B612-Regular-35" x="65.000015"/>
       <use xlink:href="#B612-Regular-30" x="130.000031"/>
      </g>
     </g>
    </g>
    <g id="xtick_2">
     <g id="line2d_2">
      <g>
       <use xlink:href="#mb46e85e45e" x="179.416493" y="388.93125" style="fill: #888888; stroke: #888888; stroke-width: 0.8"/>
      </g>
     </g>
     <g id="text_2">
      <!-- 600 -->
      <g style="fill: #888888" transform="translate(169.666493 404.03125) scale(0.1 -0.1)">
       <defs>
        <path id="B612-Regular-36" d="M 2973 4301 
Q 2950 4307 2907 4308 
Q 2864 4310 2829 4310 
Q 2598 4310 2380 4238 
Q 2163 4166 1971 4035 
Q 1779 3904 1617 3721 
Q 1456 3539 1333 3320 
Q 1210 3101 1130 2851 
Q 1050 2602 1024 2336 
L 1290 2710 
Q 1370 2762 1477 2808 
Q 1584 2854 1702 2889 
Q 1821 2925 1942 2945 
Q 2064 2966 2173 2966 
Q 2451 2966 2708 2889 
Q 2966 2813 3166 2653 
Q 3366 2493 3486 2241 
Q 3606 1990 3606 1642 
Q 3606 1296 3489 987 
Q 3373 678 3161 446 
Q 2950 214 2656 80 
Q 2362 -54 2003 -54 
Q 1690 -54 1448 46 
Q 1206 147 1027 313 
Q 848 480 728 694 
Q 608 909 533 1134 
Q 458 1360 426 1581 
Q 394 1802 394 1984 
Q 394 2365 472 2726 
Q 550 3088 699 3406 
Q 848 3725 1062 3992 
Q 1277 4259 1550 4449 
Q 1824 4640 2152 4747 
Q 2480 4854 2858 4854 
Q 2906 4854 2963 4852 
Q 3021 4851 3053 4845 
L 2973 4301 
z
M 1053 1910 
Q 1053 1821 1054 1747 
Q 1056 1674 1064 1603 
Q 1072 1533 1085 1461 
Q 1098 1389 1120 1302 
Q 1165 1120 1241 971 
Q 1318 822 1428 715 
Q 1539 608 1684 549 
Q 1830 490 2013 490 
Q 2266 490 2443 586 
Q 2621 682 2733 840 
Q 2845 998 2897 1200 
Q 2950 1402 2950 1610 
Q 2950 1811 2891 1964 
Q 2832 2118 2723 2219 
Q 2614 2320 2462 2371 
Q 2310 2422 2125 2422 
Q 1952 2422 1789 2380 
Q 1626 2339 1483 2268 
Q 1341 2198 1230 2105 
Q 1120 2013 1053 1910 
z
" transform="scale(0.015625)"/>
       </defs>
       <use xlink:href="#B612-Regular-36"/>
       <use xlink:href="#B612-Regular-30" x="65.000015"/>
       <use xlink:href="#B612-Regular-30" x="130.000031"/>
      </g>
     </g>
    </g>
    <g id="xtick_3">
     <g id="line2d_3">
      <g>
       <use xlink:href="#mb46e85e45e" x="278.124888" y="388.93125" style="fill: #888888; stroke: #888888; stroke-width: 0.8"/>
      </g>
     </g>
     <g id="text_3">
      <!-- 650 -->
      <g style="fill: #888888" transform="translate(268.374888 404.03125) scale(0.1 -0.1)">
       <use xlink:href="#B612-Regular-36"/>
       <use xlink:href="#B612-Regular-35" x="65.000015"/>
       <use xlink:href="#B612-Regular-30" x="130.000031"/>
      </g>
     </g>
    </g>
    <g id="xtick_4">
     <g id="line2d_4">
      <g>
       <use xlink:href="#mb46e85e45e" x="376.833284" y="388.93125" style="fill: #888888; stroke: #888888; stroke-width: 0.8"/>
      </g>
     </g>
     <g id="text_4">
      <!-- 700 -->
      <g style="fill: #888888" transform="translate(367.083284 404.03125) scale(0.1 -0.1)">
       <defs>
        <path id="B612-Regular-37" d="M 640 4800 
L 3520 4800 
L 3520 4384 
Q 3520 4246 3416 4030 
Q 3312 3814 3152 3545 
Q 2992 3277 2803 2968 
Q 2614 2659 2441 2334 
Q 2269 2010 2141 1683 
Q 2013 1357 1978 1053 
Q 1962 922 1954 782 
Q 1946 643 1941 505 
Q 1936 368 1936 237 
L 1936 0 
L 1280 0 
Q 1280 96 1281 257 
Q 1283 419 1289 598 
Q 1296 778 1310 954 
Q 1325 1130 1350 1254 
Q 1424 1597 1561 1928 
Q 1699 2259 1860 2564 
Q 2022 2870 2192 3142 
Q 2362 3414 2499 3636 
Q 2637 3859 2725 4025 
Q 2813 4192 2813 4288 
L 640 4288 
L 640 4800 
z
" transform="scale(0.015625)"/>
       </defs>
       <use xlink:href="#B612-Regular-37"/>
       <use xlink:href="#B612-Regular-30" x="65.000015"/>
       <use xlink:href="#B612-Regular-30" x="130.000031"/>
      </g>
     </g>
    </g>
    <g id="xtick_5">
     <g id="line2d_5">
      <g>
       <use xlink:href="#mb46e85e45e" x="475.541679" y="388.93125" style="fill: #888888; stroke: #888888; stroke-width: 0.8"/>
      </g>
     </g>
     <g id="text_5">
      <!-- 750 -->
      <g style="fill: #888888" transform="translate(465.791679 404.03125) scale(0.1 -0.1)">
       <use xlink:href="#B612-Regular-37"/>
       <use xlink:href="#B612-Regular-35" x="65.000015"/>
       <use xlink:href="#B612-Regular-30" x="130.000031"/>
      </g>
     </g>
    </g>
    <g id="xtick_6">
     <g id="line2d_6">
      <g>
       <use xlink:href="#mb46e85e45e" x="574.250075" y="388.93125" style="fill: #888888; stroke: #888888; stroke-width: 0.8"/>
      </g>
     </g>
     <g id="text_6">
      <!-- 800 -->
      <g style="fill: #888888" transform="translate(564.500075 404.03125) scale(0.1 -0.1)">
       <defs>
        <path id="B612-Regular-38" d="M 1955 4854 
Q 2246 4854 2496 4774 
Q 2746 4694 2926 4544 
Q 3107 4394 3209 4179 
Q 3312 3965 3312 3696 
Q 3312 3507 3256 3360 
Q 3200 3213 3104 3096 
Q 3008 2979 2881 2884 
Q 2755 2790 2614 2707 
Q 2851 2602 3038 2466 
Q 3226 2330 3355 2158 
Q 3485 1987 3553 1776 
Q 3622 1565 3622 1312 
Q 3622 957 3481 699 
Q 3341 442 3109 274 
Q 2877 106 2581 26 
Q 2285 -54 1974 -54 
Q 1670 -54 1388 37 
Q 1107 128 891 305 
Q 675 483 544 747 
Q 413 1011 413 1357 
Q 413 1613 486 1821 
Q 560 2029 688 2195 
Q 816 2362 992 2491 
Q 1168 2621 1373 2720 
Q 1222 2813 1092 2912 
Q 963 3011 865 3124 
Q 768 3238 712 3369 
Q 656 3501 656 3661 
Q 656 3971 779 4196 
Q 902 4422 1094 4568 
Q 1286 4714 1515 4784 
Q 1744 4854 1955 4854 
z
M 1920 2432 
Q 1718 2346 1556 2242 
Q 1395 2138 1281 2005 
Q 1168 1872 1105 1705 
Q 1043 1539 1043 1325 
Q 1043 1133 1121 976 
Q 1200 819 1329 705 
Q 1459 592 1628 531 
Q 1798 470 1978 470 
Q 2182 470 2366 526 
Q 2550 582 2689 691 
Q 2829 800 2909 960 
Q 2989 1120 2989 1328 
Q 2989 1542 2894 1710 
Q 2800 1878 2648 2011 
Q 2496 2144 2305 2246 
Q 2115 2349 1920 2432 
z
M 2051 2954 
Q 2346 3085 2520 3270 
Q 2694 3456 2694 3722 
Q 2694 3882 2628 3997 
Q 2563 4112 2464 4185 
Q 2365 4259 2245 4292 
Q 2125 4326 2016 4326 
Q 1872 4326 1737 4283 
Q 1603 4240 1500 4160 
Q 1398 4080 1336 3971 
Q 1274 3862 1274 3734 
Q 1274 3587 1336 3473 
Q 1398 3360 1505 3269 
Q 1613 3178 1753 3101 
Q 1894 3024 2051 2954 
z
" transform="scale(0.015625)"/>
       </defs>
       <use xlink:href="#B612-Regular-38"/>
       <use xlink:href="#B612-Regular-30" x="65.000015"/>
       <use xlink:href="#B612-Regular-30" x="130.000031"/>
      </g>
     </g>
    </g>
    <g id="xtick_7">
     <g id="line2d_7">
      <g>
       <use xlink:href="#mb46e85e45e" x="672.95847" y="388.93125" style="fill: #888888; stroke: #888888; stroke-width: 0.8"/>
      </g>
     </g>
     <g id="text_7">
      <!-- 850 -->
      <g style="fill: #888888" transform="translate(663.20847 404.03125) scale(0.1 -0.1)">
       <use xlink:href="#B612-Regular-38"/>
       <use xlink:href="#B612-Regular-35" x="65.000015"/>
       <use xlink:href="#B612-Regular-30" x="130.000031"/>
      </g>
     </g>
    </g>
    <g id="xtick_8">
     <g id="line2d_8">
      <g>
       <use xlink:href="#mb46e85e45e" x="771.666865" y="388.93125" style="fill: #888888; stroke: #888888; stroke-width: 0.8"/>
      </g>
     </g>
     <g id="text_8">
      <!-- 900 -->
      <g style="fill: #888888" transform="translate(761.916865 404.03125) scale(0.1 -0.1)">
       <defs>
        <path id="B612-Regular-39" d="M 2714 2122 
Q 2525 1974 2334 1904 
Q 2144 1834 1904 1834 
Q 1590 1834 1318 1938 
Q 1046 2042 844 2234 
Q 643 2426 528 2696 
Q 413 2966 413 3299 
Q 413 3645 523 3929 
Q 634 4214 837 4420 
Q 1040 4627 1329 4740 
Q 1619 4854 1978 4854 
Q 2298 4854 2542 4755 
Q 2787 4656 2966 4493 
Q 3146 4330 3266 4118 
Q 3386 3907 3458 3680 
Q 3530 3453 3560 3229 
Q 3590 3005 3590 2816 
Q 3590 2442 3515 2090 
Q 3440 1738 3294 1424 
Q 3149 1110 2937 846 
Q 2726 582 2456 388 
Q 2186 195 1858 78 
Q 1530 -38 1155 -54 
L 1056 480 
Q 1440 499 1777 662 
Q 2115 826 2372 1096 
Q 2630 1366 2788 1726 
Q 2947 2086 2970 2496 
L 2714 2122 
z
M 2931 3050 
Q 2922 3290 2861 3515 
Q 2800 3741 2688 3918 
Q 2576 4096 2405 4203 
Q 2234 4310 2003 4310 
Q 1786 4310 1613 4240 
Q 1440 4170 1318 4045 
Q 1197 3920 1131 3744 
Q 1066 3568 1066 3357 
Q 1066 3149 1118 2969 
Q 1171 2790 1278 2659 
Q 1386 2528 1550 2453 
Q 1715 2378 1936 2378 
Q 2106 2378 2261 2432 
Q 2416 2486 2545 2577 
Q 2675 2669 2774 2790 
Q 2874 2912 2931 3050 
z
" transform="scale(0.015625)"/>
       </defs>
       <use xlink:href="#B612-Regular-39"/>
       <use xlink:href="#B612-Regular-30" x="65.000015"/>
       <use xlink:href="#B612-Regular-30" x="130.000031"/>
      </g>
     </g>
    </g>
    <g id="text_9">
     <!-- y+2j+3f -->
     <g style="fill: #888888" transform="translate(437.05 418.615625) scale(0.1 -0.1)">
      <defs>
       <path id="B612-Regular-79" d="M 1926 1165 
L 2787 3520 
L 3363 3574 
L 2038 -54 
Q 1939 -323 1822 -588 
Q 1706 -854 1558 -1064 
Q 1411 -1274 1233 -1405 
Q 1056 -1536 838 -1536 
Q 675 -1536 518 -1470 
Q 362 -1405 230 -1290 
L 464 -947 
Q 518 -986 588 -1018 
Q 659 -1050 736 -1050 
Q 842 -1050 941 -968 
Q 1040 -886 1131 -758 
Q 1222 -630 1300 -470 
Q 1379 -310 1443 -150 
L 109 3520 
L 717 3574 
L 1594 1165 
L 1760 422 
L 1926 1165 
z
" transform="scale(0.015625)"/>
       <path id="B612-Regular-2b" d="M 320 2240 
L 1514 2240 
L 1514 3587 
L 2010 3587 
L 2010 2240 
L 3200 2240 
L 3200 1744 
L 2010 1744 
L 2010 390 
L 1514 390 
L 1514 1744 
L 320 1744 
L 320 2240 
z
" transform="scale(0.015625)"/>
       <path id="B612-Regular-32" d="M 486 0 
L 486 538 
Q 640 781 817 1016 
Q 995 1251 1176 1470 
Q 1357 1690 1533 1886 
Q 1709 2083 1856 2246 
Q 2019 2426 2166 2584 
Q 2314 2742 2426 2899 
Q 2538 3056 2605 3217 
Q 2672 3379 2672 3568 
Q 2672 3722 2614 3858 
Q 2557 3994 2453 4094 
Q 2349 4195 2205 4254 
Q 2061 4314 1888 4314 
Q 1693 4314 1550 4261 
Q 1408 4208 1301 4121 
Q 1194 4035 1115 3928 
Q 1037 3821 970 3712 
L 518 3904 
Q 602 4112 731 4286 
Q 861 4461 1037 4587 
Q 1213 4714 1437 4784 
Q 1661 4854 1936 4854 
Q 2259 4854 2512 4739 
Q 2765 4624 2939 4437 
Q 3114 4250 3205 4013 
Q 3296 3776 3296 3533 
Q 3296 3286 3205 3064 
Q 3114 2842 2978 2642 
Q 2842 2442 2685 2266 
Q 2528 2090 2397 1936 
Q 2230 1741 2064 1552 
Q 1898 1363 1746 1182 
Q 1594 1002 1462 834 
Q 1331 666 1235 512 
L 3379 512 
L 3379 0 
L 486 0 
z
" transform="scale(0.015625)"/>
       <path id="B612-Regular-6a" d="M 621 4800 
L 1267 4800 
L 1267 4160 
L 621 4160 
L 621 4800 
z
M -70 -1104 
Q -35 -1117 45 -1129 
Q 125 -1142 224 -1142 
Q 342 -1142 422 -1080 
Q 502 -1018 550 -909 
Q 598 -800 619 -654 
Q 640 -509 640 -342 
L 640 3376 
L 1248 3440 
L 1248 -310 
Q 1248 -595 1211 -841 
Q 1174 -1088 1065 -1269 
Q 957 -1450 763 -1552 
Q 570 -1654 256 -1654 
Q 61 -1654 -49 -1619 
Q -160 -1584 -195 -1565 
L -70 -1104 
z
" transform="scale(0.015625)"/>
       <path id="B612-Regular-33" d="M 688 4288 
L 736 4800 
L 3072 4800 
L 3072 4352 
Q 3034 4224 2942 4085 
Q 2851 3946 2728 3805 
Q 2605 3664 2459 3525 
Q 2314 3386 2166 3261 
L 1744 3024 
Q 1776 3030 1825 3032 
Q 1875 3034 1920 3034 
Q 2230 3034 2497 2957 
Q 2765 2880 2961 2725 
Q 3158 2570 3272 2331 
Q 3386 2093 3386 1770 
Q 3386 1459 3270 1206 
Q 3155 954 2955 757 
Q 2755 560 2486 417 
Q 2218 275 1912 182 
Q 1606 90 1280 45 
Q 954 0 640 0 
L 640 512 
Q 906 522 1162 560 
Q 1418 598 1648 667 
Q 1878 736 2073 835 
Q 2269 934 2411 1067 
Q 2554 1200 2634 1366 
Q 2714 1533 2714 1738 
Q 2714 1968 2616 2121 
Q 2518 2275 2348 2364 
Q 2179 2454 1950 2491 
Q 1722 2528 1459 2528 
Q 1357 2528 1237 2523 
Q 1117 2518 1021 2512 
L 1021 3008 
Q 1152 3104 1305 3225 
Q 1459 3347 1616 3480 
Q 1773 3613 1921 3749 
Q 2070 3885 2192 4008 
Q 2314 4131 2397 4236 
Q 2480 4342 2506 4416 
L 2019 4288 
L 688 4288 
z
" transform="scale(0.015625)"/>
       <path id="B612-Regular-66" d="M 160 3520 
L 640 3520 
L 640 4016 
Q 640 4288 699 4502 
Q 758 4717 886 4865 
Q 1014 5014 1214 5094 
Q 1414 5174 1696 5174 
Q 1840 5174 1960 5150 
Q 2080 5126 2181 5088 
Q 2282 5050 2366 4998 
Q 2451 4947 2518 4893 
L 2246 4515 
Q 2179 4563 2060 4612 
Q 1942 4662 1798 4662 
Q 1523 4662 1377 4507 
Q 1232 4352 1232 3984 
L 1232 3520 
L 2160 3520 
L 2096 3008 
L 1248 3008 
L 1248 0 
L 640 0 
L 640 3008 
L 160 3008 
L 160 3520 
z
" transform="scale(0.015625)"/>
      </defs>
      <use xlink:href="#B612-Regular-79"/>
      <use xlink:href="#B612-Regular-2b" x="55"/>
      <use xlink:href="#B612-Regular-32" x="115.000015"/>
      <use xlink:href="#B612-Regular-6a" x="180.000031"/>
      <use xlink:href="#B612-Regular-2b" x="210.000031"/>
      <use xlink:href="#B612-Regular-33" x="270.000046"/>
      <use xlink:href="#B612-Regular-66" x="335.000061"/>
     </g>
    </g>
   </g>
   <g id="matplotlib.axis_2">
    <g id="ytick_1">
     <g id="line2d_9">
      <defs>
       <path id="m8c9e088f02" d="M 0 0 
L -3.5 0 
" style="stroke: #888888; stroke-width: 0.8"/>
      </defs>
      <g>
       <use xlink:href="#m8c9e088f02" x="58.4" y="388.93125" style="fill: #888888; stroke: #888888; stroke-width: 0.8"/>
      </g>
     </g>
     <g id="text_10">
      <!-- 0 -->
      <g style="fill: #888888" transform="translate(44.9 392.98125) scale(0.1 -0.1)">
       <use xlink:href="#B612-Regular-30"/>
      </g>
     </g>
    </g>
    <g id="ytick_2">
     <g id="line2d_10">
      <g>
       <use xlink:href="#m8c9e088f02" x="58.4" y="342.197065" style="fill: #888888; stroke: #888888; stroke-width: 0.8"/>
      </g>
     </g>
     <g id="text_11">
      <!-- 250 -->
      <g style="fill: #888888" transform="translate(31.9 346.247065) scale(0.1 -0.1)">
       <use xlink:href="#B612-Regular-32"/>
       <use xlink:href="#B612-Regular-35" x="65.000015"/>
       <use xlink:href="#B612-Regular-30" x="130.000031"/>
      </g>
     </g>
    </g>
    <g id="ytick_3">
     <g id="line2d_11">
      <g>
       <use xlink:href="#m8c9e088f02" x="58.4" y="295.46288" style="fill: #888888; stroke: #888888; stroke-width: 0.8"/>
      </g>
     </g>
     <g id="text_12">
      <!-- 500 -->
      <g style="fill: #888888" transform="translate(31.9 299.51288) scale(0.1 -0.1)">
       <use xlink:href="#B612-Regular-35"/>
       <use xlink:href="#B612-Regular-30" x="65.000015"/>
       <use xlink:href="#B612-Regular-30" x="130.000031"/>
      </g>
     </g>
    </g>
    <g id="ytick_4">
     <g id="line2d_12">
      <g>
       <use xlink:href="#m8c9e088f02" x="58.4" y="248.728695" style="fill: #888888; stroke: #888888; stroke-width: 0.8"/>
      </g>
     </g>
     <g id="text_13">
      <!-- 750 -->
      <g style="fill: #888888" transform="translate(31.9 252.778695) scale(0.1 -0.1)">
       <use xlink:href="#B612-Regular-37"/>
       <use xlink:href="#B612-Regular-35" x="65.000015"/>
       <use xlink:href="#B612-Regular-30" x="130.000031"/>
      </g>
     </g>
    </g>
    <g id="ytick_5">
     <g id="line2d_13">
      <g>
       <use xlink:href="#m8c9e088f02" x="58.4" y="201.99451" style="fill: #888888; stroke: #888888; stroke-width: 0.8"/>
      </g>
     </g>
     <g id="text_14">
      <!-- 1000 -->
      <g style="fill: #888888" transform="translate(25.4 206.04451) scale(0.1 -0.1)">
       <defs>
        <path id="B612-Regular-31" d="M 1120 0 
L 1120 512 
L 1904 512 
L 1904 3603 
L 2090 4330 
L 1654 3734 
L 976 3133 
L 630 3520 
L 2096 4864 
L 2576 4800 
L 2576 512 
L 3360 512 
L 3360 0 
L 1120 0 
z
" transform="scale(0.015625)"/>
       </defs>
       <use xlink:href="#B612-Regular-31"/>
       <use xlink:href="#B612-Regular-30" x="65.000015"/>
       <use xlink:href="#B612-Regular-30" x="130.000031"/>
       <use xlink:href="#B612-Regular-30" x="195.000046"/>
      </g>
     </g>
    </g>
    <g id="ytick_6">
     <g id="line2d_14">
      <g>
       <use xlink:href="#m8c9e088f02" x="58.4" y="155.260324" style="fill: #888888; stroke: #888888; stroke-width: 0.8"/>
      </g>
     </g>
     <g id="text_15">
      <!-- 1250 -->
      <g style="fill: #888888" transform="translate(25.4 159.310324) scale(0.1 -0.1)">
       <use xlink:href="#B612-Regular-31"/>
       <use xlink:href="#B612-Regular-32" x="65.000015"/>
       <use xlink:href="#B612-Regular-35" x="130.000031"/>
       <use xlink:href="#B612-Regular-30" x="195.000046"/>
      </g>
     </g>
    </g>
    <g id="ytick_7">
     <g id="line2d_15">
      <g>
       <use xlink:href="#m8c9e088f02" x="58.4" y="108.526139" style="fill: #888888; stroke: #888888; stroke-width: 0.8"/>
      </g>
     </g>
     <g id="text_16">
      <!-- 1500 -->
      <g style="fill: #888888" transform="translate(25.4 112.576139) scale(0.1 -0.1)">
       <use xlink:href="#B612-Regular-31"/>
       <use xlink:href="#B612-Regular-35" x="65.000015"/>
       <use xlink:href="#B612-Regular-30" x="130.000031"/>
       <use xlink:href="#B612-Regular-30" x="195.000046"/>
      </g>
     </g>
    </g>
    <g id="ytick_8">
     <g id="line2d_16">
      <g>
       <use xlink:href="#m8c9e088f02" x="58.4" y="61.791954" style="fill: #888888; stroke: #888888; stroke-width: 0.8"/>
      </g>
     </g>
     <g id="text_17">
      <!-- 1750 -->
      <g style="fill: #888888" transform="translate(25.4 65.841954) scale(0.1 -0.1)">
       <use xlink:href="#B612-Regular-31"/>
       <use xlink:href="#B612-Regular-37" x="65.000015"/>
       <use xlink:href="#B612-Regular-35" x="130.000031"/>
       <use xlink:href="#B612-Regular-30" x="195.000046"/>
      </g>
     </g>
    </g>
    <g id="ytick_9">
     <g id="line2d_17">
      <g>
       <use xlink:href="#m8c9e088f02" x="58.4" y="15.057769" style="fill: #888888; stroke: #888888; stroke-width: 0.8"/>
      </g>
     </g>
     <g id="text_18">
      <!-- 2000 -->
      <g style="fill: #888888" transform="translate(25.4 19.107769) scale(0.1 -0.1)">
       <use xlink:href="#B612-Regular-32"/>
       <use xlink:href="#B612-Regular-30" x="65.000015"/>
       <use xlink:href="#B612-Regular-30" x="130.000031"/>
       <use xlink:href="#B612-Regular-30" x="195.000046"/>
      </g>
     </g>
    </g>
    <g id="text_19">
     <!-- frequency -->
     <g style="fill: #888888" transform="translate(18.9 224.837866) rotate(-90) scale(0.1 -0.1)">
      <defs>
       <path id="B612-Regular-72" d="M 2147 3034 
Q 2019 3034 1894 2982 
Q 1770 2931 1654 2844 
Q 1539 2758 1436 2643 
Q 1334 2528 1248 2400 
L 1248 0 
L 640 0 
L 640 3520 
L 1248 3584 
L 1248 2864 
L 1568 3424 
Q 1610 3450 1672 3477 
Q 1734 3504 1814 3525 
Q 1894 3546 1985 3560 
Q 2077 3574 2173 3574 
Q 2317 3574 2414 3548 
Q 2512 3523 2560 3501 
L 2528 2970 
Q 2480 2986 2384 3010 
Q 2288 3034 2147 3034 
z
" transform="scale(0.015625)"/>
       <path id="B612-Regular-65" d="M 3091 413 
Q 2992 310 2873 224 
Q 2755 138 2611 75 
Q 2467 13 2292 -20 
Q 2118 -54 1904 -54 
Q 1478 -54 1177 96 
Q 877 246 686 499 
Q 496 752 408 1078 
Q 320 1405 320 1760 
Q 320 1987 361 2209 
Q 403 2432 486 2633 
Q 570 2835 694 3008 
Q 819 3181 985 3305 
Q 1152 3430 1361 3502 
Q 1571 3574 1824 3574 
Q 2170 3574 2422 3462 
Q 2675 3350 2841 3148 
Q 3008 2947 3088 2665 
Q 3168 2384 3168 2042 
Q 3168 1942 3161 1824 
Q 3155 1706 3142 1600 
L 928 1600 
Q 928 1360 993 1152 
Q 1059 944 1177 789 
Q 1296 634 1464 546 
Q 1632 458 1840 458 
Q 2045 458 2197 488 
Q 2349 518 2457 561 
Q 2566 605 2635 649 
Q 2704 694 2742 720 
L 3091 413 
z
M 2560 2080 
Q 2563 2115 2564 2150 
Q 2566 2186 2566 2221 
Q 2566 2403 2524 2556 
Q 2483 2710 2398 2824 
Q 2314 2938 2182 3002 
Q 2051 3066 1872 3066 
Q 1658 3066 1506 2997 
Q 1354 2928 1250 2821 
Q 1146 2714 1083 2586 
Q 1021 2458 989 2342 
L 822 1994 
L 1392 2080 
L 2560 2080 
z
" transform="scale(0.015625)"/>
       <path id="B612-Regular-71" d="M 2592 2992 
Q 2531 3005 2449 3017 
Q 2368 3030 2277 3040 
Q 2186 3050 2090 3056 
Q 1994 3062 1907 3062 
Q 1613 3062 1427 2937 
Q 1242 2813 1133 2614 
Q 1024 2416 984 2168 
Q 944 1920 944 1677 
Q 944 1357 1005 1126 
Q 1066 896 1166 747 
Q 1267 598 1400 528 
Q 1533 458 1680 458 
Q 1805 458 1926 491 
Q 2048 525 2163 581 
Q 2278 637 2385 710 
Q 2493 784 2592 864 
L 2592 2992 
z
M 2592 435 
L 2256 93 
Q 2093 16 1933 -19 
Q 1773 -54 1619 -54 
Q 1354 -54 1118 66 
Q 883 186 705 408 
Q 528 630 424 952 
Q 320 1274 320 1677 
Q 320 2118 438 2470 
Q 557 2822 768 3067 
Q 979 3312 1273 3443 
Q 1568 3574 1920 3574 
Q 2122 3574 2323 3556 
Q 2525 3539 2697 3515 
Q 2870 3491 3003 3460 
Q 3136 3430 3200 3408 
L 3200 -1600 
L 2592 -1600 
L 2592 435 
z
" transform="scale(0.015625)"/>
       <path id="B612-Regular-75" d="M 2592 3520 
L 3200 3584 
L 3200 0 
L 2592 0 
L 2592 522 
L 2397 179 
Q 2339 141 2260 99 
Q 2182 58 2083 24 
Q 1984 -10 1865 -32 
Q 1747 -54 1616 -54 
Q 1360 -54 1176 38 
Q 992 131 873 297 
Q 755 464 697 693 
Q 640 922 640 1190 
L 640 3520 
L 1248 3584 
L 1248 1190 
Q 1248 845 1387 651 
Q 1526 458 1824 458 
Q 1933 458 2038 493 
Q 2144 528 2243 582 
Q 2342 637 2430 701 
Q 2518 765 2592 826 
L 2592 3520 
z
" transform="scale(0.015625)"/>
       <path id="B612-Regular-6e" d="M 1248 0 
L 640 0 
L 640 3520 
L 1248 3584 
L 1248 2998 
L 1443 3341 
Q 1501 3379 1590 3420 
Q 1680 3462 1790 3496 
Q 1901 3530 2029 3552 
Q 2157 3574 2288 3574 
Q 2541 3574 2715 3492 
Q 2890 3411 2998 3257 
Q 3107 3104 3153 2886 
Q 3200 2669 3200 2400 
L 3200 0 
L 2592 0 
L 2592 2400 
Q 2592 2573 2568 2697 
Q 2544 2822 2485 2904 
Q 2426 2986 2326 3024 
Q 2227 3062 2080 3062 
Q 1971 3062 1859 3028 
Q 1747 2995 1640 2942 
Q 1533 2890 1432 2826 
Q 1331 2762 1248 2701 
L 1248 0 
z
" transform="scale(0.015625)"/>
       <path id="B612-Regular-63" d="M 2582 2810 
Q 2458 2922 2286 2992 
Q 2115 3062 1933 3062 
Q 1664 3062 1475 2961 
Q 1286 2861 1169 2688 
Q 1053 2515 998 2286 
Q 944 2058 944 1805 
Q 944 1542 993 1304 
Q 1043 1066 1161 883 
Q 1280 701 1477 593 
Q 1674 486 1968 486 
Q 2214 486 2385 544 
Q 2557 602 2650 666 
L 2880 214 
Q 2701 93 2462 19 
Q 2224 -54 1923 -54 
Q 1523 -54 1222 104 
Q 922 262 722 526 
Q 522 790 421 1134 
Q 320 1478 320 1846 
Q 320 2179 417 2491 
Q 515 2803 715 3043 
Q 915 3283 1220 3428 
Q 1526 3574 1939 3574 
Q 2234 3574 2466 3483 
Q 2698 3392 2899 3171 
L 2582 2810 
z
" transform="scale(0.015625)"/>
      </defs>
      <use xlink:href="#B612-Regular-66"/>
      <use xlink:href="#B612-Regular-72" x="40"/>
      <use xlink:href="#B612-Regular-65" x="80"/>
      <use xlink:href="#B612-Regular-71" x="135"/>
      <use xlink:href="#B612-Regular-75" x="195.000015"/>
      <use xlink:href="#B612-Regular-65" x="255.000031"/>
      <use xlink:href="#B612-Regular-6e" x="310.000031"/>
      <use xlink:href="#B612-Regular-63" x="370.000046"/>
      <use xlink:href="#B612-Regular-79" x="420.000046"/>
     </g>
    </g>
   </g>
   <g id="patch_369">
    <path d="M 58.4 388.93125 
L 58.4 13.244483 
" style="fill: none; stroke: #888888; stroke-width: 0.8; stroke-linejoin: miter; stroke-linecap: square"/>
   </g>
   <g id="patch_370">
    <path d="M 853.2 388.93125 
L 853.2 13.244483 
" style="fill: none; stroke: #888888; stroke-width: 0.8; stroke-linejoin: miter; stroke-linecap: square"/>
   </g>
   <g id="patch_371">
    <path d="M 58.4 388.93125 
L 853.2 388.93125 
" style="fill: none; stroke: #888888; stroke-width: 0.8; stroke-linejoin: miter; stroke-linecap: square"/>
   </g>
   <g id="patch_372">
    <path d="M 58.4 13.244483 
L 853.2 13.244483 
" style="fill: none; stroke: #888888; stroke-width: 0.8; stroke-linejoin: miter; stroke-linecap: square"/>
   </g>
  </g>
 </g>
 <defs>
  <clipPath id="pd931bc4de3">
   <rect x="58.4" y="13.244483" width="794.8" height="375.686767"/>
  </clipPath>
 </defs>
</svg>
