<?xml version="1.0" encoding="utf-8" standalone="no"?>
<!DOCTYPE svg PUBLIC "-//W3C//DTD SVG 1.1//EN"
  "http://www.w3.org/Graphics/SVG/1.1/DTD/svg11.dtd">
<svg xmlns:xlink="http://www.w3.org/1999/xlink" width="360pt" height="360pt" viewBox="0 0 360 360" xmlns="http://www.w3.org/2000/svg" version="1.1">
 <metadata>
  <rdf:RDF xmlns:dc="http://purl.org/dc/elements/1.1/" xmlns:cc="http://creativecommons.org/ns#" xmlns:rdf="http://www.w3.org/1999/02/22-rdf-syntax-ns#">
   <cc:Work>
    <dc:type rdf:resource="http://purl.org/dc/dcmitype/StillImage"/>
    <dc:date>2024-05-11T22:50:26.923087</dc:date>
    <dc:format>image/svg+xml</dc:format>
    <dc:creator>
     <cc:Agent>
      <dc:title>Matplotlib v3.8.4, https://matplotlib.org/</dc:title>
     </cc:Agent>
    </dc:creator>
   </cc:Work>
  </rdf:RDF>
 </metadata>
 <defs>
  <style type="text/css">*{stroke-linejoin: round; stroke-linecap: butt}</style>
 </defs>
 <g id="figure_1">
  <g id="patch_1">
   <path d="M 0 360 
L 360 360 
L 360 0 
L 0 0 
L 0 360 
z
" style="fill: none"/>
  </g>
  <g id="axes_1">
   <g id="patch_2">
    <path d="M 54.9 317 
L 349.2 317 
L 349.2 10.8 
L 54.9 10.8 
L 54.9 317 
z
" style="fill: none"/>
   </g>
   <g id="PathCollection_1">
    <defs>
     <path id="m53cd0189f0" d="M 0 1.118034 
C 0.296506 1.118034 0.580908 1.000231 0.790569 0.790569 
C 1.000231 0.580908 1.118034 0.296506 1.118034 0 
C 1.118034 -0.296506 1.000231 -0.580908 0.790569 -0.790569 
C 0.580908 -1.000231 0.296506 -1.118034 0 -1.118034 
C -0.296506 -1.118034 -0.580908 -1.000231 -0.790569 -0.790569 
C -1.000231 -0.580908 -1.118034 -0.296506 -1.118034 0 
C -1.118034 0.296506 -1.000231 0.580908 -0.790569 0.790569 
C -0.580908 1.000231 -0.296506 1.118034 0 1.118034 
z
" style="stroke: #1f77b4"/>
    </defs>
    <g clip-path="url(#p229b0c632c)">
     <use xlink:href="#m53cd0189f0" x="89.970147" y="280.79597" style="fill: #1f77b4; stroke: #1f77b4"/>
     <use xlink:href="#m53cd0189f0" x="139.140663" y="213.988693" style="fill: #1f77b4; stroke: #1f77b4"/>
     <use xlink:href="#m53cd0189f0" x="97.201106" y="202.854147" style="fill: #1f77b4; stroke: #1f77b4"/>
     <use xlink:href="#m53cd0189f0" x="82.739189" y="291.93051" style="fill: #1f77b4; stroke: #1f77b4"/>
     <use xlink:href="#m53cd0189f0" x="105.15516" y="268.547972" style="fill: #1f77b4; stroke: #1f77b4"/>
     <use xlink:href="#m53cd0189f0" x="146.371622" y="191.719601" style="fill: #1f77b4; stroke: #1f77b4"/>
     <use xlink:href="#m53cd0189f0" x="104.432064" y="180.585054" style="fill: #1f77b4; stroke: #1f77b4"/>
     <use xlink:href="#m53cd0189f0" x="153.60258" y="169.450508" style="fill: #1f77b4; stroke: #1f77b4"/>
     <use xlink:href="#m53cd0189f0" x="111.663022" y="158.368922" style="fill: #1f77b4; stroke: #1f77b4"/>
     <use xlink:href="#m53cd0189f0" x="175.295455" y="101.519491" style="fill: #1f77b4; stroke: #1f77b4"/>
     <use xlink:href="#m53cd0189f0" x="175.295455" y="169.450508" style="fill: #1f77b4; stroke: #1f77b4"/>
     <use xlink:href="#m53cd0189f0" x="169.510688" y="180.601827" style="fill: #1f77b4; stroke: #1f77b4"/>
     <use xlink:href="#m53cd0189f0" x="82.739189" y="303.081818" style="fill: #1f77b4; stroke: #1f77b4"/>
     <use xlink:href="#m53cd0189f0" x="165.895209" y="190.622918" style="fill: #1f77b4; stroke: #1f77b4"/>
     <use xlink:href="#m53cd0189f0" x="162.27973" y="191.736375" style="fill: #1f77b4; stroke: #1f77b4"/>
     <use xlink:href="#m53cd0189f0" x="68.277273" y="191.736375" style="fill: #1f77b4; stroke: #1f77b4"/>
     <use xlink:href="#m53cd0189f0" x="123.232555" y="240.728375" style="fill: #1f77b4; stroke: #1f77b4"/>
     <use xlink:href="#m53cd0189f0" x="212.896437" y="152.76875" style="fill: #1f77b4; stroke: #1f77b4"/>
     <use xlink:href="#m53cd0189f0" x="130.463514" y="229.59383" style="fill: #1f77b4; stroke: #1f77b4"/>
     <use xlink:href="#m53cd0189f0" x="204.219287" y="147.198188" style="fill: #1f77b4; stroke: #1f77b4"/>
     <use xlink:href="#m53cd0189f0" x="213.619533" y="121.588732" style="fill: #1f77b4; stroke: #1f77b4"/>
     <use xlink:href="#m53cd0189f0" x="225.912162" y="69.256364" style="fill: #1f77b4; stroke: #1f77b4"/>
     <use xlink:href="#m53cd0189f0" x="251.220516" y="52.554545" style="fill: #1f77b4; stroke: #1f77b4"/>
     <use xlink:href="#m53cd0189f0" x="82.739189" y="303.081818" style="fill: #1f77b4; stroke: #1f77b4"/>
     <use xlink:href="#m53cd0189f0" x="210.004054" y="138.290551" style="fill: #1f77b4; stroke: #1f77b4"/>
     <use xlink:href="#m53cd0189f0" x="82.739189" y="303.081818" style="fill: #1f77b4; stroke: #1f77b4"/>
     <use xlink:href="#m53cd0189f0" x="82.739189" y="303.081818" style="fill: #1f77b4; stroke: #1f77b4"/>
     <use xlink:href="#m53cd0189f0" x="90.693243" y="290.833844" style="fill: #1f77b4; stroke: #1f77b4"/>
     <use xlink:href="#m53cd0189f0" x="207.111671" y="142.744369" style="fill: #1f77b4; stroke: #1f77b4"/>
     <use xlink:href="#m53cd0189f0" x="241.82027" y="67.029455" style="fill: #1f77b4; stroke: #1f77b4"/>
     <use xlink:href="#m53cd0189f0" x="254.835995" y="46.987272" style="fill: #1f77b4; stroke: #1f77b4"/>
     <use xlink:href="#m53cd0189f0" x="196.988329" y="158.332734" style="fill: #1f77b4; stroke: #1f77b4"/>
     <use xlink:href="#m53cd0189f0" x="186.141892" y="143.857824" style="fill: #1f77b4; stroke: #1f77b4"/>
     <use xlink:href="#m53cd0189f0" x="263.513145" y="55.895212" style="fill: #1f77b4; stroke: #1f77b4"/>
     <use xlink:href="#m53cd0189f0" x="335.822727" y="24.718182" style="fill: #1f77b4; stroke: #1f77b4"/>
    </g>
   </g>
   <g id="matplotlib.axis_1">
    <g id="xtick_1">
     <g id="line2d_1">
      <defs>
       <path id="m9e0efb2080" d="M 0 0 
L 0 3.5 
" style="stroke: #888888; stroke-width: 0.8"/>
      </defs>
      <g>
       <use xlink:href="#m9e0efb2080" x="68.277273" y="317" style="fill: #888888; stroke: #888888; stroke-width: 0.8"/>
      </g>
     </g>
     <g id="text_1">
      <!-- 0 -->
      <g style="fill: #888888" transform="translate(65.027273 332.1) scale(0.1 -0.1)">
       <defs>
        <path id="B612-Regular-30" d="M 1920 -54 
Q 1648 -54 1421 50 
Q 1194 154 1013 333 
Q 832 512 696 752 
Q 560 992 469 1265 
Q 378 1539 333 1828 
Q 288 2118 288 2400 
Q 288 2688 326 2982 
Q 365 3277 448 3549 
Q 531 3821 660 4059 
Q 790 4298 971 4474 
Q 1152 4650 1387 4752 
Q 1622 4854 1920 4854 
Q 2192 4854 2419 4750 
Q 2646 4646 2827 4467 
Q 3008 4288 3144 4048 
Q 3280 3808 3371 3534 
Q 3462 3261 3507 2969 
Q 3552 2678 3552 2400 
Q 3552 2112 3513 1817 
Q 3475 1523 3392 1251 
Q 3309 979 3179 740 
Q 3050 502 2869 326 
Q 2688 150 2451 48 
Q 2214 -54 1920 -54 
z
M 950 2538 
Q 950 2352 963 2129 
Q 976 1907 1014 1681 
Q 1053 1456 1121 1245 
Q 1190 1034 1300 869 
Q 1411 704 1569 605 
Q 1728 506 1946 506 
Q 2141 506 2286 581 
Q 2432 656 2537 785 
Q 2643 915 2710 1086 
Q 2778 1258 2818 1453 
Q 2858 1648 2874 1856 
Q 2890 2064 2890 2262 
Q 2890 2448 2877 2670 
Q 2864 2893 2825 3117 
Q 2787 3341 2718 3553 
Q 2650 3766 2539 3929 
Q 2429 4093 2270 4192 
Q 2112 4291 1894 4291 
Q 1699 4291 1553 4216 
Q 1408 4141 1302 4013 
Q 1197 3885 1129 3712 
Q 1062 3539 1022 3344 
Q 982 3149 966 2942 
Q 950 2736 950 2538 
z
" transform="scale(0.015625)"/>
       </defs>
       <use xlink:href="#B612-Regular-30"/>
      </g>
     </g>
    </g>
    <g id="xtick_2">
     <g id="line2d_2">
      <g>
       <use xlink:href="#m9e0efb2080" x="104.432064" y="317" style="fill: #888888; stroke: #888888; stroke-width: 0.8"/>
      </g>
     </g>
     <g id="text_2">
      <!-- 50 -->
      <g style="fill: #888888" transform="translate(97.932064 332.1) scale(0.1 -0.1)">
       <defs>
        <path id="B612-Regular-35" d="M 1306 3142 
Q 1328 3155 1384 3184 
Q 1440 3213 1523 3241 
Q 1606 3270 1713 3291 
Q 1821 3312 1952 3312 
Q 2285 3312 2545 3208 
Q 2806 3104 2987 2923 
Q 3168 2742 3262 2499 
Q 3357 2256 3357 1981 
Q 3357 1658 3241 1384 
Q 3126 1110 2926 891 
Q 2726 672 2459 505 
Q 2192 339 1889 225 
Q 1587 112 1267 56 
Q 947 0 640 0 
L 640 512 
Q 880 518 1126 571 
Q 1373 624 1601 712 
Q 1830 800 2030 925 
Q 2230 1050 2379 1202 
Q 2528 1354 2614 1533 
Q 2701 1712 2701 1914 
Q 2701 2077 2648 2230 
Q 2595 2384 2491 2504 
Q 2387 2624 2230 2697 
Q 2074 2771 1866 2771 
Q 1702 2771 1571 2750 
Q 1440 2730 1336 2699 
Q 1232 2669 1158 2630 
Q 1085 2592 1037 2560 
L 640 2560 
L 640 4800 
L 3050 4800 
L 3050 4288 
L 1306 4288 
L 1306 3142 
z
" transform="scale(0.015625)"/>
       </defs>
       <use xlink:href="#B612-Regular-35"/>
       <use xlink:href="#B612-Regular-30" x="65.000015"/>
      </g>
     </g>
    </g>
    <g id="xtick_3">
     <g id="line2d_3">
      <g>
       <use xlink:href="#m9e0efb2080" x="140.586855" y="317" style="fill: #888888; stroke: #888888; stroke-width: 0.8"/>
      </g>
     </g>
     <g id="text_3">
      <!-- 100 -->
      <g style="fill: #888888" transform="translate(130.836855 332.1) scale(0.1 -0.1)">
       <defs>
        <path id="B612-Regular-31" d="M 1120 0 
L 1120 512 
L 1904 512 
L 1904 3603 
L 2090 4330 
L 1654 3734 
L 976 3133 
L 630 3520 
L 2096 4864 
L 2576 4800 
L 2576 512 
L 3360 512 
L 3360 0 
L 1120 0 
z
" transform="scale(0.015625)"/>
       </defs>
       <use xlink:href="#B612-Regular-31"/>
       <use xlink:href="#B612-Regular-30" x="65.000015"/>
       <use xlink:href="#B612-Regular-30" x="130.000031"/>
      </g>
     </g>
    </g>
    <g id="xtick_4">
     <g id="line2d_4">
      <g>
       <use xlink:href="#m9e0efb2080" x="176.741646" y="317" style="fill: #888888; stroke: #888888; stroke-width: 0.8"/>
      </g>
     </g>
     <g id="text_4">
      <!-- 150 -->
      <g style="fill: #888888" transform="translate(166.991646 332.1) scale(0.1 -0.1)">
       <use xlink:href="#B612-Regular-31"/>
       <use xlink:href="#B612-Regular-35" x="65.000015"/>
       <use xlink:href="#B612-Regular-30" x="130.000031"/>
      </g>
     </g>
    </g>
    <g id="xtick_5">
     <g id="line2d_5">
      <g>
       <use xlink:href="#m9e0efb2080" x="212.896437" y="317" style="fill: #888888; stroke: #888888; stroke-width: 0.8"/>
      </g>
     </g>
     <g id="text_5">
      <!-- 200 -->
      <g style="fill: #888888" transform="translate(203.146437 332.1) scale(0.1 -0.1)">
       <defs>
        <path id="B612-Regular-32" d="M 486 0 
L 486 538 
Q 640 781 817 1016 
Q 995 1251 1176 1470 
Q 1357 1690 1533 1886 
Q 1709 2083 1856 2246 
Q 2019 2426 2166 2584 
Q 2314 2742 2426 2899 
Q 2538 3056 2605 3217 
Q 2672 3379 2672 3568 
Q 2672 3722 2614 3858 
Q 2557 3994 2453 4094 
Q 2349 4195 2205 4254 
Q 2061 4314 1888 4314 
Q 1693 4314 1550 4261 
Q 1408 4208 1301 4121 
Q 1194 4035 1115 3928 
Q 1037 3821 970 3712 
L 518 3904 
Q 602 4112 731 4286 
Q 861 4461 1037 4587 
Q 1213 4714 1437 4784 
Q 1661 4854 1936 4854 
Q 2259 4854 2512 4739 
Q 2765 4624 2939 4437 
Q 3114 4250 3205 4013 
Q 3296 3776 3296 3533 
Q 3296 3286 3205 3064 
Q 3114 2842 2978 2642 
Q 2842 2442 2685 2266 
Q 2528 2090 2397 1936 
Q 2230 1741 2064 1552 
Q 1898 1363 1746 1182 
Q 1594 1002 1462 834 
Q 1331 666 1235 512 
L 3379 512 
L 3379 0 
L 486 0 
z
" transform="scale(0.015625)"/>
       </defs>
       <use xlink:href="#B612-Regular-32"/>
       <use xlink:href="#B612-Regular-30" x="65.000015"/>
       <use xlink:href="#B612-Regular-30" x="130.000031"/>
      </g>
     </g>
    </g>
    <g id="xtick_6">
     <g id="line2d_6">
      <g>
       <use xlink:href="#m9e0efb2080" x="249.051229" y="317" style="fill: #888888; stroke: #888888; stroke-width: 0.8"/>
      </g>
     </g>
     <g id="text_6">
      <!-- 250 -->
      <g style="fill: #888888" transform="translate(239.301229 332.1) scale(0.1 -0.1)">
       <use xlink:href="#B612-Regular-32"/>
       <use xlink:href="#B612-Regular-35" x="65.000015"/>
       <use xlink:href="#B612-Regular-30" x="130.000031"/>
      </g>
     </g>
    </g>
    <g id="xtick_7">
     <g id="line2d_7">
      <g>
       <use xlink:href="#m9e0efb2080" x="285.20602" y="317" style="fill: #888888; stroke: #888888; stroke-width: 0.8"/>
      </g>
     </g>
     <g id="text_7">
      <!-- 300 -->
      <g style="fill: #888888" transform="translate(275.45602 332.1) scale(0.1 -0.1)">
       <defs>
        <path id="B612-Regular-33" d="M 688 4288 
L 736 4800 
L 3072 4800 
L 3072 4352 
Q 3034 4224 2942 4085 
Q 2851 3946 2728 3805 
Q 2605 3664 2459 3525 
Q 2314 3386 2166 3261 
L 1744 3024 
Q 1776 3030 1825 3032 
Q 1875 3034 1920 3034 
Q 2230 3034 2497 2957 
Q 2765 2880 2961 2725 
Q 3158 2570 3272 2331 
Q 3386 2093 3386 1770 
Q 3386 1459 3270 1206 
Q 3155 954 2955 757 
Q 2755 560 2486 417 
Q 2218 275 1912 182 
Q 1606 90 1280 45 
Q 954 0 640 0 
L 640 512 
Q 906 522 1162 560 
Q 1418 598 1648 667 
Q 1878 736 2073 835 
Q 2269 934 2411 1067 
Q 2554 1200 2634 1366 
Q 2714 1533 2714 1738 
Q 2714 1968 2616 2121 
Q 2518 2275 2348 2364 
Q 2179 2454 1950 2491 
Q 1722 2528 1459 2528 
Q 1357 2528 1237 2523 
Q 1117 2518 1021 2512 
L 1021 3008 
Q 1152 3104 1305 3225 
Q 1459 3347 1616 3480 
Q 1773 3613 1921 3749 
Q 2070 3885 2192 4008 
Q 2314 4131 2397 4236 
Q 2480 4342 2506 4416 
L 2019 4288 
L 688 4288 
z
" transform="scale(0.015625)"/>
       </defs>
       <use xlink:href="#B612-Regular-33"/>
       <use xlink:href="#B612-Regular-30" x="65.000015"/>
       <use xlink:href="#B612-Regular-30" x="130.000031"/>
      </g>
     </g>
    </g>
    <g id="xtick_8">
     <g id="line2d_8">
      <g>
       <use xlink:href="#m9e0efb2080" x="321.360811" y="317" style="fill: #888888; stroke: #888888; stroke-width: 0.8"/>
      </g>
     </g>
     <g id="text_8">
      <!-- 350 -->
      <g style="fill: #888888" transform="translate(311.610811 332.1) scale(0.1 -0.1)">
       <use xlink:href="#B612-Regular-33"/>
       <use xlink:href="#B612-Regular-35" x="65.000015"/>
       <use xlink:href="#B612-Regular-30" x="130.000031"/>
      </g>
     </g>
    </g>
    <g id="text_9">
     <!-- fleet limit (slots + pax_ac) -->
     <g style="fill: #888888" transform="translate(137.55 346.7) scale(0.1 -0.1)">
      <defs>
       <path id="B612-Regular-66" d="M 160 3520 
L 640 3520 
L 640 4016 
Q 640 4288 699 4502 
Q 758 4717 886 4865 
Q 1014 5014 1214 5094 
Q 1414 5174 1696 5174 
Q 1840 5174 1960 5150 
Q 2080 5126 2181 5088 
Q 2282 5050 2366 4998 
Q 2451 4947 2518 4893 
L 2246 4515 
Q 2179 4563 2060 4612 
Q 1942 4662 1798 4662 
Q 1523 4662 1377 4507 
Q 1232 4352 1232 3984 
L 1232 3520 
L 2160 3520 
L 2096 3008 
L 1248 3008 
L 1248 0 
L 640 0 
L 640 3008 
L 160 3008 
L 160 3520 
z
" transform="scale(0.015625)"/>
       <path id="B612-Regular-6c" d="M 1248 1203 
Q 1248 992 1272 849 
Q 1296 707 1342 619 
Q 1389 531 1457 494 
Q 1526 458 1616 458 
Q 1686 458 1744 466 
Q 1802 474 1843 486 
Q 1891 499 1930 515 
L 2150 128 
Q 2125 102 2069 72 
Q 2013 42 1936 13 
Q 1859 -16 1761 -35 
Q 1664 -54 1552 -54 
Q 1264 -54 1085 51 
Q 906 157 806 339 
Q 707 522 673 763 
Q 640 1005 640 1280 
L 640 4480 
L 576 5120 
L 1248 5184 
L 1248 1203 
z
" transform="scale(0.015625)"/>
       <path id="B612-Regular-65" d="M 3091 413 
Q 2992 310 2873 224 
Q 2755 138 2611 75 
Q 2467 13 2292 -20 
Q 2118 -54 1904 -54 
Q 1478 -54 1177 96 
Q 877 246 686 499 
Q 496 752 408 1078 
Q 320 1405 320 1760 
Q 320 1987 361 2209 
Q 403 2432 486 2633 
Q 570 2835 694 3008 
Q 819 3181 985 3305 
Q 1152 3430 1361 3502 
Q 1571 3574 1824 3574 
Q 2170 3574 2422 3462 
Q 2675 3350 2841 3148 
Q 3008 2947 3088 2665 
Q 3168 2384 3168 2042 
Q 3168 1942 3161 1824 
Q 3155 1706 3142 1600 
L 928 1600 
Q 928 1360 993 1152 
Q 1059 944 1177 789 
Q 1296 634 1464 546 
Q 1632 458 1840 458 
Q 2045 458 2197 488 
Q 2349 518 2457 561 
Q 2566 605 2635 649 
Q 2704 694 2742 720 
L 3091 413 
z
M 2560 2080 
Q 2563 2115 2564 2150 
Q 2566 2186 2566 2221 
Q 2566 2403 2524 2556 
Q 2483 2710 2398 2824 
Q 2314 2938 2182 3002 
Q 2051 3066 1872 3066 
Q 1658 3066 1506 2997 
Q 1354 2928 1250 2821 
Q 1146 2714 1083 2586 
Q 1021 2458 989 2342 
L 822 1994 
L 1392 2080 
L 2560 2080 
z
" transform="scale(0.015625)"/>
       <path id="B612-Regular-74" d="M 1248 1203 
Q 1248 992 1272 849 
Q 1296 707 1342 619 
Q 1389 531 1457 494 
Q 1526 458 1616 458 
Q 1686 458 1744 466 
Q 1802 474 1843 486 
Q 1891 499 1930 515 
L 2150 128 
Q 2125 102 2069 72 
Q 2013 42 1936 13 
Q 1859 -16 1761 -35 
Q 1664 -54 1552 -54 
Q 1264 -54 1085 51 
Q 906 157 806 339 
Q 707 522 673 763 
Q 640 1005 640 1280 
L 640 3008 
L 160 3008 
L 160 3520 
L 640 3520 
L 640 4189 
L 1232 4544 
L 1232 3520 
L 2320 3520 
L 2256 3008 
L 1248 3008 
L 1248 1203 
z
" transform="scale(0.015625)"/>
       <path id="B612-Regular-20" transform="scale(0.015625)"/>
       <path id="B612-Regular-69" d="M 1248 0 
L 640 0 
L 640 3376 
L 1248 3440 
L 1248 0 
z
M 621 4800 
L 1267 4800 
L 1267 4160 
L 621 4160 
L 621 4800 
z
" transform="scale(0.015625)"/>
       <path id="B612-Regular-6d" d="M 1248 0 
L 640 0 
L 640 3520 
L 1248 3584 
L 1248 2998 
L 1443 3341 
Q 1501 3379 1587 3420 
Q 1674 3462 1782 3496 
Q 1891 3530 2016 3552 
Q 2141 3574 2272 3574 
Q 2630 3574 2854 3400 
Q 3078 3226 3146 2954 
L 3389 3328 
Q 3501 3418 3705 3496 
Q 3910 3574 4176 3574 
Q 4419 3574 4592 3492 
Q 4765 3411 4875 3257 
Q 4986 3104 5037 2886 
Q 5088 2669 5088 2400 
L 5088 0 
L 4480 0 
L 4480 2368 
Q 4480 2541 4456 2670 
Q 4432 2800 4373 2888 
Q 4314 2976 4214 3019 
Q 4115 3062 3968 3062 
Q 3875 3062 3774 3030 
Q 3674 2998 3571 2945 
Q 3469 2893 3371 2824 
Q 3274 2755 3187 2685 
Q 3197 2592 3198 2529 
Q 3200 2467 3200 2368 
L 3200 0 
L 2592 0 
L 2592 2368 
Q 2592 2714 2477 2888 
Q 2362 3062 2064 3062 
Q 1968 3062 1859 3033 
Q 1750 3005 1643 2953 
Q 1536 2902 1433 2836 
Q 1331 2771 1248 2701 
L 1248 0 
z
" transform="scale(0.015625)"/>
       <path id="B612-Regular-28" d="M 640 3776 
Q 640 4061 669 4307 
Q 698 4554 795 4734 
Q 893 4915 1083 5017 
Q 1274 5120 1600 5120 
Q 1661 5120 1728 5115 
Q 1795 5110 1856 5100 
Q 1917 5091 1966 5075 
Q 2016 5059 2045 5040 
L 1824 4637 
Q 1805 4640 1779 4643 
Q 1757 4646 1728 4649 
Q 1699 4653 1664 4653 
Q 1523 4653 1444 4585 
Q 1366 4518 1329 4403 
Q 1293 4288 1286 4137 
Q 1280 3987 1280 3821 
L 1280 -45 
Q 1280 -211 1286 -361 
Q 1293 -512 1329 -627 
Q 1366 -742 1444 -809 
Q 1523 -877 1664 -877 
Q 1699 -877 1728 -875 
Q 1757 -874 1779 -870 
Q 1805 -867 1824 -861 
L 2045 -1264 
Q 2016 -1283 1966 -1299 
Q 1917 -1315 1856 -1324 
Q 1795 -1334 1728 -1339 
Q 1661 -1344 1600 -1344 
Q 1274 -1344 1083 -1241 
Q 893 -1139 795 -958 
Q 698 -778 669 -531 
Q 640 -285 640 0 
L 640 3776 
z
" transform="scale(0.015625)"/>
       <path id="B612-Regular-73" d="M 2115 2941 
Q 2058 2970 1978 2998 
Q 1898 3027 1811 3049 
Q 1725 3072 1637 3085 
Q 1549 3098 1469 3098 
Q 1130 3098 989 2997 
Q 848 2896 848 2694 
Q 848 2560 941 2472 
Q 1034 2384 1181 2313 
Q 1328 2243 1509 2180 
Q 1690 2118 1862 2032 
Q 1987 1971 2115 1888 
Q 2243 1805 2345 1693 
Q 2448 1581 2512 1440 
Q 2576 1299 2576 1123 
Q 2576 800 2467 576 
Q 2358 352 2171 213 
Q 1984 74 1733 10 
Q 1482 -54 1197 -54 
Q 1088 -54 950 -33 
Q 813 -13 675 24 
Q 538 61 413 112 
Q 288 163 205 221 
L 416 643 
Q 493 605 598 571 
Q 704 538 816 512 
Q 928 486 1038 472 
Q 1149 458 1235 458 
Q 1382 458 1518 488 
Q 1654 518 1758 585 
Q 1862 653 1924 760 
Q 1987 867 1987 1024 
Q 1987 1142 1937 1232 
Q 1888 1322 1803 1390 
Q 1718 1459 1606 1516 
Q 1494 1574 1369 1627 
Q 1245 1680 1113 1736 
Q 982 1792 864 1859 
Q 752 1923 648 2000 
Q 544 2077 464 2173 
Q 384 2269 336 2389 
Q 288 2509 288 2662 
Q 288 2906 374 3080 
Q 461 3254 617 3363 
Q 774 3472 995 3523 
Q 1216 3574 1482 3574 
Q 1603 3574 1721 3555 
Q 1840 3536 1949 3505 
Q 2058 3475 2147 3433 
Q 2237 3392 2301 3350 
L 2115 2941 
z
" transform="scale(0.015625)"/>
       <path id="B612-Regular-6f" d="M 1917 -54 
Q 1562 -54 1269 85 
Q 976 224 765 469 
Q 554 714 437 1048 
Q 320 1382 320 1770 
Q 320 2157 432 2488 
Q 544 2819 752 3060 
Q 960 3302 1256 3438 
Q 1552 3574 1917 3574 
Q 2272 3574 2566 3438 
Q 2861 3302 3072 3060 
Q 3283 2819 3401 2488 
Q 3520 2157 3520 1770 
Q 3520 1382 3406 1048 
Q 3293 714 3085 469 
Q 2877 224 2579 85 
Q 2282 -54 1917 -54 
z
M 2912 1683 
Q 2912 1942 2856 2192 
Q 2800 2442 2678 2638 
Q 2557 2835 2365 2956 
Q 2173 3078 1904 3078 
Q 1648 3078 1462 2972 
Q 1277 2867 1158 2691 
Q 1040 2515 984 2291 
Q 928 2067 928 1830 
Q 928 1571 984 1321 
Q 1040 1072 1160 877 
Q 1280 682 1470 562 
Q 1661 442 1930 442 
Q 2182 442 2368 547 
Q 2554 653 2675 827 
Q 2797 1002 2854 1226 
Q 2912 1450 2912 1683 
z
" transform="scale(0.015625)"/>
       <path id="B612-Regular-2b" d="M 320 2240 
L 1514 2240 
L 1514 3587 
L 2010 3587 
L 2010 2240 
L 3200 2240 
L 3200 1744 
L 2010 1744 
L 2010 390 
L 1514 390 
L 1514 1744 
L 320 1744 
L 320 2240 
z
" transform="scale(0.015625)"/>
       <path id="B612-Regular-70" d="M 1248 512 
L 1773 512 
Q 2067 512 2283 609 
Q 2499 707 2638 883 
Q 2778 1059 2845 1305 
Q 2912 1552 2912 1850 
Q 2912 2163 2851 2392 
Q 2790 2621 2684 2769 
Q 2579 2918 2440 2990 
Q 2301 3062 2144 3062 
Q 1987 3062 1851 3022 
Q 1715 2982 1601 2921 
Q 1488 2861 1398 2787 
Q 1309 2714 1248 2646 
L 1248 512 
z
M 640 -1600 
L 640 3520 
L 1248 3584 
L 1248 3021 
L 1552 3427 
Q 1645 3482 1816 3528 
Q 1987 3574 2237 3574 
Q 2502 3574 2736 3449 
Q 2970 3325 3144 3094 
Q 3318 2864 3419 2537 
Q 3520 2211 3520 1808 
Q 3520 1414 3392 1083 
Q 3264 752 3029 510 
Q 2794 269 2459 134 
Q 2125 0 1712 0 
L 1248 0 
L 1248 -1600 
L 640 -1600 
z
" transform="scale(0.015625)"/>
       <path id="B612-Regular-61" d="M 2944 0 
L 2272 0 
L 2272 518 
L 1971 160 
Q 1917 118 1846 80 
Q 1776 42 1704 11 
Q 1632 -19 1560 -36 
Q 1488 -54 1427 -54 
Q 1187 -54 968 21 
Q 749 96 584 241 
Q 419 387 321 603 
Q 224 819 224 1101 
Q 224 1398 344 1617 
Q 464 1837 651 1982 
Q 838 2128 1068 2200 
Q 1299 2272 1520 2272 
Q 1702 2272 1841 2253 
Q 1981 2234 2077 2208 
Q 2189 2179 2272 2144 
L 2272 2256 
Q 2272 2445 2249 2595 
Q 2227 2746 2158 2850 
Q 2090 2954 1960 3008 
Q 1830 3062 1616 3062 
Q 1443 3062 1283 3038 
Q 1123 3014 998 2986 
Q 851 2950 726 2912 
L 496 3341 
Q 637 3405 816 3456 
Q 970 3501 1181 3537 
Q 1392 3574 1648 3574 
Q 2016 3574 2256 3475 
Q 2496 3376 2633 3197 
Q 2771 3018 2825 2766 
Q 2880 2515 2880 2208 
L 2880 576 
L 2944 0 
z
M 2272 1706 
Q 2182 1718 2080 1731 
Q 1994 1741 1882 1750 
Q 1770 1760 1648 1760 
Q 1469 1760 1320 1725 
Q 1171 1690 1062 1611 
Q 954 1533 893 1408 
Q 832 1283 832 1104 
Q 832 960 880 841 
Q 928 723 1011 636 
Q 1094 550 1208 504 
Q 1322 458 1453 458 
Q 1514 458 1582 475 
Q 1651 493 1720 521 
Q 1789 550 1857 588 
Q 1926 627 1987 666 
Q 2131 758 2272 877 
L 2272 1706 
z
" transform="scale(0.015625)"/>
       <path id="B612-Regular-78" d="M 2723 0 
L 1866 1222 
L 1722 1600 
L 1578 1222 
L 720 0 
L 83 0 
L 1402 1882 
L 256 3520 
L 931 3574 
L 1683 2499 
L 1808 2144 
L 1930 2499 
L 2650 3520 
L 3325 3574 
L 2128 1866 
L 3443 0 
L 2723 0 
z
" transform="scale(0.015625)"/>
       <path id="B612-Regular-5f" d="M 0 -960 
L 3520 -960 
L 3520 -1456 
L 0 -1456 
L 0 -960 
z
" transform="scale(0.015625)"/>
       <path id="B612-Regular-63" d="M 2582 2810 
Q 2458 2922 2286 2992 
Q 2115 3062 1933 3062 
Q 1664 3062 1475 2961 
Q 1286 2861 1169 2688 
Q 1053 2515 998 2286 
Q 944 2058 944 1805 
Q 944 1542 993 1304 
Q 1043 1066 1161 883 
Q 1280 701 1477 593 
Q 1674 486 1968 486 
Q 2214 486 2385 544 
Q 2557 602 2650 666 
L 2880 214 
Q 2701 93 2462 19 
Q 2224 -54 1923 -54 
Q 1523 -54 1222 104 
Q 922 262 722 526 
Q 522 790 421 1134 
Q 320 1478 320 1846 
Q 320 2179 417 2491 
Q 515 2803 715 3043 
Q 915 3283 1220 3428 
Q 1526 3574 1939 3574 
Q 2234 3574 2466 3483 
Q 2698 3392 2899 3171 
L 2582 2810 
z
" transform="scale(0.015625)"/>
       <path id="B612-Regular-29" d="M 2237 0 
Q 2237 -285 2208 -531 
Q 2179 -778 2081 -958 
Q 1984 -1139 1793 -1241 
Q 1603 -1344 1277 -1344 
Q 1216 -1344 1149 -1339 
Q 1082 -1334 1021 -1324 
Q 960 -1315 910 -1299 
Q 861 -1283 832 -1264 
L 1053 -861 
Q 1072 -867 1098 -870 
Q 1120 -874 1149 -875 
Q 1178 -877 1213 -877 
Q 1354 -877 1432 -809 
Q 1510 -742 1547 -627 
Q 1584 -512 1590 -361 
Q 1597 -211 1597 -45 
L 1597 3821 
Q 1597 3987 1590 4137 
Q 1584 4288 1547 4403 
Q 1510 4518 1432 4585 
Q 1354 4653 1213 4653 
Q 1178 4653 1149 4649 
Q 1120 4646 1098 4643 
Q 1072 4640 1053 4637 
L 832 5040 
Q 861 5059 910 5075 
Q 960 5091 1021 5100 
Q 1082 5110 1149 5115 
Q 1216 5120 1277 5120 
Q 1603 5120 1793 5017 
Q 1984 4915 2081 4734 
Q 2179 4554 2208 4307 
Q 2237 4061 2237 3776 
L 2237 0 
z
" transform="scale(0.015625)"/>
      </defs>
      <use xlink:href="#B612-Regular-66"/>
      <use xlink:href="#B612-Regular-6c" x="40"/>
      <use xlink:href="#B612-Regular-65" x="75"/>
      <use xlink:href="#B612-Regular-65" x="130"/>
      <use xlink:href="#B612-Regular-74" x="185"/>
      <use xlink:href="#B612-Regular-20" x="225"/>
      <use xlink:href="#B612-Regular-6c" x="260"/>
      <use xlink:href="#B612-Regular-69" x="295"/>
      <use xlink:href="#B612-Regular-6d" x="325"/>
      <use xlink:href="#B612-Regular-69" x="415.000015"/>
      <use xlink:href="#B612-Regular-74" x="445.000015"/>
      <use xlink:href="#B612-Regular-20" x="485.000015"/>
      <use xlink:href="#B612-Regular-28" x="520.000015"/>
      <use xlink:href="#B612-Regular-73" x="565.000015"/>
      <use xlink:href="#B612-Regular-6c" x="610.000015"/>
      <use xlink:href="#B612-Regular-6f" x="645.000015"/>
      <use xlink:href="#B612-Regular-74" x="705.000031"/>
      <use xlink:href="#B612-Regular-73" x="745.000031"/>
      <use xlink:href="#B612-Regular-20" x="790.000031"/>
      <use xlink:href="#B612-Regular-2b" x="825.000031"/>
      <use xlink:href="#B612-Regular-20" x="885.000046"/>
      <use xlink:href="#B612-Regular-70" x="920.000046"/>
      <use xlink:href="#B612-Regular-61" x="980.000061"/>
      <use xlink:href="#B612-Regular-78" x="1032.500061"/>
      <use xlink:href="#B612-Regular-5f" x="1087.500061"/>
      <use xlink:href="#B612-Regular-61" x="1142.500061"/>
      <use xlink:href="#B612-Regular-63" x="1195.000061"/>
      <use xlink:href="#B612-Regular-29" x="1245.000061"/>
     </g>
    </g>
   </g>
   <g id="matplotlib.axis_2">
    <g id="ytick_1">
     <g id="line2d_9">
      <defs>
       <path id="m7ef2a7b43e" d="M 0 0 
L -3.5 0 
" style="stroke: #888888; stroke-width: 0.8"/>
      </defs>
      <g>
       <use xlink:href="#m7ef2a7b43e" x="54.9" y="275.898834" style="fill: #888888; stroke: #888888; stroke-width: 0.8"/>
      </g>
     </g>
     <g id="text_10">
      <!-- $\mathdefault{10^{6}}$ -->
      <g style="fill: #888888" transform="translate(29.9 279.948834) scale(0.1 -0.1)">
       <defs>
        <path id="B612-Regular-36" d="M 2973 4301 
Q 2950 4307 2907 4308 
Q 2864 4310 2829 4310 
Q 2598 4310 2380 4238 
Q 2163 4166 1971 4035 
Q 1779 3904 1617 3721 
Q 1456 3539 1333 3320 
Q 1210 3101 1130 2851 
Q 1050 2602 1024 2336 
L 1290 2710 
Q 1370 2762 1477 2808 
Q 1584 2854 1702 2889 
Q 1821 2925 1942 2945 
Q 2064 2966 2173 2966 
Q 2451 2966 2708 2889 
Q 2966 2813 3166 2653 
Q 3366 2493 3486 2241 
Q 3606 1990 3606 1642 
Q 3606 1296 3489 987 
Q 3373 678 3161 446 
Q 2950 214 2656 80 
Q 2362 -54 2003 -54 
Q 1690 -54 1448 46 
Q 1206 147 1027 313 
Q 848 480 728 694 
Q 608 909 533 1134 
Q 458 1360 426 1581 
Q 394 1802 394 1984 
Q 394 2365 472 2726 
Q 550 3088 699 3406 
Q 848 3725 1062 3992 
Q 1277 4259 1550 4449 
Q 1824 4640 2152 4747 
Q 2480 4854 2858 4854 
Q 2906 4854 2963 4852 
Q 3021 4851 3053 4845 
L 2973 4301 
z
M 1053 1910 
Q 1053 1821 1054 1747 
Q 1056 1674 1064 1603 
Q 1072 1533 1085 1461 
Q 1098 1389 1120 1302 
Q 1165 1120 1241 971 
Q 1318 822 1428 715 
Q 1539 608 1684 549 
Q 1830 490 2013 490 
Q 2266 490 2443 586 
Q 2621 682 2733 840 
Q 2845 998 2897 1200 
Q 2950 1402 2950 1610 
Q 2950 1811 2891 1964 
Q 2832 2118 2723 2219 
Q 2614 2320 2462 2371 
Q 2310 2422 2125 2422 
Q 1952 2422 1789 2380 
Q 1626 2339 1483 2268 
Q 1341 2198 1230 2105 
Q 1120 2013 1053 1910 
z
" transform="scale(0.015625)"/>
       </defs>
       <use xlink:href="#B612-Regular-31" transform="translate(0 0.81875)"/>
       <use xlink:href="#B612-Regular-30" transform="translate(65.000015 0.81875)"/>
       <use xlink:href="#B612-Regular-36" transform="translate(130.977296 39.909375) scale(0.7)"/>
      </g>
     </g>
    </g>
    <g id="ytick_2">
     <g id="line2d_10">
      <g>
       <use xlink:href="#m7ef2a7b43e" x="54.9" y="230.220137" style="fill: #888888; stroke: #888888; stroke-width: 0.8"/>
      </g>
     </g>
     <g id="text_11">
      <!-- $\mathdefault{10^{7}}$ -->
      <g style="fill: #888888" transform="translate(29.9 234.270137) scale(0.1 -0.1)">
       <defs>
        <path id="B612-Regular-37" d="M 640 4800 
L 3520 4800 
L 3520 4384 
Q 3520 4246 3416 4030 
Q 3312 3814 3152 3545 
Q 2992 3277 2803 2968 
Q 2614 2659 2441 2334 
Q 2269 2010 2141 1683 
Q 2013 1357 1978 1053 
Q 1962 922 1954 782 
Q 1946 643 1941 505 
Q 1936 368 1936 237 
L 1936 0 
L 1280 0 
Q 1280 96 1281 257 
Q 1283 419 1289 598 
Q 1296 778 1310 954 
Q 1325 1130 1350 1254 
Q 1424 1597 1561 1928 
Q 1699 2259 1860 2564 
Q 2022 2870 2192 3142 
Q 2362 3414 2499 3636 
Q 2637 3859 2725 4025 
Q 2813 4192 2813 4288 
L 640 4288 
L 640 4800 
z
" transform="scale(0.015625)"/>
       </defs>
       <use xlink:href="#B612-Regular-31" transform="translate(0 0.409375)"/>
       <use xlink:href="#B612-Regular-30" transform="translate(65.000015 0.409375)"/>
       <use xlink:href="#B612-Regular-37" transform="translate(130.977296 39.5) scale(0.7)"/>
      </g>
     </g>
    </g>
    <g id="ytick_3">
     <g id="line2d_11">
      <g>
       <use xlink:href="#m7ef2a7b43e" x="54.9" y="184.54144" style="fill: #888888; stroke: #888888; stroke-width: 0.8"/>
      </g>
     </g>
     <g id="text_12">
      <!-- $\mathdefault{10^{8}}$ -->
      <g style="fill: #888888" transform="translate(29.9 188.59144) scale(0.1 -0.1)">
       <defs>
        <path id="B612-Regular-38" d="M 1955 4854 
Q 2246 4854 2496 4774 
Q 2746 4694 2926 4544 
Q 3107 4394 3209 4179 
Q 3312 3965 3312 3696 
Q 3312 3507 3256 3360 
Q 3200 3213 3104 3096 
Q 3008 2979 2881 2884 
Q 2755 2790 2614 2707 
Q 2851 2602 3038 2466 
Q 3226 2330 3355 2158 
Q 3485 1987 3553 1776 
Q 3622 1565 3622 1312 
Q 3622 957 3481 699 
Q 3341 442 3109 274 
Q 2877 106 2581 26 
Q 2285 -54 1974 -54 
Q 1670 -54 1388 37 
Q 1107 128 891 305 
Q 675 483 544 747 
Q 413 1011 413 1357 
Q 413 1613 486 1821 
Q 560 2029 688 2195 
Q 816 2362 992 2491 
Q 1168 2621 1373 2720 
Q 1222 2813 1092 2912 
Q 963 3011 865 3124 
Q 768 3238 712 3369 
Q 656 3501 656 3661 
Q 656 3971 779 4196 
Q 902 4422 1094 4568 
Q 1286 4714 1515 4784 
Q 1744 4854 1955 4854 
z
M 1920 2432 
Q 1718 2346 1556 2242 
Q 1395 2138 1281 2005 
Q 1168 1872 1105 1705 
Q 1043 1539 1043 1325 
Q 1043 1133 1121 976 
Q 1200 819 1329 705 
Q 1459 592 1628 531 
Q 1798 470 1978 470 
Q 2182 470 2366 526 
Q 2550 582 2689 691 
Q 2829 800 2909 960 
Q 2989 1120 2989 1328 
Q 2989 1542 2894 1710 
Q 2800 1878 2648 2011 
Q 2496 2144 2305 2246 
Q 2115 2349 1920 2432 
z
M 2051 2954 
Q 2346 3085 2520 3270 
Q 2694 3456 2694 3722 
Q 2694 3882 2628 3997 
Q 2563 4112 2464 4185 
Q 2365 4259 2245 4292 
Q 2125 4326 2016 4326 
Q 1872 4326 1737 4283 
Q 1603 4240 1500 4160 
Q 1398 4080 1336 3971 
Q 1274 3862 1274 3734 
Q 1274 3587 1336 3473 
Q 1398 3360 1505 3269 
Q 1613 3178 1753 3101 
Q 1894 3024 2051 2954 
z
" transform="scale(0.015625)"/>
       </defs>
       <use xlink:href="#B612-Regular-31" transform="translate(0 0.81875)"/>
       <use xlink:href="#B612-Regular-30" transform="translate(65.000015 0.81875)"/>
       <use xlink:href="#B612-Regular-38" transform="translate(130.977296 39.909375) scale(0.7)"/>
      </g>
     </g>
    </g>
    <g id="ytick_4">
     <g id="line2d_12">
      <g>
       <use xlink:href="#m7ef2a7b43e" x="54.9" y="138.862743" style="fill: #888888; stroke: #888888; stroke-width: 0.8"/>
      </g>
     </g>
     <g id="text_13">
      <!-- $\mathdefault{10^{9}}$ -->
      <g style="fill: #888888" transform="translate(29.9 142.912743) scale(0.1 -0.1)">
       <defs>
        <path id="B612-Regular-39" d="M 2714 2122 
Q 2525 1974 2334 1904 
Q 2144 1834 1904 1834 
Q 1590 1834 1318 1938 
Q 1046 2042 844 2234 
Q 643 2426 528 2696 
Q 413 2966 413 3299 
Q 413 3645 523 3929 
Q 634 4214 837 4420 
Q 1040 4627 1329 4740 
Q 1619 4854 1978 4854 
Q 2298 4854 2542 4755 
Q 2787 4656 2966 4493 
Q 3146 4330 3266 4118 
Q 3386 3907 3458 3680 
Q 3530 3453 3560 3229 
Q 3590 3005 3590 2816 
Q 3590 2442 3515 2090 
Q 3440 1738 3294 1424 
Q 3149 1110 2937 846 
Q 2726 582 2456 388 
Q 2186 195 1858 78 
Q 1530 -38 1155 -54 
L 1056 480 
Q 1440 499 1777 662 
Q 2115 826 2372 1096 
Q 2630 1366 2788 1726 
Q 2947 2086 2970 2496 
L 2714 2122 
z
M 2931 3050 
Q 2922 3290 2861 3515 
Q 2800 3741 2688 3918 
Q 2576 4096 2405 4203 
Q 2234 4310 2003 4310 
Q 1786 4310 1613 4240 
Q 1440 4170 1318 4045 
Q 1197 3920 1131 3744 
Q 1066 3568 1066 3357 
Q 1066 3149 1118 2969 
Q 1171 2790 1278 2659 
Q 1386 2528 1550 2453 
Q 1715 2378 1936 2378 
Q 2106 2378 2261 2432 
Q 2416 2486 2545 2577 
Q 2675 2669 2774 2790 
Q 2874 2912 2931 3050 
z
" transform="scale(0.015625)"/>
       </defs>
       <use xlink:href="#B612-Regular-31" transform="translate(0 0.81875)"/>
       <use xlink:href="#B612-Regular-30" transform="translate(65.000015 0.81875)"/>
       <use xlink:href="#B612-Regular-39" transform="translate(130.977296 39.909375) scale(0.7)"/>
      </g>
     </g>
    </g>
    <g id="ytick_5">
     <g id="line2d_13">
      <g>
       <use xlink:href="#m7ef2a7b43e" x="54.9" y="93.184045" style="fill: #888888; stroke: #888888; stroke-width: 0.8"/>
      </g>
     </g>
     <g id="text_14">
      <!-- $\mathdefault{10^{10}}$ -->
      <g style="fill: #888888" transform="translate(25.4 97.234045) scale(0.1 -0.1)">
       <use xlink:href="#B612-Regular-31" transform="translate(0 0.709375)"/>
       <use xlink:href="#B612-Regular-30" transform="translate(65.000015 0.709375)"/>
       <use xlink:href="#B612-Regular-31" transform="translate(130.977296 39.8) scale(0.7)"/>
       <use xlink:href="#B612-Regular-30" transform="translate(176.477307 39.8) scale(0.7)"/>
      </g>
     </g>
    </g>
    <g id="ytick_6">
     <g id="line2d_14">
      <g>
       <use xlink:href="#m7ef2a7b43e" x="54.9" y="47.505348" style="fill: #888888; stroke: #888888; stroke-width: 0.8"/>
      </g>
     </g>
     <g id="text_15">
      <!-- $\mathdefault{10^{11}}$ -->
      <g style="fill: #888888" transform="translate(25.4 51.555348) scale(0.1 -0.1)">
       <use xlink:href="#B612-Regular-31" transform="translate(0 0.709375)"/>
       <use xlink:href="#B612-Regular-30" transform="translate(65.000015 0.709375)"/>
       <use xlink:href="#B612-Regular-31" transform="translate(130.977296 39.8) scale(0.7)"/>
       <use xlink:href="#B612-Regular-31" transform="translate(176.477307 39.8) scale(0.7)"/>
      </g>
     </g>
    </g>
    <g id="ytick_7">
     <g id="line2d_15">
      <defs>
       <path id="mb6b6d3dd74" d="M 0 0 
L -2 0 
" style="stroke: #888888; stroke-width: 0.6"/>
      </defs>
      <g>
       <use xlink:href="#mb6b6d3dd74" x="54.9" y="307.826873" style="fill: #888888; stroke: #888888; stroke-width: 0.6"/>
      </g>
     </g>
    </g>
    <g id="ytick_8">
     <g id="line2d_16">
      <g>
       <use xlink:href="#mb6b6d3dd74" x="54.9" y="299.783254" style="fill: #888888; stroke: #888888; stroke-width: 0.6"/>
      </g>
     </g>
    </g>
    <g id="ytick_9">
     <g id="line2d_17">
      <g>
       <use xlink:href="#mb6b6d3dd74" x="54.9" y="294.076215" style="fill: #888888; stroke: #888888; stroke-width: 0.6"/>
      </g>
     </g>
    </g>
    <g id="ytick_10">
     <g id="line2d_18">
      <g>
       <use xlink:href="#mb6b6d3dd74" x="54.9" y="289.649492" style="fill: #888888; stroke: #888888; stroke-width: 0.6"/>
      </g>
     </g>
    </g>
    <g id="ytick_11">
     <g id="line2d_19">
      <g>
       <use xlink:href="#mb6b6d3dd74" x="54.9" y="286.032596" style="fill: #888888; stroke: #888888; stroke-width: 0.6"/>
      </g>
     </g>
    </g>
    <g id="ytick_12">
     <g id="line2d_20">
      <g>
       <use xlink:href="#mb6b6d3dd74" x="54.9" y="282.974554" style="fill: #888888; stroke: #888888; stroke-width: 0.6"/>
      </g>
     </g>
    </g>
    <g id="ytick_13">
     <g id="line2d_21">
      <g>
       <use xlink:href="#mb6b6d3dd74" x="54.9" y="280.325557" style="fill: #888888; stroke: #888888; stroke-width: 0.6"/>
      </g>
     </g>
    </g>
    <g id="ytick_14">
     <g id="line2d_22">
      <g>
       <use xlink:href="#mb6b6d3dd74" x="54.9" y="277.988977" style="fill: #888888; stroke: #888888; stroke-width: 0.6"/>
      </g>
     </g>
    </g>
    <g id="ytick_15">
     <g id="line2d_23">
      <g>
       <use xlink:href="#mb6b6d3dd74" x="54.9" y="262.148176" style="fill: #888888; stroke: #888888; stroke-width: 0.6"/>
      </g>
     </g>
    </g>
    <g id="ytick_16">
     <g id="line2d_24">
      <g>
       <use xlink:href="#mb6b6d3dd74" x="54.9" y="254.104557" style="fill: #888888; stroke: #888888; stroke-width: 0.6"/>
      </g>
     </g>
    </g>
    <g id="ytick_17">
     <g id="line2d_25">
      <g>
       <use xlink:href="#mb6b6d3dd74" x="54.9" y="248.397518" style="fill: #888888; stroke: #888888; stroke-width: 0.6"/>
      </g>
     </g>
    </g>
    <g id="ytick_18">
     <g id="line2d_26">
      <g>
       <use xlink:href="#mb6b6d3dd74" x="54.9" y="243.970795" style="fill: #888888; stroke: #888888; stroke-width: 0.6"/>
      </g>
     </g>
    </g>
    <g id="ytick_19">
     <g id="line2d_27">
      <g>
       <use xlink:href="#mb6b6d3dd74" x="54.9" y="240.353899" style="fill: #888888; stroke: #888888; stroke-width: 0.6"/>
      </g>
     </g>
    </g>
    <g id="ytick_20">
     <g id="line2d_28">
      <g>
       <use xlink:href="#mb6b6d3dd74" x="54.9" y="237.295857" style="fill: #888888; stroke: #888888; stroke-width: 0.6"/>
      </g>
     </g>
    </g>
    <g id="ytick_21">
     <g id="line2d_29">
      <g>
       <use xlink:href="#mb6b6d3dd74" x="54.9" y="234.64686" style="fill: #888888; stroke: #888888; stroke-width: 0.6"/>
      </g>
     </g>
    </g>
    <g id="ytick_22">
     <g id="line2d_30">
      <g>
       <use xlink:href="#mb6b6d3dd74" x="54.9" y="232.310279" style="fill: #888888; stroke: #888888; stroke-width: 0.6"/>
      </g>
     </g>
    </g>
    <g id="ytick_23">
     <g id="line2d_31">
      <g>
       <use xlink:href="#mb6b6d3dd74" x="54.9" y="216.469479" style="fill: #888888; stroke: #888888; stroke-width: 0.6"/>
      </g>
     </g>
    </g>
    <g id="ytick_24">
     <g id="line2d_32">
      <g>
       <use xlink:href="#mb6b6d3dd74" x="54.9" y="208.42586" style="fill: #888888; stroke: #888888; stroke-width: 0.6"/>
      </g>
     </g>
    </g>
    <g id="ytick_25">
     <g id="line2d_33">
      <g>
       <use xlink:href="#mb6b6d3dd74" x="54.9" y="202.718821" style="fill: #888888; stroke: #888888; stroke-width: 0.6"/>
      </g>
     </g>
    </g>
    <g id="ytick_26">
     <g id="line2d_34">
      <g>
       <use xlink:href="#mb6b6d3dd74" x="54.9" y="198.292098" style="fill: #888888; stroke: #888888; stroke-width: 0.6"/>
      </g>
     </g>
    </g>
    <g id="ytick_27">
     <g id="line2d_35">
      <g>
       <use xlink:href="#mb6b6d3dd74" x="54.9" y="194.675202" style="fill: #888888; stroke: #888888; stroke-width: 0.6"/>
      </g>
     </g>
    </g>
    <g id="ytick_28">
     <g id="line2d_36">
      <g>
       <use xlink:href="#mb6b6d3dd74" x="54.9" y="191.617159" style="fill: #888888; stroke: #888888; stroke-width: 0.6"/>
      </g>
     </g>
    </g>
    <g id="ytick_29">
     <g id="line2d_37">
      <g>
       <use xlink:href="#mb6b6d3dd74" x="54.9" y="188.968163" style="fill: #888888; stroke: #888888; stroke-width: 0.6"/>
      </g>
     </g>
    </g>
    <g id="ytick_30">
     <g id="line2d_38">
      <g>
       <use xlink:href="#mb6b6d3dd74" x="54.9" y="186.631582" style="fill: #888888; stroke: #888888; stroke-width: 0.6"/>
      </g>
     </g>
    </g>
    <g id="ytick_31">
     <g id="line2d_39">
      <g>
       <use xlink:href="#mb6b6d3dd74" x="54.9" y="170.790782" style="fill: #888888; stroke: #888888; stroke-width: 0.6"/>
      </g>
     </g>
    </g>
    <g id="ytick_32">
     <g id="line2d_40">
      <g>
       <use xlink:href="#mb6b6d3dd74" x="54.9" y="162.747162" style="fill: #888888; stroke: #888888; stroke-width: 0.6"/>
      </g>
     </g>
    </g>
    <g id="ytick_33">
     <g id="line2d_41">
      <g>
       <use xlink:href="#mb6b6d3dd74" x="54.9" y="157.040124" style="fill: #888888; stroke: #888888; stroke-width: 0.6"/>
      </g>
     </g>
    </g>
    <g id="ytick_34">
     <g id="line2d_42">
      <g>
       <use xlink:href="#mb6b6d3dd74" x="54.9" y="152.613401" style="fill: #888888; stroke: #888888; stroke-width: 0.6"/>
      </g>
     </g>
    </g>
    <g id="ytick_35">
     <g id="line2d_43">
      <g>
       <use xlink:href="#mb6b6d3dd74" x="54.9" y="148.996504" style="fill: #888888; stroke: #888888; stroke-width: 0.6"/>
      </g>
     </g>
    </g>
    <g id="ytick_36">
     <g id="line2d_44">
      <g>
       <use xlink:href="#mb6b6d3dd74" x="54.9" y="145.938462" style="fill: #888888; stroke: #888888; stroke-width: 0.6"/>
      </g>
     </g>
    </g>
    <g id="ytick_37">
     <g id="line2d_45">
      <g>
       <use xlink:href="#mb6b6d3dd74" x="54.9" y="143.289466" style="fill: #888888; stroke: #888888; stroke-width: 0.6"/>
      </g>
     </g>
    </g>
    <g id="ytick_38">
     <g id="line2d_46">
      <g>
       <use xlink:href="#mb6b6d3dd74" x="54.9" y="140.952885" style="fill: #888888; stroke: #888888; stroke-width: 0.6"/>
      </g>
     </g>
    </g>
    <g id="ytick_39">
     <g id="line2d_47">
      <g>
       <use xlink:href="#mb6b6d3dd74" x="54.9" y="125.112085" style="fill: #888888; stroke: #888888; stroke-width: 0.6"/>
      </g>
     </g>
    </g>
    <g id="ytick_40">
     <g id="line2d_48">
      <g>
       <use xlink:href="#mb6b6d3dd74" x="54.9" y="117.068465" style="fill: #888888; stroke: #888888; stroke-width: 0.6"/>
      </g>
     </g>
    </g>
    <g id="ytick_41">
     <g id="line2d_49">
      <g>
       <use xlink:href="#mb6b6d3dd74" x="54.9" y="111.361427" style="fill: #888888; stroke: #888888; stroke-width: 0.6"/>
      </g>
     </g>
    </g>
    <g id="ytick_42">
     <g id="line2d_50">
      <g>
       <use xlink:href="#mb6b6d3dd74" x="54.9" y="106.934703" style="fill: #888888; stroke: #888888; stroke-width: 0.6"/>
      </g>
     </g>
    </g>
    <g id="ytick_43">
     <g id="line2d_51">
      <g>
       <use xlink:href="#mb6b6d3dd74" x="54.9" y="103.317807" style="fill: #888888; stroke: #888888; stroke-width: 0.6"/>
      </g>
     </g>
    </g>
    <g id="ytick_44">
     <g id="line2d_52">
      <g>
       <use xlink:href="#mb6b6d3dd74" x="54.9" y="100.259765" style="fill: #888888; stroke: #888888; stroke-width: 0.6"/>
      </g>
     </g>
    </g>
    <g id="ytick_45">
     <g id="line2d_53">
      <g>
       <use xlink:href="#mb6b6d3dd74" x="54.9" y="97.610769" style="fill: #888888; stroke: #888888; stroke-width: 0.6"/>
      </g>
     </g>
    </g>
    <g id="ytick_46">
     <g id="line2d_54">
      <g>
       <use xlink:href="#mb6b6d3dd74" x="54.9" y="95.274188" style="fill: #888888; stroke: #888888; stroke-width: 0.6"/>
      </g>
     </g>
    </g>
    <g id="ytick_47">
     <g id="line2d_55">
      <g>
       <use xlink:href="#mb6b6d3dd74" x="54.9" y="79.433387" style="fill: #888888; stroke: #888888; stroke-width: 0.6"/>
      </g>
     </g>
    </g>
    <g id="ytick_48">
     <g id="line2d_56">
      <g>
       <use xlink:href="#mb6b6d3dd74" x="54.9" y="71.389768" style="fill: #888888; stroke: #888888; stroke-width: 0.6"/>
      </g>
     </g>
    </g>
    <g id="ytick_49">
     <g id="line2d_57">
      <g>
       <use xlink:href="#mb6b6d3dd74" x="54.9" y="65.682729" style="fill: #888888; stroke: #888888; stroke-width: 0.6"/>
      </g>
     </g>
    </g>
    <g id="ytick_50">
     <g id="line2d_58">
      <g>
       <use xlink:href="#mb6b6d3dd74" x="54.9" y="61.256006" style="fill: #888888; stroke: #888888; stroke-width: 0.6"/>
      </g>
     </g>
    </g>
    <g id="ytick_51">
     <g id="line2d_59">
      <g>
       <use xlink:href="#mb6b6d3dd74" x="54.9" y="57.63911" style="fill: #888888; stroke: #888888; stroke-width: 0.6"/>
      </g>
     </g>
    </g>
    <g id="ytick_52">
     <g id="line2d_60">
      <g>
       <use xlink:href="#mb6b6d3dd74" x="54.9" y="54.581068" style="fill: #888888; stroke: #888888; stroke-width: 0.6"/>
      </g>
     </g>
    </g>
    <g id="ytick_53">
     <g id="line2d_61">
      <g>
       <use xlink:href="#mb6b6d3dd74" x="54.9" y="51.932071" style="fill: #888888; stroke: #888888; stroke-width: 0.6"/>
      </g>
     </g>
    </g>
    <g id="ytick_54">
     <g id="line2d_62">
      <g>
       <use xlink:href="#mb6b6d3dd74" x="54.9" y="49.595491" style="fill: #888888; stroke: #888888; stroke-width: 0.6"/>
      </g>
     </g>
    </g>
    <g id="ytick_55">
     <g id="line2d_63">
      <g>
       <use xlink:href="#mb6b6d3dd74" x="54.9" y="33.75469" style="fill: #888888; stroke: #888888; stroke-width: 0.6"/>
      </g>
     </g>
    </g>
    <g id="ytick_56">
     <g id="line2d_64">
      <g>
       <use xlink:href="#mb6b6d3dd74" x="54.9" y="25.711071" style="fill: #888888; stroke: #888888; stroke-width: 0.6"/>
      </g>
     </g>
    </g>
    <g id="ytick_57">
     <g id="line2d_65">
      <g>
       <use xlink:href="#mb6b6d3dd74" x="54.9" y="20.004032" style="fill: #888888; stroke: #888888; stroke-width: 0.6"/>
      </g>
     </g>
    </g>
    <g id="ytick_58">
     <g id="line2d_66">
      <g>
       <use xlink:href="#mb6b6d3dd74" x="54.9" y="15.577309" style="fill: #888888; stroke: #888888; stroke-width: 0.6"/>
      </g>
     </g>
    </g>
    <g id="ytick_59">
     <g id="line2d_67">
      <g>
       <use xlink:href="#mb6b6d3dd74" x="54.9" y="11.960413" style="fill: #888888; stroke: #888888; stroke-width: 0.6"/>
      </g>
     </g>
    </g>
    <g id="text_16">
     <!-- $C_{10}$ -->
     <g style="fill: #888888" transform="translate(18.9 172) rotate(-90) scale(0.1 -0.1)">
      <defs>
       <path id="DejaVuSans-Oblique-43" d="M 4447 4306 
L 4319 3641 
Q 4019 3944 3683 4091 
Q 3347 4238 2956 4238 
Q 2422 4238 2017 3981 
Q 1613 3725 1319 3200 
Q 1131 2863 1032 2486 
Q 934 2109 934 1728 
Q 934 1091 1264 756 
Q 1594 422 2222 422 
Q 2656 422 3056 561 
Q 3456 700 3834 978 
L 3688 231 
Q 3316 72 2936 -9 
Q 2556 -91 2175 -91 
Q 1278 -91 773 396 
Q 269 884 269 1753 
Q 269 2309 461 2846 
Q 653 3384 1013 3828 
Q 1394 4300 1883 4525 
Q 2372 4750 3022 4750 
Q 3422 4750 3780 4639 
Q 4138 4528 4447 4306 
z
" transform="scale(0.015625)"/>
       <path id="DejaVuSans-31" d="M 794 531 
L 1825 531 
L 1825 4091 
L 703 3866 
L 703 4441 
L 1819 4666 
L 2450 4666 
L 2450 531 
L 3481 531 
L 3481 0 
L 794 0 
L 794 531 
z
" transform="scale(0.015625)"/>
       <path id="DejaVuSans-30" d="M 2034 4250 
Q 1547 4250 1301 3770 
Q 1056 3291 1056 2328 
Q 1056 1369 1301 889 
Q 1547 409 2034 409 
Q 2525 409 2770 889 
Q 3016 1369 3016 2328 
Q 3016 3291 2770 3770 
Q 2525 4250 2034 4250 
z
M 2034 4750 
Q 2819 4750 3233 4129 
Q 3647 3509 3647 2328 
Q 3647 1150 3233 529 
Q 2819 -91 2034 -91 
Q 1250 -91 836 529 
Q 422 1150 422 2328 
Q 422 3509 836 4129 
Q 1250 4750 2034 4750 
z
" transform="scale(0.015625)"/>
      </defs>
      <use xlink:href="#DejaVuSans-Oblique-43" transform="translate(0 0.78125)"/>
      <use xlink:href="#DejaVuSans-31" transform="translate(69.824219 -15.625) scale(0.7)"/>
      <use xlink:href="#DejaVuSans-30" transform="translate(114.360352 -15.625) scale(0.7)"/>
     </g>
    </g>
   </g>
   <g id="patch_3">
    <path d="M 54.9 317 
L 54.9 10.8 
" style="fill: none; stroke: #888888; stroke-width: 0.8; stroke-linejoin: miter; stroke-linecap: square"/>
   </g>
   <g id="patch_4">
    <path d="M 349.2 317 
L 349.2 10.8 
" style="fill: none; stroke: #888888; stroke-width: 0.8; stroke-linejoin: miter; stroke-linecap: square"/>
   </g>
   <g id="patch_5">
    <path d="M 54.9 317 
L 349.2 317 
" style="fill: none; stroke: #888888; stroke-width: 0.8; stroke-linejoin: miter; stroke-linecap: square"/>
   </g>
   <g id="patch_6">
    <path d="M 54.9 10.8 
L 349.2 10.8 
" style="fill: none; stroke: #888888; stroke-width: 0.8; stroke-linejoin: miter; stroke-linecap: square"/>
   </g>
   <g id="text_17">
    <!-- 10* -->
    <g style="fill: #888888" transform="translate(82.570147 280.79597) scale(0.08 -0.08)">
     <defs>
      <path id="B612-Regular-2a" d="M 2019 3181 
L 2467 2566 
L 2150 2278 
L 1674 2938 
L 1597 3168 
L 1520 2938 
L 1072 2323 
L 701 2538 
L 1174 3187 
L 1382 3331 
L 1123 3344 
L 410 3578 
L 496 3997 
L 1258 3750 
L 1469 3584 
L 1398 3846 
L 1398 4595 
L 1824 4640 
L 1824 3834 
L 1741 3578 
L 1952 3738 
L 2672 3968 
L 2845 3578 
L 2070 3328 
L 1818 3318 
L 2019 3181 
z
" transform="scale(0.015625)"/>
     </defs>
     <use xlink:href="#B612-Regular-31"/>
     <use xlink:href="#B612-Regular-30" x="65.000015"/>
     <use xlink:href="#B612-Regular-2a" x="130.000031"/>
    </g>
   </g>
   <g id="text_18">
    <!-- 11* -->
    <g style="fill: #888888" transform="translate(131.740663 213.988693) scale(0.08 -0.08)">
     <use xlink:href="#B612-Regular-31"/>
     <use xlink:href="#B612-Regular-31" x="65.000015"/>
     <use xlink:href="#B612-Regular-2a" x="130.000031"/>
    </g>
   </g>
   <g id="text_19">
    <!-- 12* -->
    <g style="fill: #888888" transform="translate(89.801106 202.854147) scale(0.08 -0.08)">
     <use xlink:href="#B612-Regular-31"/>
     <use xlink:href="#B612-Regular-32" x="65.000015"/>
     <use xlink:href="#B612-Regular-2a" x="130.000031"/>
    </g>
   </g>
   <g id="text_20">
    <!-- 16* -->
    <g style="fill: #888888" transform="translate(75.339189 291.93051) scale(0.08 -0.08)">
     <use xlink:href="#B612-Regular-31"/>
     <use xlink:href="#B612-Regular-36" x="65.000015"/>
     <use xlink:href="#B612-Regular-2a" x="130.000031"/>
    </g>
   </g>
   <g id="text_21">
    <!-- 19* -->
    <g style="fill: #888888" transform="translate(97.75516 268.547972) scale(0.08 -0.08)">
     <use xlink:href="#B612-Regular-31"/>
     <use xlink:href="#B612-Regular-39" x="65.000015"/>
     <use xlink:href="#B612-Regular-2a" x="130.000031"/>
    </g>
   </g>
   <g id="text_22">
    <!-- 20* -->
    <g style="fill: #888888" transform="translate(138.971622 191.719601) scale(0.08 -0.08)">
     <use xlink:href="#B612-Regular-32"/>
     <use xlink:href="#B612-Regular-30" x="65.000015"/>
     <use xlink:href="#B612-Regular-2a" x="130.000031"/>
    </g>
   </g>
   <g id="text_23">
    <!-- 21* -->
    <g style="fill: #888888" transform="translate(97.032064 180.585054) scale(0.08 -0.08)">
     <use xlink:href="#B612-Regular-32"/>
     <use xlink:href="#B612-Regular-31" x="65.000015"/>
     <use xlink:href="#B612-Regular-2a" x="130.000031"/>
    </g>
   </g>
   <g id="text_24">
    <!-- 22* -->
    <g style="fill: #888888" transform="translate(146.20258 169.450508) scale(0.08 -0.08)">
     <use xlink:href="#B612-Regular-32"/>
     <use xlink:href="#B612-Regular-32" x="65.000015"/>
     <use xlink:href="#B612-Regular-2a" x="130.000031"/>
    </g>
   </g>
   <g id="text_25">
    <!-- 23* -->
    <g style="fill: #888888" transform="translate(104.263022 158.368922) scale(0.08 -0.08)">
     <use xlink:href="#B612-Regular-32"/>
     <use xlink:href="#B612-Regular-33" x="65.000015"/>
     <use xlink:href="#B612-Regular-2a" x="130.000031"/>
    </g>
   </g>
   <g id="text_26">
    <!-- 26* -->
    <g style="fill: #888888" transform="translate(167.895455 101.519491) scale(0.08 -0.08)">
     <use xlink:href="#B612-Regular-32"/>
     <use xlink:href="#B612-Regular-36" x="65.000015"/>
     <use xlink:href="#B612-Regular-2a" x="130.000031"/>
    </g>
   </g>
   <g id="text_27">
    <!-- 27* -->
    <g style="fill: #888888" transform="translate(167.895455 169.450508) scale(0.08 -0.08)">
     <use xlink:href="#B612-Regular-32"/>
     <use xlink:href="#B612-Regular-37" x="65.000015"/>
     <use xlink:href="#B612-Regular-2a" x="130.000031"/>
    </g>
   </g>
   <g id="text_28">
    <!-- 31* -->
    <g style="fill: #888888" transform="translate(162.110688 180.601827) scale(0.08 -0.08)">
     <use xlink:href="#B612-Regular-33"/>
     <use xlink:href="#B612-Regular-31" x="65.000015"/>
     <use xlink:href="#B612-Regular-2a" x="130.000031"/>
    </g>
   </g>
   <g id="text_29">
    <!-- 33* -->
    <g style="fill: #888888" transform="translate(75.339189 303.081818) scale(0.08 -0.08)">
     <use xlink:href="#B612-Regular-33"/>
     <use xlink:href="#B612-Regular-33" x="65.000015"/>
     <use xlink:href="#B612-Regular-2a" x="130.000031"/>
    </g>
   </g>
   <g id="text_30">
    <!-- 34* -->
    <g style="fill: #888888" transform="translate(158.495209 190.622918) scale(0.08 -0.08)">
     <defs>
      <path id="B612-Regular-34" d="M 3472 960 
L 2896 960 
L 2896 0 
L 2224 0 
L 2224 960 
L 320 960 
L 320 1507 
L 1869 4864 
L 2474 4800 
L 1146 1920 
L 848 1472 
L 2224 1472 
L 2224 2774 
L 2896 2720 
L 2896 1472 
L 3520 1472 
L 3472 960 
z
" transform="scale(0.015625)"/>
     </defs>
     <use xlink:href="#B612-Regular-33"/>
     <use xlink:href="#B612-Regular-34" x="65.000015"/>
     <use xlink:href="#B612-Regular-2a" x="130.000031"/>
    </g>
   </g>
   <g id="text_31">
    <!-- 35* -->
    <g style="fill: #888888" transform="translate(154.87973 191.736375) scale(0.08 -0.08)">
     <use xlink:href="#B612-Regular-33"/>
     <use xlink:href="#B612-Regular-35" x="65.000015"/>
     <use xlink:href="#B612-Regular-2a" x="130.000031"/>
    </g>
   </g>
   <g id="text_32">
    <!-- 36* -->
    <g style="fill: #888888" transform="translate(60.877273 191.736375) scale(0.08 -0.08)">
     <use xlink:href="#B612-Regular-33"/>
     <use xlink:href="#B612-Regular-36" x="65.000015"/>
     <use xlink:href="#B612-Regular-2a" x="130.000031"/>
    </g>
   </g>
   <g id="text_33">
    <!-- 37 -->
    <g style="fill: #888888" transform="translate(118.032555 240.728375) scale(0.08 -0.08)">
     <use xlink:href="#B612-Regular-33"/>
     <use xlink:href="#B612-Regular-37" x="65.000015"/>
    </g>
   </g>
   <g id="text_34">
    <!-- 38 -->
    <g style="fill: #888888" transform="translate(207.696437 152.76875) scale(0.08 -0.08)">
     <use xlink:href="#B612-Regular-33"/>
     <use xlink:href="#B612-Regular-38" x="65.000015"/>
    </g>
   </g>
   <g id="text_35">
    <!-- 39 -->
    <g style="fill: #888888" transform="translate(125.263514 229.59383) scale(0.08 -0.08)">
     <use xlink:href="#B612-Regular-33"/>
     <use xlink:href="#B612-Regular-39" x="65.000015"/>
    </g>
   </g>
   <g id="text_36">
    <!-- 40 -->
    <g style="fill: #888888" transform="translate(199.019287 147.198188) scale(0.08 -0.08)">
     <use xlink:href="#B612-Regular-34"/>
     <use xlink:href="#B612-Regular-30" x="65.000015"/>
    </g>
   </g>
   <g id="text_37">
    <!-- 41 -->
    <g style="fill: #888888" transform="translate(208.419533 121.588732) scale(0.08 -0.08)">
     <use xlink:href="#B612-Regular-34"/>
     <use xlink:href="#B612-Regular-31" x="65.000015"/>
    </g>
   </g>
   <g id="text_38">
    <!-- 43 -->
    <g style="fill: #888888" transform="translate(220.712162 69.256364) scale(0.08 -0.08)">
     <use xlink:href="#B612-Regular-34"/>
     <use xlink:href="#B612-Regular-33" x="65.000015"/>
    </g>
   </g>
   <g id="text_39">
    <!-- 44 -->
    <g style="fill: #888888" transform="translate(246.020516 52.554545) scale(0.08 -0.08)">
     <use xlink:href="#B612-Regular-34"/>
     <use xlink:href="#B612-Regular-34" x="65.000015"/>
    </g>
   </g>
   <g id="text_40">
    <!-- 45 -->
    <g style="fill: #888888" transform="translate(77.539189 303.081818) scale(0.08 -0.08)">
     <use xlink:href="#B612-Regular-34"/>
     <use xlink:href="#B612-Regular-35" x="65.000015"/>
    </g>
   </g>
   <g id="text_41">
    <!-- 46 -->
    <g style="fill: #888888" transform="translate(204.804054 138.290551) scale(0.08 -0.08)">
     <use xlink:href="#B612-Regular-34"/>
     <use xlink:href="#B612-Regular-36" x="65.000015"/>
    </g>
   </g>
   <g id="text_42">
    <!-- 47 -->
    <g style="fill: #888888" transform="translate(77.539189 303.081818) scale(0.08 -0.08)">
     <use xlink:href="#B612-Regular-34"/>
     <use xlink:href="#B612-Regular-37" x="65.000015"/>
    </g>
   </g>
   <g id="text_43">
    <!-- 48 -->
    <g style="fill: #888888" transform="translate(77.539189 303.081818) scale(0.08 -0.08)">
     <use xlink:href="#B612-Regular-34"/>
     <use xlink:href="#B612-Regular-38" x="65.000015"/>
    </g>
   </g>
   <g id="text_44">
    <!-- 50 -->
    <g style="fill: #888888" transform="translate(85.493243 290.833844) scale(0.08 -0.08)">
     <use xlink:href="#B612-Regular-35"/>
     <use xlink:href="#B612-Regular-30" x="65.000015"/>
    </g>
   </g>
   <g id="text_45">
    <!-- 52 -->
    <g style="fill: #888888" transform="translate(201.911671 142.744369) scale(0.08 -0.08)">
     <use xlink:href="#B612-Regular-35"/>
     <use xlink:href="#B612-Regular-32" x="65.000015"/>
    </g>
   </g>
   <g id="text_46">
    <!-- 53 -->
    <g style="fill: #888888" transform="translate(236.62027 67.029455) scale(0.08 -0.08)">
     <use xlink:href="#B612-Regular-35"/>
     <use xlink:href="#B612-Regular-33" x="65.000015"/>
    </g>
   </g>
   <g id="text_47">
    <!-- 54 -->
    <g style="fill: #888888" transform="translate(249.635995 46.987272) scale(0.08 -0.08)">
     <use xlink:href="#B612-Regular-35"/>
     <use xlink:href="#B612-Regular-34" x="65.000015"/>
    </g>
   </g>
   <g id="text_48">
    <!-- 55 -->
    <g style="fill: #888888" transform="translate(191.788329 158.332734) scale(0.08 -0.08)">
     <use xlink:href="#B612-Regular-35"/>
     <use xlink:href="#B612-Regular-35" x="65.000015"/>
    </g>
   </g>
   <g id="text_49">
    <!-- 56 -->
    <g style="fill: #888888" transform="translate(180.941892 143.857824) scale(0.08 -0.08)">
     <use xlink:href="#B612-Regular-35"/>
     <use xlink:href="#B612-Regular-36" x="65.000015"/>
    </g>
   </g>
   <g id="text_50">
    <!-- 57 -->
    <g style="fill: #888888" transform="translate(258.313145 55.895212) scale(0.08 -0.08)">
     <use xlink:href="#B612-Regular-35"/>
     <use xlink:href="#B612-Regular-37" x="65.000015"/>
    </g>
   </g>
   <g id="text_51">
    <!-- 58 -->
    <g style="fill: #888888" transform="translate(330.622727 24.718182) scale(0.08 -0.08)">
     <use xlink:href="#B612-Regular-35"/>
     <use xlink:href="#B612-Regular-38" x="65.000015"/>
    </g>
   </g>
  </g>
 </g>
 <defs>
  <clipPath id="p229b0c632c">
   <rect x="54.9" y="10.8" width="294.3" height="306.2"/>
  </clipPath>
 </defs>
</svg>
